<svg width="466" height="179" viewBox="0 0 466 179" fill="none" xmlns="http://www.w3.org/2000/svg">
<path d="M261.182 95.9571L276.696 123.751L242.649 106.038L225.357 78.8484L261.182 95.9571Z" fill="#D1E2FA"/>
<path d="M277.316 123.605L277.271 123.469L261.749 95.666C261.704 95.5299 261.536 95.425 261.369 95.3201L225.482 78.0698C225.193 77.9961 224.95 78.0586 224.752 78.2571C224.555 78.4557 224.524 78.7593 224.783 79.1365L242.128 106.471C242.174 106.607 242.341 106.712 242.463 106.681L276.526 124.399C276.815 124.473 277.104 124.547 277.256 124.212C277.332 124.045 277.408 123.877 277.316 123.605ZM260.716 96.5228L275.097 122.105L242.994 105.509L227.032 80.333L260.716 96.5228Z" fill="#5DA2FF" stroke="#5DA2FF" stroke-width="3"/>
<path d="M298.186 81.8345L279.123 121.94L263.693 94.2436L284.89 52.2632L298.186 81.8345Z" fill="#D1E2FA"/>
<path d="M298.795 81.6694C298.75 81.5337 298.75 81.5337 298.795 81.6694L285.493 52.0901C285.402 51.8188 285.236 51.7143 284.948 51.6409C284.661 51.5675 284.464 51.7655 284.388 51.9323L263.184 93.9244C263.108 94.0912 263.078 94.3937 263.289 94.6339L278.726 122.338C278.817 122.609 279.104 122.683 279.271 122.787C279.558 122.861 279.755 122.663 279.831 122.496L298.901 82.3788C298.886 81.9407 298.84 81.805 298.795 81.6694ZM284.856 53.7271L297.448 81.5738L278.984 120.356L264.334 94.2179L284.856 53.7271Z" fill="#5DA2FF"/>
<path d="M298.795 81.6694C298.75 81.5337 298.75 81.5337 298.795 81.6694ZM298.795 81.6694L285.493 52.0901C285.402 51.8188 285.236 51.7143 284.948 51.6409C284.661 51.5675 284.464 51.7655 284.388 51.9323L263.184 93.9244C263.108 94.0912 263.078 94.3937 263.289 94.6339L278.726 122.338C278.817 122.609 279.104 122.683 279.271 122.787C279.558 122.861 279.755 122.663 279.831 122.496L298.901 82.3788C298.886 81.9407 298.84 81.805 298.795 81.6694ZM284.856 53.7271L297.448 81.5738L278.984 120.356L264.334 94.2179L284.856 53.7271Z" stroke="#5DA2FF" stroke-width="3"/>
<path d="M285.587 53.8698L263.858 96.991L227.137 79.4611L249.182 39.287L285.587 53.8698Z" fill="#D1E2FA"/>
<path d="M286.197 53.7088C286.103 53.4301 285.932 53.3227 285.76 53.2153L249.364 38.6372C249.068 38.5617 248.819 38.6255 248.617 38.8287L226.579 78.9898C226.501 79.161 226.424 79.3323 226.517 79.6109C226.564 79.7503 226.782 79.997 226.954 80.1044L263.712 97.7681C264.055 97.9829 264.381 97.7478 264.459 97.5766L286.182 54.4693C286.337 54.1268 286.29 53.9875 286.197 53.7088ZM249.584 40.0943L284.626 54.263L263.445 96.1716L228.01 79.2279L249.584 40.0943Z" fill="#5DA2FF" stroke="#5DA2FF" stroke-width="3"/>
<path d="M175.668 21.4509L199.493 57.9848C199.493 57.9848 166.038 42.1948 149.234 34.468C140.421 22.4639 122.796 -1.54443 122.796 -1.54443L175.668 21.4509Z" fill="#F2F2F2"/>
<path d="M200.154 57.9645L200.108 57.8276L176.276 21.2862C176.23 21.1493 176.062 21.0439 175.894 20.9384L123.008 -2.06151C122.717 -2.13564 122.473 -2.07294 122.274 -1.87341C122.076 -1.67389 122.213 -1.26342 122.305 -0.98977L148.751 35.0301C148.797 35.167 148.965 35.2724 149.088 35.2411L199.36 58.7626C199.65 58.8367 199.895 58.774 200.093 58.5744C200.17 58.4063 200.2 58.1013 200.154 57.9645ZM175.314 21.9788L197.798 56.4878L149.576 33.927L124.768 0.0137112L175.314 21.9788Z" fill="#5DA2FF" stroke="#5DA2FF" stroke-width="3"/>
<path d="M228.34 3.08586L202.631 55.4683L178.959 19.0216L207.855 -35.6562L228.34 3.08586Z" fill="#F2F2F2"/>
<path d="M228.961 2.93282C228.915 2.7968 228.915 2.7968 228.961 2.93282L208.299 -35.9264C208.208 -36.1985 207.92 -36.2721 207.753 -36.3769C207.464 -36.4505 207.267 -36.2521 207.191 -36.0849L178.329 18.7471C178.253 18.9143 178.222 19.2175 178.435 19.4584L202.072 55.7805C202.285 56.0214 202.452 56.1262 202.573 56.095C202.816 56.0326 202.938 56.0014 203.135 55.803L228.976 3.37207C229.052 3.20485 229.006 3.06883 228.961 2.93282ZM207.783 -34.3166L227.655 2.97281L202.422 54.066L179.604 19.0103L207.783 -34.3166Z" fill="#5DA2FF"/>
<path d="M228.961 2.93281C228.915 2.7968 228.915 2.7968 228.961 2.93281ZM228.961 2.93281L208.299 -35.9264C208.208 -36.1985 207.92 -36.2721 207.753 -36.3769C207.464 -36.4505 207.267 -36.2521 207.191 -36.0849L178.329 18.7471C178.253 18.9143 178.222 19.2175 178.435 19.4584L202.072 55.7805C202.285 56.0214 202.452 56.1262 202.573 56.095C202.816 56.0326 202.938 56.0014 203.135 55.803L228.976 3.37207C229.052 3.20485 229.006 3.06883 228.961 2.93281ZM207.783 -34.3166L227.655 2.97281L202.422 54.0659L179.604 19.0103L207.783 -34.3166Z" stroke="#5DA2FF" stroke-width="3"/>
<path d="M208.709 -33.1699L179.084 23.0187L125.119 -0.475117L155.341 -52.8697L208.709 -33.1699Z" fill="#F2F2F2"/>
<path d="M209.321 -33.3385C209.274 -33.4783 209.274 -33.4783 209.321 -33.3385C209.227 -33.618 209.055 -33.7257 208.883 -33.8334L155.572 -53.3889C155.275 -53.4646 155.026 -53.4006 154.823 -53.1968L124.731 -0.846585C124.653 -0.674842 124.575 -0.503103 124.669 -0.223643C124.763 0.0558157 124.935 0.163525 125.107 0.271237L179.063 23.7595C179.359 23.8352 179.733 23.7391 179.811 23.5674L209.384 -32.7476C209.29 -33.0271 209.367 -33.1988 209.321 -33.3385ZM155.667 -51.8955L207.621 -32.7506L178.718 22.3302L126.166 -0.607832L155.667 -51.8955Z" fill="#5DA2FF"/>
<path d="M209.321 -33.3385C209.274 -33.4783 209.274 -33.4783 209.321 -33.3385ZM209.321 -33.3385C209.227 -33.618 209.055 -33.7257 208.883 -33.8334L155.572 -53.3889C155.275 -53.4646 155.026 -53.4006 154.823 -53.1968L124.731 -0.846586C124.653 -0.67484 124.575 -0.503104 124.669 -0.223643C124.763 0.0558167 124.935 0.163524 125.107 0.271238L179.063 23.7595C179.359 23.8352 179.733 23.7391 179.811 23.5674L209.384 -32.7476C209.29 -33.0271 209.367 -33.1988 209.321 -33.3385ZM155.667 -51.8955L207.621 -32.7506L178.718 22.3302L126.166 -0.607832L155.667 -51.8955Z" stroke="#5DA2FF" stroke-width="3"/>
<path d="M216.21 -54.4845C226.857 -38.2007 249.421 -3.43347 249.421 -3.43347L188.125 -30.2014L152.272 -79.238C152.272 -79.238 195.713 -62.1525 216.21 -54.4845Z" fill="#F2F2F2"/>
<path d="M250.043 -3.58398L249.997 -3.72075C249.997 -3.72075 227.352 -38.3256 216.779 -54.7803C216.733 -54.9171 216.565 -55.0225 216.396 -55.1279C196.185 -62.7231 152.858 -79.8427 152.445 -79.8855C152.154 -79.9596 151.91 -79.8969 151.711 -79.6974C151.513 -79.4979 151.651 -79.0876 151.743 -78.814L187.603 -29.7691C187.649 -29.6323 187.817 -29.5269 187.94 -29.5582L249.248 -2.78606C249.539 -2.71196 249.783 -2.77464 249.982 -2.97412C250.058 -3.14225 250.089 -3.44718 250.043 -3.58398ZM215.74 -53.9197C224.875 -39.7705 242.868 -12.2929 247.611 -4.89206L188.474 -30.7352L154.036 -77.9162C162.75 -74.5049 197.944 -60.6484 215.74 -53.9197Z" fill="#4D4D4D"/>
<path d="M328.338 58.1898L351.323 100.553L285.425 69.4901L258.592 27.5198L328.338 58.1898Z" fill="#D1E2FA"/>
<path d="M351.944 100.405L351.898 100.269L328.953 58.0332C328.907 57.8965 328.739 57.7911 328.571 57.6857L258.76 26.8728C258.47 26.7987 258.226 26.8614 258.027 27.0608C257.829 27.2602 257.798 27.565 258.012 27.8072L285.021 69.8916C285.067 70.0284 285.235 70.1338 285.404 70.2392L351.272 101.172C351.563 101.246 351.807 101.183 352.006 100.984C351.96 100.847 351.99 100.542 351.944 100.405ZM327.869 58.7568L349.759 99.0351L285.892 68.9259L260.228 28.8726L327.869 58.7568Z" fill="#5DA2FF" stroke="#5DA2FF" stroke-width="3"/>
<path d="M382.719 31.1409L355.139 97.0552L332.491 55.1047L363.681 -13.3564L382.719 31.1409Z" fill="#D1E2FA"/>
<path d="M383.339 30.9825L364.247 -13.6608C364.157 -13.9317 363.946 -14.1714 363.704 -14.1092C363.417 -14.1824 363.221 -13.9847 363.145 -13.8182L331.945 54.6598C331.869 54.8263 331.839 55.1283 332.05 55.368L354.661 97.1931C354.752 97.4639 355.039 97.5371 355.325 97.6104C355.612 97.6836 355.809 97.4859 355.884 97.3194L383.278 31.5865C383.353 31.4199 383.429 31.2534 383.339 30.9825ZM363.702 -11.7557L382.085 31.1582L355.176 95.5899L333.348 55.3278L363.702 -11.7557Z" fill="#5DA2FF" stroke="#5DA2FF" stroke-width="3"/>
<path d="M364.628 -10.5245L332.613 59.9269L261.514 28.6476L295.14 -36.6139L364.628 -10.5245Z" fill="#D1E2FA"/>
<path d="M365.24 -10.685C365.146 -10.9638 364.975 -11.0712 364.804 -11.1787L295.325 -37.2638C295.029 -37.3393 294.78 -37.2755 294.578 -37.0722L260.956 28.1786C260.878 28.3499 260.801 28.5212 260.895 28.8C260.988 29.0787 261.16 29.1862 261.331 29.2936L332.467 60.7072C332.763 60.7827 333.136 60.6869 333.214 60.5156L365.226 -9.92425C365.256 -10.2349 365.287 -10.5456 365.24 -10.685ZM295.42 -35.7742L363.498 -10.238L332.029 59.0027L262.217 28.3094L295.42 -35.7742Z" fill="#5DA2FF" stroke="#5DA2FF" stroke-width="3"/>
<path d="M273.573 -10.9153L250.566 -47.03L303.862 -25.8081L323.891 10.9217L273.573 -10.9153Z" fill="#F2F2F2"/>
<path d="M324.513 10.7718L324.467 10.6351L304.432 -26.1031C304.386 -26.2398 304.218 -26.3452 304.049 -26.4506L250.738 -47.6772C250.448 -47.7512 250.204 -47.6886 250.005 -47.4892C249.807 -47.2898 249.899 -47.0163 249.991 -46.7429L273.126 -10.6512C273.172 -10.5145 273.34 -10.4091 273.508 -10.3037L323.719 11.5694C324.009 11.6434 324.254 11.5808 324.452 11.3814C324.528 11.2133 324.605 11.0453 324.513 10.7718ZM303.393 -25.2429L322.419 9.6752L274.088 -11.3434L252.252 -45.5409L303.393 -25.2429Z" fill="#5DA2FF" stroke="#5DA2FF" stroke-width="3"/>
<path d="M349.516 -41.1407L326.899 8.20475L307.16 -28.1729L332.857 -80.0761L349.516 -41.1407Z" fill="#F2F2F2"/>
<path d="M350.131 -41.3002L333.42 -80.3806C333.33 -80.6515 333.119 -80.8912 332.877 -80.829C332.59 -80.9022 332.394 -80.7046 332.318 -80.538L306.611 -28.6216C306.536 -28.4551 306.505 -28.1531 306.717 -27.9133L326.464 8.47314C326.555 8.744 326.842 8.8172 327.007 8.92152C327.294 8.99473 327.491 8.79709 327.566 8.63055L350.312 -40.7585C350.222 -41.0294 350.177 -41.1648 350.131 -41.3002ZM332.83 -78.6109L348.833 -41.26L326.813 6.76565L307.97 -28.089L332.83 -78.6109Z" fill="#5DA2FF" stroke="#5DA2FF" stroke-width="3"/>
<path d="M437.851 74.5875L452.625 111.473L385.801 80.3639L366.415 43.1765L437.851 74.5875Z" fill="#F2F2F2"/>
<path d="M453.253 111.33L438.474 74.4343C438.428 74.2976 438.214 74.0555 438.046 73.9502L366.584 42.5305C366.294 42.4565 366.049 42.5191 365.851 42.7185C365.652 42.9179 365.622 43.2226 365.836 43.4647L385.305 80.4948C385.351 80.6315 385.519 80.7369 385.687 80.8423L452.536 111.96C452.826 112.034 453.07 111.971 453.147 111.803C453.269 111.772 453.345 111.604 453.253 111.33ZM437.39 75.1578L451.404 110.171L386.267 79.8027L367.807 44.5927L437.39 75.1578Z" fill="#5DA2FF" stroke="#5DA2FF" stroke-width="3"/>
<path d="M478.48 44.1825L456.343 107.876L441.916 71.491L467.014 4.54345L478.48 44.1825Z" fill="#F2F2F2"/>
<path d="M467.62 4.37116C467.531 4.1014 467.321 3.86267 467.036 3.78987C466.751 3.71707 466.555 3.91402 466.36 4.11098L441.247 71.0837C441.172 71.2496 441.217 71.3845 441.306 71.6543L455.744 108.053C455.833 108.322 456.043 108.561 456.283 108.499C456.568 108.572 456.764 108.375 456.794 108.074L478.944 44.3565C479.019 44.1905 478.975 44.0557 478.93 43.9208L467.62 4.37116ZM442.597 71.6137L466.926 6.6009L477.804 44.0653L456.243 106.02L442.597 71.6137Z" fill="#5DA2FF" stroke="#5DA2FF" stroke-width="3"/>
<path d="M467.737 7.04102L441.971 76.03L369.28 44.0645L397.384 -19.1798L467.737 7.04102Z" fill="#F2F2F2"/>
<path d="M468.348 6.88561C468.254 6.60755 468.083 6.50034 467.912 6.39316L397.399 -19.9299C397.104 -20.0053 396.731 -19.9098 396.7 -19.5999L368.648 43.7715C368.57 43.9424 368.493 44.1132 368.711 44.3594C368.757 44.4985 368.975 44.7447 369.146 44.8519L441.826 76.8114C442.168 77.0258 442.494 76.7913 442.649 76.4495L468.411 7.47355C468.364 7.33452 468.394 7.02463 468.348 6.88561ZM397.665 -18.337L466.78 7.43853L441.513 75.0794L370.154 43.8383L397.665 -18.337Z" fill="#5DA2FF" stroke="#5DA2FF" stroke-width="3"/>
<path d="M351.138 25.4777L323.863 -26.1409L412.165 9.38167L432.954 61.0315L351.138 25.4777Z" fill="#D1E2FA"/>
<path d="M433.582 60.8967L412.741 9.09752C412.65 8.82421 412.482 8.71887 412.314 8.61353L323.862 -26.8859C323.571 -26.9599 323.327 -26.8973 323.129 -26.698C322.93 -26.4987 322.9 -26.1941 323.114 -25.9521L350.398 25.6791C350.444 25.8157 350.612 25.9211 350.78 26.0264L432.621 61.5885C432.911 61.6625 433.155 61.5999 433.232 61.4319C433.644 61.4746 433.674 61.17 433.582 60.8967ZM411.78 9.78936L431.856 59.7066L351.558 24.7879L325.16 -24.9926L411.78 9.78936Z" fill="#5DA2FF" stroke="#5DA2FF" stroke-width="3"/>
<path d="M466.5 -20.3123L437.653 56.5129L417.356 5.56157L450.379 -75.563L466.5 -20.3123Z" fill="#D1E2FA"/>
<path d="M450.985 -75.7355C450.895 -76.0052 450.686 -76.2438 450.401 -76.3166C450.116 -76.3893 449.92 -76.1924 449.725 -75.9955L416.686 5.15324C416.611 5.3191 416.656 5.45394 416.745 5.72359L437.055 56.6895C437.144 56.9592 437.354 57.1978 437.594 57.1357C437.879 57.2085 438.074 57.0116 438.149 56.8457L467.174 -19.8986C467.249 -20.0645 467.205 -20.1993 467.16 -20.3341L450.985 -75.7355ZM418.156 5.65186L450.411 -73.5376L465.869 -20.2935L437.643 54.9272L418.156 5.65186Z" fill="#5DA2FF" stroke="#5DA2FF" stroke-width="3"/>
<path d="M451.473 -72.5321L417.448 11.3573C417.448 11.3573 342.794 -18.7358 327.196 -24.8864C333.005 -36.9839 364.253 -101.371 364.253 -101.371L451.473 -72.5321Z" fill="#D1E2FA"/>
<path d="M452.085 -72.6927C451.991 -72.9717 451.773 -73.2187 451.648 -73.1867L364.438 -102.022C364.142 -102.097 363.893 -102.033 363.737 -101.691C363.737 -101.691 332.493 -37.3121 326.685 -25.2163C326.607 -25.0449 326.576 -24.734 326.623 -24.5945C326.717 -24.3155 326.889 -24.208 327.06 -24.1005C342.703 -17.8112 417.302 12.1384 417.302 12.1384C417.598 12.214 417.971 12.1182 418.002 11.8072L452.024 -72.0709C452.179 -72.4138 452.132 -72.5533 452.085 -72.6927ZM364.658 -100.563L450.638 -72.1698L417.113 10.3689C410.397 7.69794 344.508 -18.8803 328.273 -25.3208C334.469 -38.2737 361.924 -95.0134 364.658 -100.563Z" fill="#4D4D4D" stroke="#5DA2FF" stroke-width="3"/>
<path d="M383.648 -64.7222L410.481 1.80354L321.141 -33.4137L287.109 -98.093L383.648 -64.7222Z" fill="#D1E2FA"/>
<path d="M411.11 1.64714L384.397 -64.9126C384.305 -65.1857 384.138 -65.2909 383.97 -65.3962L287.381 -98.9048C287.091 -98.9787 286.847 -98.9161 286.771 -98.7483C286.572 -98.5491 286.664 -98.276 286.756 -98.0029L320.79 -33.3211C320.835 -33.1845 321.003 -33.0793 321.171 -32.974L410.394 2.27588C410.683 2.34983 410.927 2.28724 411.004 2.11939C411.171 2.22464 411.202 1.92024 411.11 1.64714ZM383.314 -64.1899L409.31 0.625904L321.582 -34.1176L288.388 -97.0869L383.314 -64.1899Z" fill="#5DA2FF" stroke="#5DA2FF" stroke-width="3"/>
<path d="M430.174 -155.633C430.085 -155.902 429.875 -156.141 429.59 -156.213C429.306 -156.286 429.11 -156.089 428.915 -155.892L389.126 -69.2159C389.05 -69.0501 388.975 -68.8842 389.185 -68.6457L415.284 -2.95331C415.373 -2.68375 415.583 -2.44522 415.823 -2.50728C416.108 -2.43455 416.303 -2.63138 416.378 -2.79719L450.505 -84.9368C450.58 -85.1026 450.536 -85.2374 450.491 -85.3722L430.174 -155.633ZM390.43 -68.8212L429.51 -153.705L449.276 -85.4973L415.783 -4.98472L390.43 -68.8212Z" fill="#5DA2FF" stroke="#5DA2FF" stroke-width="3"/>
</svg>
