<svg width="65" height="63" viewBox="0 0 65 63" fill="none" xmlns="http://www.w3.org/2000/svg">
<path d="M37.8335 56.2557C37.3233 56.3933 36.8028 56.5159 36.2861 56.6221C34.9346 56.8975 34.0623 58.2165 34.3384 59.5682C34.3539 59.6454 34.3732 59.7188 34.3953 59.7926C34.764 61.0143 36.0102 61.7765 37.2852 61.5164C37.9018 61.3902 38.5232 61.2433 39.1324 61.0793C40.4648 60.721 41.2538 59.3502 40.8953 58.0178C40.5365 56.6837 39.1659 55.8969 37.8335 56.2557Z" fill="white"/>
<path d="M20.4218 54.8651C19.9394 54.6504 19.4581 54.418 18.9912 54.1738C17.7677 53.5359 16.2594 54.01 15.6214 55.2334C15.3064 55.8351 15.2622 56.5065 15.4442 57.109C15.6321 57.7305 16.0595 58.279 16.6797 58.6027C17.237 58.893 17.8098 59.1706 18.3845 59.4268C19.6438 59.9891 21.1211 59.4245 21.6838 58.1654C22.2465 56.9051 21.6813 55.4287 20.4218 54.8651Z" fill="white"/>
<path d="M29.0113 57.061C28.486 57.0187 27.953 56.9592 27.4299 56.8856C26.0638 56.691 24.7999 57.6415 24.6058 59.0075C24.5531 59.3787 24.5854 59.7417 24.6868 60.0782C24.959 60.9803 25.7337 61.6896 26.7285 61.8316C27.3509 61.9195 27.9844 61.99 28.6105 62.0399C29.986 62.1513 31.1903 61.1262 31.301 59.7516C31.4116 58.3761 30.3871 57.1717 29.0113 57.061Z" fill="white"/>
<path d="M45.8789 52.5303C45.4449 52.8289 44.9948 53.1188 44.5417 53.3923C43.5432 53.9938 43.117 55.1837 43.4384 56.2506C43.4976 56.4461 43.5821 56.6377 43.6923 56.8212C44.4038 58.0027 45.9392 58.3822 47.1209 57.6709C47.6596 57.346 48.1948 57.0003 48.7107 56.6455C49.8468 55.8634 50.1347 54.3081 49.3524 53.1721C48.5706 52.0351 47.0148 51.7483 45.8789 52.5303Z" fill="white"/>
<path d="M55.698 45.7751C54.5791 44.9684 53.0179 45.2215 52.211 46.3397C51.9029 46.7674 51.5767 47.1918 51.2427 47.599C50.6948 48.268 50.5526 49.1353 50.7843 49.9053C50.923 50.3636 51.1943 50.7883 51.5922 51.1145C52.6594 51.9884 54.233 51.8315 55.107 50.7642C55.5057 50.2783 55.895 49.7722 56.2622 49.2622C57.0692 48.1433 56.8167 46.5826 55.698 45.7751Z" fill="white"/>
<path d="M59.1942 36.6769C57.8702 36.2902 56.4833 37.0508 56.0971 38.375C55.9487 38.8822 55.7833 39.3915 55.6063 39.8884C55.4184 40.4113 55.4156 40.9567 55.5651 41.4506C55.786 42.1835 56.3391 42.8047 57.1136 43.0822C58.4125 43.548 59.8419 42.8733 60.3084 41.5751C60.5202 40.983 60.717 40.3768 60.8924 39.7734C61.2784 38.4499 60.5181 37.0624 59.1942 36.6769Z" fill="white"/>
<path d="M63.881 20.4027L60.5983 21.4227C58.107 13.7883 52.8616 7.51476 45.762 3.7046C45.0473 3.32079 44.3224 2.96811 43.5886 2.64402C43.5832 2.64149 43.579 2.63938 43.5741 2.63614C43.5434 2.62318 43.5111 2.61107 43.4813 2.59783C37.0084 -0.234444 29.8454 -0.771349 22.979 1.0881C22.9251 1.09866 22.8711 1.1088 22.8179 1.12387C22.5886 1.18641 22.3572 1.25416 22.1289 1.32233C21.7541 1.43557 21.377 1.55754 21.0072 1.68444C20.9634 1.69951 20.9221 1.71824 20.8796 1.73515C14.7502 3.8584 9.53062 7.77307 5.80693 13.0035C5.79369 13.0216 5.77876 13.0371 5.76623 13.0549C5.40228 13.5661 5.04974 14.0961 4.71678 14.6307C4.69594 14.6649 4.67862 14.7006 4.65876 14.7359C4.32664 15.2745 4.00748 15.8255 3.70523 16.3875C0.619011 22.1391 -0.55832 28.5655 0.244925 34.9134C0.246756 34.9279 0.248446 34.9414 0.249713 34.9558C0.250981 34.9659 0.253235 34.9765 0.255629 34.9871C0.47394 36.6828 0.832534 38.3731 1.33606 40.0427C2.65832 44.4265 4.86467 48.3684 7.89342 51.7594C8.81216 52.7879 10.3913 52.8766 11.4203 51.9579C12.4488 51.0388 12.5385 49.4593 11.6191 48.4311C10.1071 46.7391 8.84174 44.8806 7.82892 42.8784C7.81807 42.8537 7.80849 42.8285 7.79666 42.8048C7.55849 42.3325 7.33215 41.8482 7.12257 41.3636C7.12145 41.3598 7.12018 41.3575 7.11849 41.3544C6.73708 40.4623 6.40454 39.544 6.11947 38.6005C2.84579 27.746 7.02074 16.3879 15.6846 10.0375C15.8128 9.94421 15.9408 9.85013 16.0702 9.75971C18.2945 8.19096 20.8032 6.94701 23.5489 6.11912C26.312 5.28615 29.1062 4.93629 31.8429 5.01827C31.8871 5.02024 31.9301 5.0215 31.9739 5.02277C32.1409 5.02784 32.3074 5.03672 32.4736 5.04601C32.5408 5.04953 32.6077 5.0532 32.6747 5.05742C41.2081 5.59123 49.0771 10.3307 53.4946 17.7765C53.497 17.7807 53.4986 17.7855 53.5016 17.7898C53.5671 17.9003 53.631 18.0107 53.6953 18.1226C53.7029 18.1351 53.7112 18.1462 53.7185 18.1591C54.5637 19.6412 55.2749 21.2272 55.828 22.9057L52.5454 23.9263C51.6337 24.2095 51.544 24.8654 52.3441 25.384L59.4877 30.0111C60.2886 30.5301 61.2438 30.2329 61.609 29.3525L64.8725 21.4905C65.2373 20.6094 64.792 20.1196 63.881 20.4027Z" fill="white"/>
<path d="M21.8717 31.092C19.4643 32.8754 17.8224 34.4224 16.9471 35.7328C16.0728 37.0431 15.5483 38.442 15.376 39.9295H30.4374V35.8375H22.5983C23.0586 35.3849 23.459 35.0199 23.8001 34.741C24.1414 34.4606 24.8166 33.9724 25.8276 33.2737C27.5282 32.0741 28.7014 30.9729 29.3467 29.9701C29.9913 28.9681 30.314 27.9163 30.314 26.8152C30.314 25.7801 30.0327 24.8452 29.4699 24.0106C28.9067 23.177 28.1338 22.5584 27.1521 22.1557C26.1706 21.7536 24.7961 21.5518 23.0292 21.5518C21.337 21.5518 20.0124 21.7637 19.0546 22.1875C18.098 22.6106 17.3559 23.2184 16.8304 24.0106C16.3043 24.8045 15.9432 25.9074 15.7456 27.3201L20.7744 27.7267C20.9139 26.7086 21.1875 25.9974 21.5938 25.595C22.001 25.1923 22.5239 24.9908 23.1658 24.9908C23.7817 24.9908 24.2934 25.1863 24.6999 25.5767C25.1064 25.9663 25.31 26.4371 25.31 26.988C25.31 27.4977 25.1047 28.0356 24.6935 28.6029C24.2827 29.1697 23.3418 29.9998 21.8717 31.092Z" fill="white"/>
<path d="M45.5849 39.9295V36.5521H47.8524V32.6566H45.5849V21.5518H41.2094L32.0643 32.4232V36.5521H41.2094V39.9295H45.5849ZM36.3777 32.6566L41.2094 26.9712V32.6566H36.3777Z" fill="white"/>
</svg>
