<svg width="71" height="39" viewBox="0 0 71 39" fill="none" xmlns="http://www.w3.org/2000/svg">
<path fill-rule="evenodd" clip-rule="evenodd" d="M16.2144 38.9365H6.52193C5.60676 38.9365 4.85798 38.1877 4.85798 37.2725V25.9992H1.65487C1.03089 25.9992 0.448511 25.6665 0.15732 25.0841C-0.092273 24.5017 -0.0506742 23.8361 0.323715 23.3369L10.0578 10.3997C10.349 9.98372 10.8482 9.73413 11.389 9.73413C11.8882 9.73413 12.3874 9.98372 12.7201 10.3997L22.2879 23.2121C22.5791 23.5033 22.7454 23.9193 22.7454 24.3353C22.7454 25.2505 21.9967 25.9992 21.0815 25.9992H17.8784V37.2725C17.8784 38.1877 17.1296 38.9365 16.2144 38.9365Z" fill="#272D4E"/>
<path fill-rule="evenodd" clip-rule="evenodd" d="M40.3417 38.9365H30.6076C29.6924 38.9365 28.9853 38.1877 28.9853 37.2725V21.1322H25.7822C25.1582 21.1322 24.5758 20.7578 24.2846 20.217C23.9934 19.6346 24.0766 18.969 24.451 18.4699L34.1435 5.53265C34.4763 5.11666 34.9755 4.86707 35.4747 4.86707C36.0155 4.86707 36.5146 5.11666 36.8058 5.53265L46.4151 18.3451C46.7063 18.6363 46.8727 19.0106 46.8727 19.4682C46.8727 20.3834 46.124 21.1322 45.2088 21.1322H42.0057V37.2725C42.0057 38.1877 41.2569 38.9365 40.3417 38.9365Z" fill="#272D4E"/>
<path fill-rule="evenodd" clip-rule="evenodd" d="M64.4689 38.9364H54.7348C53.8196 38.9364 53.0709 38.1877 53.0709 37.2725V16.2651H49.8678C49.2438 16.2651 48.6614 15.8907 48.4118 15.3499C48.1206 14.7676 48.1622 14.102 48.5366 13.6028L58.2707 0.66558C58.5619 0.249593 59.0611 0 59.6019 0C60.101 0 60.6002 0.249593 60.933 0.66558L70.5423 13.478C70.7919 13.7692 70.9999 14.1436 70.9999 14.6012C70.9999 15.5163 70.2511 16.2651 69.336 16.2651C69.2944 16.2651 69.2944 16.2651 69.2944 16.2651H66.1329V37.2725C66.1329 38.1877 65.3841 38.9364 64.4689 38.9364Z" fill="#272D4E"/>
</svg>
