<svg width="63" height="54" viewBox="0 0 63 54" fill="none" xmlns="http://www.w3.org/2000/svg">
<path d="M61.8616 0.00134359L48.7325 0.590634C48.524 0.601525 48.3231 0.671694 48.154 0.792709C47.9848 0.913724 47.8547 1.08044 47.7791 1.27281C47.7035 1.46518 47.6858 1.67503 47.728 1.87713C47.7702 2.07923 47.8705 2.26499 48.017 2.41208L50.6515 5.01567L22.8647 25.373L10.5054 10.3729C10.4133 10.2604 10.2992 10.1675 10.1698 10.0998C10.0404 10.0321 9.89849 9.99106 9.75261 9.97904C9.60672 9.96703 9.45989 9.98434 9.32096 10.0299C9.18203 10.0755 9.05388 10.1484 8.94423 10.2443L0.368611 17.7444C0.252966 17.8448 0.160282 17.9683 0.096725 18.1069C0.0331679 18.2455 0.000194926 18.3958 0 18.5479V27.1194C0.000263539 27.3253 0.0605565 27.5268 0.173663 27.6997C0.28677 27.8726 0.447899 28.0097 0.637768 28.0945C0.827637 28.1793 1.0382 28.2082 1.24427 28.1778C1.45033 28.1474 1.64316 28.0589 1.79969 27.923L9.54052 21.1622L21.7806 36.1302C21.9589 36.3448 22.2145 36.4826 22.4936 36.5146C22.7727 36.5466 23.0534 36.4702 23.2767 36.3017L56.9721 11.305L60.5281 14.8193C60.6764 14.9675 60.8653 15.0697 61.0715 15.1135C61.2778 15.1572 61.4924 15.1405 61.6892 15.0654C61.886 14.9903 62.0563 14.8602 62.1794 14.6909C62.3024 14.5216 62.3728 14.3204 62.382 14.1122L62.9999 1.0835C63.0016 0.93727 62.973 0.792255 62.9158 0.657381C62.8586 0.522507 62.7741 0.400629 62.6674 0.299252C62.5608 0.197875 62.4343 0.119145 62.2957 0.067911C62.1571 0.0166768 62.0094 -0.00597743 61.8616 0.00134359Z" fill="#272D4E"/>
<path d="M9.84058 31.9565H2.02899C1.41267 31.9565 0.913044 32.4471 0.913044 33.0522V52.7739C0.913044 53.379 1.41267 53.8696 2.02899 53.8696H9.84058C10.4569 53.8696 10.9565 53.379 10.9565 52.7739V33.0522C10.9565 32.4471 10.4569 31.9565 9.84058 31.9565Z" fill="#272D4E"/>
<path d="M27.1884 41.0869H19.3768C18.7605 41.0869 18.2609 41.5638 18.2609 42.1521V52.8043C18.2609 53.3926 18.7605 53.8695 19.3768 53.8695H27.1884C27.8047 53.8695 28.3043 53.3926 28.3043 52.8043V42.1521C28.3043 41.5638 27.8047 41.0869 27.1884 41.0869Z" fill="#272D4E"/>
<path d="M44.5362 31.9565H36.7246C36.1083 31.9565 35.6087 32.4471 35.6087 33.0522V52.7739C35.6087 53.379 36.1083 53.8696 36.7246 53.8696H44.5362C45.1525 53.8696 45.6522 53.379 45.6522 52.7739V33.0522C45.6522 32.4471 45.1525 31.9565 44.5362 31.9565Z" fill="#272D4E"/>
<path d="M60.971 20.0869H53.1594C52.5431 20.0869 52.0435 20.5748 52.0435 21.1767V52.7798C52.0435 53.3816 52.5431 53.8695 53.1594 53.8695H60.971C61.5873 53.8695 62.087 53.3816 62.087 52.7798V21.1767C62.087 20.5748 61.5873 20.0869 60.971 20.0869Z" fill="#272D4E"/>
</svg>
