<svg width="89" height="85" viewBox="0 0 89 85" fill="none" xmlns="http://www.w3.org/2000/svg">
<path d="M22.5542 20.1687L20.1309 22.5941C17.36 25.2272 17.2922 29.5903 19.9232 32.3612C19.9931 32.4312 20.061 32.499 20.1309 32.569L39.5952 52.2411C40.0807 52.7265 40.5641 53.1421 41.1874 53.4177V29.5203L22.5542 20.1687Z" fill="#123049"/>
<path d="M66.4692 20.1687L68.8945 22.5941C71.5955 25.2272 71.7333 29.5903 69.1023 32.3612C69.0323 32.4312 68.9645 32.499 68.8945 32.569L49.3602 52.1711C48.8747 52.6566 48.3914 53.0721 47.7681 53.3498V29.5203L66.4692 20.1687Z" fill="#123049"/>
<path d="M61.7584 15.1822L49.568 2.99182C46.8671 0.290854 42.5018 0.220892 39.8009 2.85401C39.7309 2.92398 39.6631 2.92398 39.6631 2.99182L27.4027 15.1822L44.5117 23.7027L61.7584 15.1822Z" fill="#123049"/>
<path d="M1.674 64.436H6.84C7.884 64.436 8.7 64.73 9.288 65.318C9.888 65.906 10.188 66.692 10.188 67.676C10.188 68.144 10.122 68.54 9.99 68.864C9.858 69.188 9.69 69.458 9.486 69.674C9.282 69.878 9.06 70.034 8.82 70.142C8.58 70.238 8.358 70.304 8.154 70.34V70.448C8.382 70.46 8.634 70.52 8.91 70.628C9.198 70.736 9.468 70.91 9.72 71.15C9.972 71.378 10.182 71.678 10.35 72.05C10.53 72.41 10.62 72.848 10.62 73.364C10.62 73.88 10.536 74.36 10.368 74.804C10.212 75.248 9.99 75.632 9.702 75.956C9.414 76.28 9.072 76.538 8.676 76.73C8.28 76.91 7.848 77 7.38 77H1.674V64.436ZM3.186 75.668H6.912C7.56 75.668 8.07 75.506 8.442 75.182C8.814 74.846 9 74.36 9 73.724V73.112C9 72.476 8.814 71.996 8.442 71.672C8.07 71.336 7.56 71.168 6.912 71.168H3.186V75.668ZM3.186 69.872H6.66C7.26 69.872 7.728 69.722 8.064 69.422C8.4 69.122 8.568 68.69 8.568 68.126V67.514C8.568 66.95 8.4 66.518 8.064 66.218C7.728 65.918 7.26 65.768 6.66 65.768H3.186V69.872ZM14.8198 77C14.3158 77 13.9318 76.862 13.6678 76.586C13.4158 76.298 13.2898 75.938 13.2898 75.506V63.68H14.7298V75.74H16.0978V77H14.8198ZM21.7041 77.216C21.0801 77.216 20.5101 77.102 19.9941 76.874C19.4781 76.646 19.0341 76.322 18.6621 75.902C18.3021 75.47 18.0201 74.96 17.8161 74.372C17.6121 73.772 17.5101 73.1 17.5101 72.356C17.5101 71.624 17.6121 70.958 17.8161 70.358C18.0201 69.758 18.3021 69.248 18.6621 68.828C19.0341 68.396 19.4781 68.066 19.9941 67.838C20.5101 67.61 21.0801 67.496 21.7041 67.496C22.3281 67.496 22.8921 67.61 23.3961 67.838C23.9121 68.066 24.3561 68.396 24.7281 68.828C25.1001 69.248 25.3881 69.758 25.5921 70.358C25.7961 70.958 25.8981 71.624 25.8981 72.356C25.8981 73.1 25.7961 73.772 25.5921 74.372C25.3881 74.96 25.1001 75.47 24.7281 75.902C24.3561 76.322 23.9121 76.646 23.3961 76.874C22.8921 77.102 22.3281 77.216 21.7041 77.216ZM21.7041 75.938C22.4841 75.938 23.1201 75.698 23.6121 75.218C24.1041 74.738 24.3501 74.006 24.3501 73.022V71.69C24.3501 70.706 24.1041 69.974 23.6121 69.494C23.1201 69.014 22.4841 68.774 21.7041 68.774C20.9241 68.774 20.2881 69.014 19.7961 69.494C19.3041 69.974 19.0581 70.706 19.0581 71.69V73.022C19.0581 74.006 19.3041 74.738 19.7961 75.218C20.2881 75.698 20.9241 75.938 21.7041 75.938ZM31.7223 77.216C31.0743 77.216 30.4923 77.102 29.9763 76.874C29.4603 76.646 29.0223 76.322 28.6623 75.902C28.3143 75.482 28.0443 74.972 27.8523 74.372C27.6723 73.772 27.5823 73.1 27.5823 72.356C27.5823 71.612 27.6723 70.94 27.8523 70.34C28.0443 69.74 28.3143 69.23 28.6623 68.81C29.0223 68.39 29.4603 68.066 29.9763 67.838C30.4923 67.61 31.0743 67.496 31.7223 67.496C32.6463 67.496 33.3843 67.7 33.9363 68.108C34.5003 68.504 34.9203 69.026 35.1963 69.674L33.9903 70.286C33.8223 69.806 33.5463 69.434 33.1623 69.17C32.7783 68.906 32.2983 68.774 31.7223 68.774C31.2903 68.774 30.9123 68.846 30.5883 68.99C30.2643 69.122 29.9943 69.314 29.7783 69.566C29.5623 69.806 29.4003 70.1 29.2923 70.448C29.1843 70.784 29.1303 71.156 29.1303 71.564V73.148C29.1303 73.964 29.3463 74.636 29.7783 75.164C30.2223 75.68 30.8703 75.938 31.7223 75.938C32.8863 75.938 33.7263 75.398 34.2423 74.318L35.2863 75.02C34.9863 75.692 34.5363 76.226 33.9363 76.622C33.3483 77.018 32.6103 77.216 31.7223 77.216ZM37.3191 63.68H38.7591V72.122H38.8311L40.2531 70.538L42.8811 67.712H44.6271L41.1891 71.384L44.9691 77H43.2231L40.1451 72.266L38.7591 73.688V77H37.3191V63.68ZM49.9684 77.216C49.3204 77.216 48.7384 77.102 48.2224 76.874C47.7064 76.646 47.2684 76.322 46.9084 75.902C46.5604 75.482 46.2904 74.972 46.0984 74.372C45.9184 73.772 45.8284 73.1 45.8284 72.356C45.8284 71.612 45.9184 70.94 46.0984 70.34C46.2904 69.74 46.5604 69.23 46.9084 68.81C47.2684 68.39 47.7064 68.066 48.2224 67.838C48.7384 67.61 49.3204 67.496 49.9684 67.496C50.8924 67.496 51.6304 67.7 52.1824 68.108C52.7464 68.504 53.1664 69.026 53.4424 69.674L52.2364 70.286C52.0684 69.806 51.7924 69.434 51.4084 69.17C51.0244 68.906 50.5444 68.774 49.9684 68.774C49.5364 68.774 49.1584 68.846 48.8344 68.99C48.5104 69.122 48.2404 69.314 48.0244 69.566C47.8084 69.806 47.6464 70.1 47.5384 70.448C47.4304 70.784 47.3764 71.156 47.3764 71.564V73.148C47.3764 73.964 47.5924 74.636 48.0244 75.164C48.4684 75.68 49.1164 75.938 49.9684 75.938C51.1324 75.938 51.9724 75.398 52.4884 74.318L53.5324 75.02C53.2324 75.692 52.7824 76.226 52.1824 76.622C51.5944 77.018 50.8564 77.216 49.9684 77.216ZM55.5652 63.68H57.0052V69.224H57.0772C57.3052 68.696 57.6232 68.276 58.0312 67.964C58.4512 67.652 59.0092 67.496 59.7052 67.496C60.6652 67.496 61.4212 67.808 61.9732 68.432C62.5372 69.044 62.8192 69.914 62.8192 71.042V77H61.3792V71.294C61.3792 69.626 60.6772 68.792 59.2732 68.792C58.9852 68.792 58.7032 68.828 58.4272 68.9C58.1632 68.972 57.9232 69.08 57.7072 69.224C57.4912 69.368 57.3172 69.554 57.1852 69.782C57.0652 69.998 57.0052 70.256 57.0052 70.556V77H55.5652V63.68ZM72.5456 77C72.0056 77 71.6156 76.856 71.3756 76.568C71.1476 76.28 71.0036 75.92 70.9436 75.488H70.8536C70.6496 76.064 70.3136 76.496 69.8456 76.784C69.3776 77.072 68.8196 77.216 68.1716 77.216C67.1876 77.216 66.4196 76.964 65.8676 76.46C65.3276 75.956 65.0576 75.272 65.0576 74.408C65.0576 73.532 65.3756 72.86 66.0116 72.392C66.6596 71.924 67.6616 71.69 69.0176 71.69H70.8536V70.772C70.8536 70.112 70.6736 69.608 70.3136 69.26C69.9536 68.912 69.4016 68.738 68.6576 68.738C68.0936 68.738 67.6196 68.864 67.2356 69.116C66.8636 69.368 66.5516 69.704 66.2996 70.124L65.4356 69.314C65.6876 68.81 66.0896 68.384 66.6416 68.036C67.1936 67.676 67.8896 67.496 68.7296 67.496C69.8576 67.496 70.7336 67.772 71.3576 68.324C71.9816 68.876 72.2936 69.644 72.2936 70.628V75.74H73.3556V77H72.5456ZM68.4056 75.992C68.7656 75.992 69.0956 75.95 69.3956 75.866C69.6956 75.782 69.9536 75.662 70.1696 75.506C70.3856 75.35 70.5536 75.17 70.6736 74.966C70.7936 74.762 70.8536 74.54 70.8536 74.3V72.77H68.9456C68.1176 72.77 67.5116 72.89 67.1276 73.13C66.7556 73.37 66.5696 73.718 66.5696 74.174V74.552C66.5696 75.008 66.7316 75.362 67.0556 75.614C67.3916 75.866 67.8416 75.992 68.4056 75.992ZM76.1309 65.534C75.8189 65.534 75.5909 65.462 75.4469 65.318C75.3149 65.162 75.2489 64.964 75.2489 64.724V64.49C75.2489 64.25 75.3149 64.058 75.4469 63.914C75.5909 63.758 75.8189 63.68 76.1309 63.68C76.4429 63.68 76.6649 63.758 76.7969 63.914C76.9409 64.058 77.0129 64.25 77.0129 64.49V64.724C77.0129 64.964 76.9409 65.162 76.7969 65.318C76.6649 65.462 76.4429 65.534 76.1309 65.534ZM75.4109 67.712H76.8509V77H75.4109V67.712ZM79.9109 77V67.712H81.3509V69.224H81.4229C81.6509 68.696 81.9689 68.276 82.3769 67.964C82.7969 67.652 83.3549 67.496 84.0509 67.496C85.0109 67.496 85.7669 67.808 86.3189 68.432C86.8829 69.044 87.1649 69.914 87.1649 71.042V77H85.7249V71.294C85.7249 69.626 85.0229 68.792 83.6189 68.792C83.3309 68.792 83.0489 68.828 82.7729 68.9C82.5089 68.972 82.2689 69.08 82.0529 69.224C81.8369 69.368 81.6629 69.554 81.5309 69.782C81.4109 69.998 81.3509 70.256 81.3509 70.556V77H79.9109Z" fill="#4B6585"/>
</svg>
