<svg width="352" height="166" viewBox="0 0 352 166" fill="none" xmlns="http://www.w3.org/2000/svg">
<path d="M128.724 -17.0581L91.3647 2.42509L112.052 -66.2923L148.51 -90.103L128.724 -17.0581Z" fill="#D1E2FA"/>
<path d="M155.889 39.126L87.8505 -1.74096L125.593 -21.5175L196.612 23.8251L155.889 39.126Z" fill="#D1E2FA"/>
<path d="M156.121 39.8157L196.958 24.4893C197.21 24.4253 197.414 24.2194 197.32 23.9355C197.352 23.6197 197.132 23.3678 196.959 23.2579L125.958 -22.0647C125.785 -22.1746 125.487 -22.2526 125.283 -22.0466L87.676 -2.31066C87.4248 -2.24666 87.3931 -1.9308 87.3615 -1.61494C87.3298 -1.29908 87.5494 -1.04722 87.7221 -0.937294L155.524 39.6598C155.697 39.7697 155.869 39.8797 156.121 39.8157ZM195.028 23.596L155.776 38.3644L89.3084 -1.49523L125.501 -20.5633L195.028 23.596Z" fill="#5DA2FF" stroke="#683287" stroke-width="3"/>
<path d="M199.348 22.478L130.323 -21.3952L149.78 -93.01L214.241 -48.1311L199.348 22.478Z" fill="#D1E2FA"/>
<path d="M199.577 23.1758C199.821 23.1141 199.897 22.9458 199.974 22.7776L214.869 -47.8405C214.899 -48.1461 214.808 -48.4207 214.594 -48.6645L150.123 -93.5489C149.956 -93.6553 149.788 -93.7618 149.543 -93.7C149.299 -93.6382 149.223 -93.47 149.146 -93.3017L129.564 -21.6468C129.533 -21.3413 129.671 -20.9293 129.838 -20.8229L198.874 23.0557C199.164 23.1312 199.454 23.2067 199.577 23.1758ZM213.51 -47.9435L198.937 21.2533L131.076 -21.8803L150.168 -92.2203L213.51 -47.9435Z" fill="#5DA2FF" stroke="#5DA2FF" stroke-width="3"/>
<path d="M227.863 4.82346L176.655 -28.0134L209.369 -45.2771L263.495 -8.56465L227.863 4.82346Z" fill="#F2F2F2"/>
<path d="M228.093 5.51842L263.842 -7.89578C264.093 -7.95978 264.297 -8.16572 264.203 -8.44957C264.235 -8.76542 264.015 -9.01728 263.843 -9.1272L209.731 -45.823C209.558 -45.933 209.26 -46.0109 209.056 -45.805L176.35 -28.549C176.099 -28.485 176.067 -28.1691 175.989 -27.9952C175.957 -27.6793 176.177 -27.4275 176.349 -27.3175L227.591 5.64642C227.842 5.58242 227.968 5.55042 228.093 5.51842ZM262.037 -8.82113L227.875 4.03514L178.061 -27.9075L209.4 -44.3537L262.037 -8.82113Z" fill="#5DA2FF" stroke="#5DA2FF" stroke-width="3"/>
<path d="M265.774 -9.0658C265.896 -9.09663 265.896 -9.09663 265.774 -9.0658C266.018 -9.12745 266.216 -9.32606 266.17 -9.463L275.12 -63.5432C275.151 -63.8479 275.06 -64.1218 274.726 -64.334L226.11 -100.575C225.943 -100.681 225.654 -100.756 225.532 -100.725C225.289 -100.664 225.212 -100.496 225.136 -100.328L212.366 -45.4294C212.335 -45.1247 212.472 -44.7139 212.761 -44.6386L265.196 -9.2164C265.485 -9.14111 265.653 -9.03498 265.774 -9.0658ZM273.766 -63.6458L265.015 -10.9521L213.796 -45.4946L226.246 -98.976L273.766 -63.6458Z" fill="#5DA2FF"/>
<path d="M265.774 -9.06581C265.896 -9.09663 265.896 -9.09663 265.774 -9.06581ZM265.774 -9.06581C266.018 -9.12745 266.216 -9.32606 266.17 -9.463L275.12 -63.5432C275.151 -63.8479 275.06 -64.1218 274.726 -64.334L226.11 -100.575C225.943 -100.681 225.654 -100.756 225.532 -100.725C225.289 -100.664 225.212 -100.496 225.136 -100.328L212.366 -45.4294C212.335 -45.1247 212.472 -44.7139 212.761 -44.6386L265.196 -9.2164C265.485 -9.14111 265.653 -9.03498 265.774 -9.06581ZM273.766 -63.6458L265.015 -10.9521L213.796 -45.4946L226.246 -98.976L273.766 -63.6458Z" stroke="#5DA2FF" stroke-width="3"/>
<path d="M295.859 -7.51291L228.312 -53.8942L279.048 -80.5218L350.265 -27.993L295.859 -7.51291Z" fill="#F2F2F2"/>
<path d="M296.093 -6.81525L350.435 -27.4259C350.686 -27.4899 350.765 -27.6638 350.796 -27.9797C350.828 -28.2955 350.608 -28.5473 350.436 -28.6572L279.241 -81.1562C279.068 -81.2661 278.77 -81.3441 278.519 -81.2801L227.925 -54.6993C227.674 -54.6353 227.642 -54.3195 227.564 -54.1456C227.532 -53.8297 227.752 -53.5779 227.924 -53.468L295.45 -7.11301C295.716 -6.71926 295.968 -6.78325 296.093 -6.81525ZM348.677 -28.2093L295.875 -8.29836L229.73 -53.774L279.036 -79.719L348.677 -28.2093Z" fill="#4D4D4D"/>
<path d="M112.265 89.7515L79.004 100.909L99.6195 31.1258L132.539 14.8896L112.265 89.7515Z" fill="#F2F2F2"/>
<path d="M79.2497 101.591L112.501 90.4373C112.626 90.4058 112.828 90.2028 112.905 90.0312L133.173 15.1984C133.204 14.8868 133.111 14.6067 132.893 14.3582C132.675 14.1096 132.38 14.0326 132.178 14.2356L99.4392 30.574C99.3148 30.6055 99.237 30.777 99.1593 30.9486L78.5498 100.705C78.5187 101.017 78.612 101.297 78.7831 101.405C78.8298 101.545 79.0008 101.654 79.2497 101.591ZM111.661 89.1315L80.1051 99.7037L100.232 31.7398L131.369 16.2627L111.661 89.1315Z" fill="#5DA2FF" stroke="#683287" stroke-width="3"/>
<path d="M141.567 137.228L75.9348 102.535L109.674 91.1113L178.913 129.689L141.567 137.228Z" fill="#F2F2F2"/>
<path d="M182.131 127.41C182.383 127.345 182.589 127.138 182.621 126.82C182.653 126.502 182.432 126.248 182.212 125.995L114.984 89.4067C114.811 89.2961 114.685 89.3283 114.433 89.3928L80.7204 100.804C80.4682 100.868 80.263 101.076 80.3572 101.361C80.3252 101.679 80.5455 101.933 80.8449 102.011L144.469 134.719C144.642 134.83 144.768 134.798 144.894 134.765L182.131 127.41ZM114.651 90.8859L179.847 126.29L144.597 133.447L82.7839 101.67L114.651 90.8859Z" fill="#5DA2FF" stroke="#683287" stroke-width="3"/>
<path d="M181.329 125.501L114.135 88.3356L134.1 14.8106L196.29 53.6884L181.329 125.501Z" fill="#F2F2F2"/>
<path d="M180.563 127.199C180.807 127.137 180.884 126.969 180.961 126.8L196.001 54.8082C196.032 54.502 195.894 54.0891 195.604 54.0134L133.28 15.1607C133.111 15.0541 132.943 14.9474 132.744 15.1469C132.622 15.1779 132.423 15.3774 132.346 15.546L112.378 89.0826C112.225 89.4197 112.485 89.8016 112.821 90.0149L180.027 127.186C180.149 127.155 180.44 127.23 180.563 127.199ZM194.563 54.8734L179.844 125.441L113.939 88.9863L133.417 16.7674L194.563 54.8734Z" fill="#5DA2FF" stroke="#683287" stroke-width="3"/>
<path d="M154.878 -1.69805L200.556 -24.6665L178.639 68.4277L132.043 84.1814L154.878 -1.69805Z" fill="#D1E2FA"/>
<path d="M132.296 84.863L179.005 69.083C179.254 69.02 179.332 68.8484 179.41 68.6767L201.275 -24.5266C201.306 -24.8383 201.213 -25.1185 200.995 -25.3672C200.777 -25.6159 200.481 -25.693 200.279 -25.4898L154.612 -2.52908C154.488 -2.49755 154.41 -2.32592 154.332 -2.15428L131.503 83.6965C131.472 84.0083 131.565 84.2885 131.736 84.3971C131.752 84.849 132.047 84.926 132.296 84.863ZM178.212 67.9166L133.199 83.1151L155.624 -1.11394L199.641 -23.3531L178.212 67.9166Z" fill="#5DA2FF" stroke="#683287" stroke-width="3"/>
<path d="M212.731 132.517L133.225 88.1664L180.492 72.0333L264.802 121.826L212.731 132.517Z" fill="#D1E2FA"/>
<path d="M262.79 118.42C263.042 118.356 263.248 118.148 263.28 117.83C263.312 117.512 263.091 117.258 262.871 117.004L181.573 69.1846C181.4 69.074 181.274 69.1062 181.021 69.1708L133.782 85.2903C133.529 85.3549 133.324 85.5625 133.418 85.8485C133.386 86.1667 133.606 86.4204 133.78 86.5311L210.196 129.089C210.37 129.199 210.496 129.167 210.622 129.135L262.79 118.42ZM181.287 70.8082L260.552 117.443L210.404 127.64L135.594 86.2219L181.287 70.8082Z" fill="#5DA2FF" stroke="#683287" stroke-width="3"/>
<path d="M260.902 115.747L179.354 67.9357C179.354 67.9357 197.235 -7.55966 200.845 -23.3518C212.723 -15.4953 275.985 26.6759 275.985 26.6759L260.902 115.747Z" fill="#D1E2FA"/>
<path d="M261.202 117.557C261.446 117.496 261.644 117.297 261.599 117.159L276.683 28.079C276.714 27.7736 276.622 27.4991 276.287 27.2864C276.287 27.2864 213.016 -14.889 201.137 -22.7462C200.969 -22.8526 200.68 -22.9281 200.557 -22.8972C200.313 -22.8354 200.237 -22.6673 200.161 -22.4992C196.428 -6.67456 178.667 68.7978 178.667 68.7978C178.637 69.1031 178.774 69.5149 179.063 69.5904L260.622 117.406C260.958 117.619 261.08 117.588 261.202 117.557ZM275.371 28.1133L260.531 115.941L180.269 68.8389C181.845 62.0417 197.647 -4.60215 201.441 -21.0375C214.159 -12.6484 269.912 24.4351 275.371 28.1133Z" fill="#4D4D4D" stroke="#683287" stroke-width="3"/>
<path d="M252.642 41.5027L192.564 61.8947L214.076 -32.5312L271.399 -61.1987L252.642 41.5027Z" fill="#D1E2FA"/>
<path d="M192.797 62.5762L252.919 42.3255C253.168 42.2624 253.246 42.0906 253.324 41.9188L272.205 -60.8085C272.236 -61.1206 272.143 -61.4011 271.972 -61.5098C271.754 -61.7587 271.505 -61.6956 271.255 -61.6325L213.935 -32.9665C213.811 -32.935 213.733 -32.7632 213.655 -32.5913L192.096 61.6891C192.065 62.0012 192.159 62.2817 192.33 62.3904C192.252 62.5622 192.548 62.6393 192.797 62.5762ZM252.079 41.0176L193.529 60.7178L214.807 -31.9707L270.601 -59.9459L252.079 41.0176Z" fill="#5DA2FF" stroke="#683287" stroke-width="3"/>
<path d="M274.928 110.887L194.602 62.6746L255.503 41.8044L341.167 97.4952L274.928 110.887Z" fill="#D1E2FA"/>
<path d="M343.244 98.3584C343.497 98.2938 343.702 98.0862 343.734 97.7678C343.766 97.4494 343.546 97.1957 343.325 96.9419L257.587 42.4485C257.414 42.3378 257.241 42.2271 257.035 42.4347L196.112 63.1493C195.859 63.2139 195.654 63.4215 195.748 63.7076C195.716 64.026 195.937 64.2797 196.11 64.3904L276.607 111.696C276.78 111.806 276.906 111.774 277.033 111.742L343.244 98.3584ZM257.38 43.8973L341.259 97.3159L276.987 110.358L198.177 64.0165L257.38 43.8973Z" fill="#5DA2FF" stroke="#683287" stroke-width="3"/>
<path d="M341.06 96.2928C341.06 96.2928 282.823 59.0147 253.727 40.4441C259.884 7.0146 266.041 -26.4149 272.244 -59.7076C298.909 -40.5212 325.619 -21.1981 352.284 -2.01174C348.513 30.6653 341.06 96.2928 341.06 96.2928Z" fill="#D1E2FA"/>
<path d="M341.291 97.991C341.413 97.9603 341.413 97.9603 341.291 97.991C341.534 97.9295 341.732 97.7312 341.641 97.4577L352.866 -0.85618C352.897 -1.16045 352.806 -1.43394 352.472 -1.64584L272.421 -59.3469C272.254 -59.4529 271.966 -59.528 271.844 -59.4972C271.601 -59.4357 271.525 -59.2681 271.449 -59.1006L252.93 41.0606C252.9 41.3649 252.99 41.6384 253.324 41.8503L340.669 97.704C341.003 97.9159 341.17 98.0218 341.291 97.991ZM351.56 -0.821766L340.534 96.1075L254.48 40.9646L272.678 -57.7812L351.56 -0.821766Z" fill="#5DA2FF"/>
<path d="M341.291 97.991C341.413 97.9603 341.413 97.9603 341.291 97.991ZM341.291 97.991C341.534 97.9295 341.732 97.7312 341.641 97.4577L352.866 -0.856177C352.897 -1.16045 352.806 -1.43394 352.472 -1.64584L272.421 -59.3469C272.254 -59.4529 271.966 -59.528 271.844 -59.4972C271.601 -59.4357 271.525 -59.2681 271.449 -59.1006L252.93 41.0606C252.9 41.3649 252.99 41.6384 253.324 41.8503L340.669 97.704C341.003 97.9159 341.17 98.0218 341.291 97.991ZM351.56 -0.821763L340.534 96.1075L254.48 40.9646L272.678 -57.7812L351.56 -0.821763Z" stroke="#683287" stroke-width="3"/>
</svg>
