<svg width="60" height="71" viewBox="0 0 60 71" fill="none" xmlns="http://www.w3.org/2000/svg">
<path d="M51.2061 20.8392L55.3977 16.6476L51.2732 12.5216L46.7891 17.0057C42.6928 14.1027 37.9126 12.3136 32.9169 11.8135V5.83385H38.7508V0H21.2492V5.83385H27.0831V11.8135C22.0874 12.3136 17.3073 14.1027 13.2109 17.0057L8.72688 12.5216L4.60235 16.6476L8.79397 20.8392C4.88135 24.9819 2.26776 30.1798 1.27598 35.791C0.284202 41.4023 0.957663 47.1812 3.2132 52.414C5.46873 57.6468 9.20755 62.1044 13.9679 65.2363C18.7283 68.3682 24.3018 70.0372 30 70.0372C35.6983 70.0372 41.2717 68.3682 46.0321 65.2363C50.7925 62.1044 54.5313 57.6468 56.7868 52.414C59.0424 47.1812 59.7158 41.4023 58.7241 35.791C57.7323 30.1798 55.1187 24.9819 51.2061 20.8392ZM30 64.1724C25.3847 64.1724 20.873 62.8038 17.0356 60.2396C13.1981 57.6755 10.2071 54.031 8.44092 49.767C6.67472 45.503 6.2126 40.8111 7.113 36.2844C8.0134 31.7578 10.2359 27.5998 13.4994 24.3363C16.7629 21.0728 20.9209 18.8503 25.4475 17.9499C29.9741 17.0495 34.6661 17.5117 38.9301 19.2779C43.1941 21.0441 46.8386 24.035 49.4027 27.8725C51.9668 31.71 53.3354 36.2216 53.3354 40.837C53.3285 47.0238 50.8677 52.9552 46.493 57.3299C42.1182 61.7046 36.1868 64.1654 30 64.1724Z" fill="white"/>
<path d="M30 23.3354V40.837H12.4985C12.4985 44.2985 13.5249 47.6822 15.448 50.5603C17.3711 53.4385 20.1045 55.6817 23.3025 57.0063C26.5005 58.331 30.0194 58.6776 33.4144 58.0023C36.8094 57.327 39.9279 55.6601 42.3755 53.2125C44.8231 50.7648 46.49 47.6463 47.1653 44.2514C47.8406 40.8564 47.494 37.3374 46.1693 34.1394C44.8447 30.9415 42.6015 28.2081 39.7234 26.285C36.8452 24.3619 33.4615 23.3354 30 23.3354Z" fill="white"/>
</svg>
