<svg width="58" height="58" viewBox="0 0 58 58" fill="none" xmlns="http://www.w3.org/2000/svg">
<path d="M13.0341 36.4459L16.0427 39.4545L21.1807 34.2664C16.2438 28.3816 15.1934 20.6076 17.4883 14.0251L24.3251 20.8618C24.2668 27.7356 29.8632 33.743 37.1653 33.743C41.452 33.7429 45.2541 31.6312 47.5876 28.3938L39.8254 20.6315L34.4427 26.0145L14.4244 5.99628V10.5353H10.9138L10.9139 0.00341797H21.4457V3.51392L16.9068 3.51404L34.4427 21.0499L39.8254 15.6667L49.2898 25.131C50.842 20.6935 49.8975 15.4752 46.2452 11.8227C41.5657 7.14355 34.2156 6.84374 29.1952 10.8334L23.5194 5.15748C31.6955 -1.94989 44.1013 -1.62645 51.8977 6.16994C55.8328 10.105 57.9999 15.3371 57.9999 20.9023C57.9999 32.3906 48.6536 41.7373 37.1652 41.7374C32.1562 41.7374 27.4177 39.9809 23.6514 36.7608L18.525 41.9369L21.5457 44.9578L8.51196 57.992L0 49.48L13.0341 36.4459Z" fill="white"/>
<path d="M29.8543 47.4648H57.9391V50.9755H29.8543V47.4648Z" fill="white"/>
<path d="M19.3223 54.4858H40.386V57.9963H19.3223V54.4858Z" fill="white"/>
</svg>
