<svg width="74" height="45" viewBox="0 0 74 45" fill="none" xmlns="http://www.w3.org/2000/svg">
<path d="M1.33985 35.7356H1.37164C1.70288 35.7312 2.02045 35.6028 2.26169 35.3758C2.50294 35.1487 2.65034 34.8396 2.67483 34.5092C3.01669 30.7328 4.129 27.0665 5.94308 23.7368C7.75715 20.407 10.2345 17.4844 13.2222 15.1495L9.81454 11.7432C4.05336 17.9278 0.589596 25.9025 0.00223482 34.3344C-0.00831618 34.5158 0.0185715 34.6974 0.0812249 34.8679C0.143878 35.0385 0.240957 35.1943 0.366423 35.3258C0.491888 35.4572 0.643055 35.5614 0.810521 35.6319C0.977986 35.7024 1.15817 35.7377 1.33985 35.7356Z" fill="#272D4E"/>
<path d="M29.7252 39.6994C30.8224 39.6994 31.7118 38.81 31.7118 37.7129C31.7118 36.6157 30.8224 35.7263 29.7252 35.7263C28.6281 35.7263 27.7387 36.6157 27.7387 37.7129C27.7387 38.81 28.6281 39.6994 29.7252 39.6994Z" fill="#272D4E"/>
<path d="M35.6849 9.74476V0C26.7569 0.28603 18.2342 3.79355 11.6912 9.87455L15.4219 13.6C19.891 10.7458 25.0846 9.23231 30.3874 9.23885C32.1652 9.24007 33.9389 9.40946 35.6849 9.74476Z" fill="#272D4E"/>
<path d="M38.3336 0V10.3897C39.3118 10.6818 40.273 11.028 41.2128 11.4267C41.9651 10.6877 42.7107 9.95798 43.4365 9.25077C43.9781 8.71544 44.6856 8.38009 45.4429 8.29972C46.2002 8.21934 46.9623 8.39872 47.6043 8.80842C48.2466 9.19131 48.7398 9.78117 49.0028 10.4812C49.2658 11.1812 49.2831 11.9499 49.0518 12.661C48.7644 13.5709 48.4466 14.5642 48.1168 15.5919C49.6657 16.8691 51.0716 18.3105 52.3098 19.8908L62.3326 9.87455C55.7886 3.79175 47.2636 0.284048 38.3336 0Z" fill="#272D4E"/>
<path d="M64.204 11.7432L53.8566 22.0852C56.2369 25.8196 57.6899 30.0688 58.0946 34.4787C58.119 34.8111 58.2677 35.1221 58.5113 35.3497C58.7548 35.5773 59.0751 35.7046 59.4084 35.7064L72.6734 35.7263C72.854 35.7266 73.0327 35.69 73.1986 35.6187C73.3645 35.5473 73.514 35.4429 73.6381 35.3116C73.7621 35.1804 73.858 35.0252 73.9199 34.8555C73.9817 34.6859 74.0082 34.5054 73.9978 34.3251C73.4189 25.8975 69.9612 17.9249 64.204 11.7432Z" fill="#272D4E"/>
<path d="M46.2071 11.0611C46.0784 10.9796 45.9303 10.9339 45.778 10.9287C45.6859 10.9292 45.5949 10.9483 45.5105 10.985C45.426 11.0216 45.3499 11.075 45.2866 11.1419C33.3196 22.7964 25.5627 31.1122 23.4424 34.5662C22.975 35.314 22.6623 36.148 22.5229 37.0188C22.3834 37.8896 22.42 38.7795 22.6305 39.6359C22.849 40.5339 23.2452 41.3791 23.7956 42.1216C24.3461 42.864 25.0397 43.4887 25.8355 43.9586C27.4066 44.9233 29.2938 45.232 31.0903 44.8183C32.8869 44.4046 34.449 43.3016 35.4399 41.7469C38.3337 37.0851 43.6219 21.0258 46.5223 11.8597C46.5732 11.7109 46.5694 11.5488 46.5116 11.4024C46.4539 11.2561 46.3459 11.1351 46.2071 11.0611ZM29.7252 42.3482C28.8084 42.3482 27.9123 42.0764 27.15 41.567C26.3877 41.0577 25.7936 40.3337 25.4427 39.4867C25.0919 38.6398 25.0001 37.7077 25.179 36.8086C25.3578 35.9094 25.7993 35.0835 26.4476 34.4352C27.0958 33.787 27.9218 33.3455 28.8209 33.1666C29.7201 32.9878 30.6521 33.0796 31.4991 33.4304C32.3461 33.7813 33.07 34.3754 33.5793 35.1376C34.0887 35.8999 34.3605 36.7961 34.3605 37.7129C34.3605 38.9423 33.8722 40.1213 33.0029 40.9906C32.1336 41.8598 30.9546 42.3482 29.7252 42.3482Z" fill="#272D4E"/>
</svg>
