<svg width="70" height="70" viewBox="0 0 70 70" fill="none" xmlns="http://www.w3.org/2000/svg">
<path d="M57.682 56.376H48.1451C47.3927 56.376 46.7827 56.986 46.7827 57.7384C46.7827 58.4908 47.3927 59.1008 48.1451 59.1008H51.5511V68.6376C51.5511 69.39 52.1612 70.0001 52.9135 70.0001C53.6659 70.0001 54.276 69.39 54.276 68.6376V59.1008H57.682C58.4344 59.1008 59.0444 58.4908 59.0444 57.7384C59.0444 56.986 58.4344 56.376 57.682 56.376Z" fill="white"/>
<path d="M28.5459 70.0001H28.5379C25.3492 69.9969 22.7648 67.4133 22.7609 64.2245V62.153C22.7659 58.9607 25.3578 56.3767 28.5503 56.3818C31.7356 56.3868 34.3165 58.9677 34.3215 62.153V64.2245C34.3182 67.4129 31.7343 69.9967 28.5459 70.0001ZM28.5459 59.1009C26.8582 59.0992 25.4885 60.4653 25.4857 62.153V64.2245C25.4881 65.909 26.8534 67.2736 28.5379 67.2753H28.5459C30.2298 67.2731 31.5944 65.9085 31.5967 64.2245V62.153C31.5951 60.4686 30.2303 59.1032 28.5459 59.1009Z" fill="white"/>
<path d="M10.9556 64.2241V62.1525C10.9682 58.9551 13.5703 56.3734 16.7677 56.3858C18.2879 56.3917 19.7449 56.9955 20.8239 58.0667C21.3518 58.6028 21.3452 59.4653 20.8091 59.9933C20.2798 60.5144 19.4307 60.5156 18.9 59.9958C17.7011 58.8039 15.7629 58.8093 14.5709 60.0083C14.0042 60.5784 13.6844 61.3485 13.6806 62.1525V64.2241C13.6893 65.915 15.0672 67.2786 16.7581 67.2699C17.5868 67.2656 18.3784 66.9255 18.9519 66.3274C19.4748 65.7861 20.3375 65.7711 20.8787 66.2941C21.4153 66.8125 21.4354 67.6658 20.9237 68.2088C18.7091 70.516 15.0435 70.5911 12.7363 68.3765C11.605 67.2905 10.9624 65.7922 10.9556 64.2241Z" fill="white"/>
<path d="M40.5521 69.9929C38.8869 70.0377 37.3114 69.2397 36.3624 67.8708C35.9642 67.2322 36.1592 66.3916 36.7978 65.9934C37.4279 65.6005 38.2566 65.7846 38.6614 66.4072C39.1127 66.9864 39.819 67.3079 40.5521 67.2681C42.3193 67.2681 43.564 65.668 41.5833 64.7495C40.4394 64.5881 39.3089 64.3422 38.2013 64.0138C33.9587 61.9474 35.6767 56.3823 40.5523 56.3823C42.1853 56.3431 43.7333 57.1091 44.6926 58.4312C45.1051 59.0603 44.9293 59.9046 44.3001 60.3171C43.679 60.7241 42.8464 60.5588 42.4281 59.9453C41.9726 59.3823 41.2754 59.071 40.5521 59.1071C38.7355 59.1071 37.6473 60.7127 39.3959 61.5659C40.5192 61.7415 41.6318 61.9791 42.7287 62.2778C47.225 64.3634 45.4482 69.9929 40.5521 69.9929Z" fill="white"/>
<path d="M69.0291 33.7271L60.1406 24.1597C59.8239 23.8188 59.2908 23.7992 58.9499 24.116C58.9347 24.1301 58.9201 24.1446 58.9061 24.1597L50.0176 33.7271C49.7615 34.0026 49.7773 34.4336 50.053 34.6898C50.179 34.8068 50.3447 34.872 50.5167 34.872H54.4735L54.466 47.7352C54.4658 48.1114 54.7705 48.4165 55.1469 48.4167H55.1472H63.9092C64.2852 48.4167 64.5902 48.112 64.5904 47.736L64.5989 34.872H68.5303C68.9065 34.872 69.2115 34.567 69.2115 34.1908C69.2112 34.0186 69.1461 33.8529 69.0291 33.7271Z" fill="white"/>
<path d="M19.9824 33.7271L11.0939 24.1597C10.7772 23.8188 10.2441 23.7992 9.90318 24.116C9.88802 24.1301 9.87337 24.1446 9.85941 24.1597L0.970892 33.7271C0.714759 34.0026 0.730597 34.4336 1.00631 34.6898C1.13234 34.8068 1.29804 34.872 1.47004 34.872H5.42682L5.41932 47.7352C5.41915 48.1114 5.72382 48.4165 6.10019 48.4167H6.10053H14.8625C15.2385 48.4167 15.5435 48.112 15.5437 47.736L15.5522 34.872H19.4836C19.8598 34.872 20.1648 34.567 20.1648 34.1908C20.1645 34.0186 20.0994 33.8529 19.9824 33.7271Z" fill="white"/>
<path d="M50.6574 16.6286L35.9747 0.431979C35.4868 -0.106342 34.6547 -0.147044 34.1166 0.340868C34.0847 0.369649 34.0544 0.400133 34.0255 0.431979L19.3428 16.6286C19.0901 16.9074 19.1112 17.3381 19.39 17.5908C19.5153 17.7044 19.6783 17.7673 19.8476 17.7673H27.0261L27.007 50.3666C27.0069 50.5923 27.1898 50.7755 27.4156 50.7755H42.5853C42.811 50.7755 42.9939 50.5926 42.994 50.3671L43.0145 17.7671H50.153C50.5292 17.7671 50.8342 17.4621 50.8342 17.0859C50.834 16.9169 50.771 16.7538 50.6574 16.6286Z" fill="white"/>
</svg>
