<svg width="46" height="81" viewBox="0 0 46 81" fill="none" xmlns="http://www.w3.org/2000/svg">
<path d="M42.9675 18.8263C43.4901 17.2778 43.6714 15.637 43.4992 14.0138C43.3271 12.3906 42.8055 10.8224 41.9694 9.41415C40.7299 7.28413 38.8367 5.59772 36.5628 4.59825C34.289 3.59879 31.7521 3.33795 29.3183 3.85339C28.2205 2.63268 26.8711 1.65743 25.3604 0.992912C23.8497 0.328397 22.2126 -0.0100496 20.5586 0.000227216C18.0702 -0.00569608 15.6442 0.768243 13.6304 2.21046C11.6165 3.65268 10.1188 5.68866 9.35327 8.02487C7.73222 8.35228 6.20075 9.01761 4.86139 9.9763C3.52203 10.935 2.40569 12.1649 1.58709 13.5838C0.337744 15.7079 -0.195553 18.1687 0.0641162 20.6111C0.323785 23.0536 1.363 25.3516 3.03188 27.1737C2.50933 28.7222 2.32806 30.363 2.50019 31.9862C2.67232 33.6094 3.19389 35.1776 4.02999 36.5859C5.26957 38.7158 7.16284 40.4021 9.43665 41.4015C11.7105 42.4009 14.2473 42.6618 16.6811 42.1466C17.7789 43.3673 19.1283 44.3426 20.6389 45.0071C22.1496 45.6716 23.7868 46.0101 25.4407 45.9998C27.9303 46.0062 30.3576 45.2319 32.3723 43.7888C34.387 42.3456 35.8849 40.3083 36.6499 37.9706C38.2709 37.6432 39.8024 36.9779 41.1418 36.0192C42.4811 35.0605 43.5974 33.8305 44.416 32.4116C45.6638 30.2876 46.1958 27.8276 45.9355 25.3861C45.6752 22.9445 44.6359 20.6476 42.9675 18.8263ZM25.4445 42.9926C23.4008 42.9955 21.4212 42.2893 19.8519 40.9976C19.9226 40.9595 20.0468 40.8924 20.1276 40.8435L29.4103 35.5529C29.6432 35.4221 29.8367 35.2325 29.9708 35.0035C30.1048 34.7744 30.1747 34.5143 30.1731 34.2499V21.3373L34.0967 23.5727C34.1173 23.5828 34.135 23.5978 34.1483 23.6163C34.1616 23.6348 34.1701 23.6562 34.1729 23.6787V34.3722C34.17 36.6562 33.2497 38.8459 31.6137 40.4617C29.9777 42.0775 27.7593 42.9876 25.4445 42.9926ZM6.67326 35.0824C5.64958 33.3371 5.28064 31.2923 5.63102 29.3057C5.69995 29.3465 5.82034 29.4191 5.90674 29.4681L15.1893 34.7585C15.4207 34.892 15.6838 34.9623 15.9517 34.9623C16.2197 34.9623 16.4828 34.892 16.7142 34.7585L28.0473 28.3018V32.7726C28.0486 32.7954 28.0442 32.8182 28.0344 32.8389C28.0246 32.8596 28.0098 32.8777 27.9912 32.8914L18.6075 38.2372C16.6003 39.3777 14.2166 39.6861 11.9792 39.0947C9.74189 38.5033 7.83365 37.0603 6.67326 35.0824ZM4.23127 15.0873C5.25053 13.3398 6.86036 12.0018 8.77885 11.3076C8.77885 11.3865 8.77426 11.5262 8.77426 11.6232V22.2042C8.77261 22.4685 8.84232 22.7284 8.97623 22.9573C9.11014 23.1862 9.30341 23.3757 9.53618 23.5065L20.8693 29.9623L16.9458 32.1976C16.9264 32.2102 16.9042 32.2178 16.8811 32.2199C16.858 32.222 16.8347 32.2184 16.8134 32.2094L7.42873 26.8591C5.42508 25.7141 3.96331 23.832 3.36392 21.6253C2.76454 19.4186 3.07645 17.0674 4.23127 15.0873ZM36.467 22.4889L25.1338 16.0323L29.0574 13.7978C29.0767 13.7852 29.0989 13.7776 29.122 13.7755C29.1451 13.7735 29.1683 13.7771 29.1896 13.7861L38.5743 19.1319C40.0121 19.9513 41.1835 21.1579 41.9514 22.6105C42.7193 24.063 43.0519 25.7014 42.9102 27.3337C42.7686 28.966 42.1585 30.5247 41.1515 31.8273C40.1445 33.1299 38.7822 34.1224 37.2242 34.6887V23.7912C37.2264 23.5274 37.1574 23.2677 37.0243 23.0389C36.8913 22.81 36.6989 22.6202 36.467 22.4889ZM40.372 16.6897C40.3031 16.648 40.1828 16.5763 40.0964 16.5274L30.8137 11.2369C30.5823 11.1037 30.3192 11.0335 30.0513 11.0335C29.7834 11.0335 29.5203 11.1037 29.2889 11.2369L17.9558 17.6937V13.2229C17.9545 13.2001 17.959 13.1773 17.9687 13.1566C17.9785 13.1359 17.9933 13.1179 18.0119 13.1041L27.3957 7.76278C28.8332 6.9449 30.4772 6.54784 32.1351 6.61808C33.793 6.68831 35.3964 7.22293 36.7576 8.15938C38.1188 9.09583 39.1817 10.3954 39.8218 11.906C40.4618 13.4167 40.6527 15.076 40.372 16.6897ZM15.8227 24.6582L11.8982 22.4228C11.8776 22.4127 11.8598 22.3977 11.8465 22.3792C11.8332 22.3607 11.8248 22.3392 11.822 22.3167V11.6232C11.823 9.98534 12.2969 8.38171 13.1882 6.99998C14.0794 5.61824 15.351 4.51558 16.8543 3.82104C18.3576 3.12651 20.0303 2.86885 21.6766 3.07822C23.3229 3.28759 24.8747 3.95532 26.1503 5.00327C26.0796 5.04136 25.9564 5.10847 25.8746 5.15744L16.5919 10.4479C16.359 10.5786 16.1656 10.7681 16.0315 10.9969C15.8974 11.2258 15.8276 11.4858 15.8291 11.7501L15.8227 24.6582ZM17.954 20.124L23.0016 17.2475L28.0491 20.1221V25.8732L23.0016 28.748L17.954 25.8733L17.954 20.124Z" fill="#123049"/>
<path d="M15.81 71.164H15.756C15.6 71.752 15.216 72.244 14.604 72.64C14.004 73.024 13.224 73.216 12.264 73.216C11.496 73.216 10.788 73.078 10.14 72.802C9.504 72.514 8.958 72.1 8.502 71.56C8.046 71.008 7.686 70.33 7.422 69.526C7.17 68.71 7.044 67.774 7.044 66.718C7.044 65.674 7.17 64.75 7.422 63.946C7.674 63.13 8.034 62.452 8.502 61.912C8.97 61.36 9.534 60.94 10.194 60.652C10.854 60.364 11.586 60.22 12.39 60.22C13.518 60.22 14.46 60.472 15.216 60.976C15.972 61.48 16.554 62.146 16.962 62.974L15.72 63.73C15.432 63.058 15 62.53 14.424 62.146C13.86 61.762 13.182 61.57 12.39 61.57C11.838 61.57 11.334 61.672 10.878 61.876C10.422 62.068 10.026 62.344 9.69 62.704C9.366 63.064 9.114 63.496 8.934 64C8.754 64.504 8.664 65.068 8.664 65.692V67.726C8.664 68.35 8.754 68.92 8.934 69.436C9.114 69.94 9.366 70.372 9.69 70.732C10.026 71.092 10.434 71.374 10.914 71.578C11.394 71.77 11.934 71.866 12.534 71.866C12.966 71.866 13.374 71.812 13.758 71.704C14.154 71.584 14.496 71.41 14.784 71.182C15.084 70.954 15.318 70.672 15.486 70.336C15.654 69.988 15.738 69.58 15.738 69.112V67.87H12.966V66.538H17.214V73H15.81V71.164ZM20.1896 73V60.436H25.1936C26.3216 60.436 27.1856 60.76 27.7856 61.408C28.3976 62.044 28.7036 62.92 28.7036 64.036C28.7036 65.152 28.3976 66.034 27.7856 66.682C27.1856 67.318 26.3216 67.636 25.1936 67.636H21.7016V73H20.1896ZM21.7016 66.304H25.1936C25.7936 66.304 26.2556 66.148 26.5796 65.836C26.9156 65.524 27.0836 65.08 27.0836 64.504V63.568C27.0836 62.992 26.9156 62.548 26.5796 62.236C26.2556 61.924 25.7936 61.768 25.1936 61.768H21.7016V66.304ZM35.3356 61.768V73H33.8236V61.768H29.8276V60.436H39.3316V61.768H35.3356Z" fill="#4B6585"/>
</svg>
