<svg width="43" height="72" viewBox="0 0 43 72" fill="none" xmlns="http://www.w3.org/2000/svg">
<path d="M40.1002 48.6909H32.3269V44.7649C29.0353 46.3029 25.3666 47.164 21.5 47.164C17.6334 47.164 13.9647 46.3029 10.673 44.7649V48.6909H2.8998C2.05336 48.6909 1.29117 49.2033 0.971632 49.9871C0.652097 50.7709 0.83907 51.6701 1.44427 52.2619L20.0444 70.4456C20.4489 70.8412 20.9745 71.0389 21.4998 71.0389C22.0252 71.0389 22.5507 70.8411 22.9552 70.4456L41.5554 52.2619C42.1606 51.6701 42.3476 50.7711 42.028 49.9871C41.7087 49.2034 40.9465 48.6909 40.1002 48.6909Z" fill="#272D4E"/>
<path d="M21.5 42.9999C33.3551 42.9999 43 33.3551 43 21.4999C43 9.64461 33.3551 0 21.5 0C9.64489 0 0 9.64475 0 21.5C0 33.3553 9.64475 42.9999 21.5 42.9999ZM16.8744 12.3207C17.5647 11.7927 18.3885 11.4083 19.2884 11.1805V9.71915C19.2884 8.56927 20.2206 7.63704 21.3705 7.63704C22.5204 7.63704 23.4526 8.56927 23.4526 9.71915V11.2398C26.0232 11.9516 28.2206 13.91 28.2206 16.9596C28.2206 18.1095 27.2884 19.0417 26.1385 19.0417C24.9886 19.0417 24.0564 18.1095 24.0564 16.9596C24.0564 15.6157 22.341 15.1072 21.2599 15.1025C20.5253 15.0946 18.808 15.277 18.7926 16.9957C18.7847 17.8771 19.1421 18.397 21.2976 19.1936C21.5469 19.2857 21.7983 19.375 22.0504 19.4637C23.4111 19.9431 24.7914 20.4105 25.9713 21.2586C27.531 22.3799 28.389 24.0517 28.3717 25.9783C28.3547 27.874 27.557 29.521 26.1255 30.616C25.4356 31.1438 24.6112 31.5295 23.7116 31.7577V33.2811C23.7116 34.431 22.7794 35.3632 21.6295 35.3632C20.4796 35.3632 19.5474 34.431 19.5474 33.2811V31.6971C16.9767 30.9854 14.7792 29.0268 14.7792 25.9772C14.7792 24.8274 15.7115 23.8951 16.8613 23.8951C18.0112 23.8951 18.9434 24.8274 18.9434 25.9772C18.9434 27.321 20.6587 27.8296 21.74 27.8343C21.7465 27.8345 21.7532 27.8345 21.7598 27.8345C21.8831 27.8345 22.0064 27.8295 22.1292 27.8191C22.8141 27.761 23.5657 27.5306 23.9495 26.9156C24.5123 26.0137 24.1354 24.9581 23.2706 24.4466C22.3353 23.8935 21.2607 23.6003 20.2438 23.2406C18.4086 22.5926 14.5902 21.2438 14.6285 16.9585C14.6454 15.0627 15.443 13.4156 16.8744 12.3207Z" fill="#272D4E"/>
</svg>
