<svg width="473" height="214" viewBox="0 0 473 214" fill="none" xmlns="http://www.w3.org/2000/svg">
<circle cx="3.52358" cy="210.24" r="3.52358" transform="rotate(-90 3.52358 210.24)" fill="#BFD2ED"/>
<circle cx="3.52358" cy="158.561" r="3.52358" transform="rotate(-90 3.52358 158.561)" fill="#BFD2ED"/>
<circle cx="55.2028" cy="210.24" r="3.52358" transform="rotate(-90 55.2028 210.24)" fill="#BFD2ED"/>
<circle cx="55.2028" cy="158.561" r="3.52358" transform="rotate(-90 55.2028 158.561)" fill="#BFD2ED"/>
<circle cx="106.882" cy="210.24" r="3.52358" transform="rotate(-90 106.882 210.24)" fill="#BFD2ED"/>
<circle cx="106.882" cy="158.561" r="3.52358" transform="rotate(-90 106.882 158.561)" fill="#BFD2ED"/>
<circle cx="158.561" cy="210.24" r="3.52358" transform="rotate(-90 158.561 210.24)" fill="#BFD2ED"/>
<circle cx="158.561" cy="158.561" r="3.52358" transform="rotate(-90 158.561 158.561)" fill="#BFD2ED"/>
<circle cx="210.24" cy="210.24" r="3.52358" transform="rotate(-90 210.24 210.24)" fill="#BFD2ED"/>
<circle cx="210.24" cy="158.561" r="3.52358" transform="rotate(-90 210.24 158.561)" fill="#BFD2ED"/>
<circle cx="261.92" cy="210.24" r="3.52358" transform="rotate(-90 261.92 210.24)" fill="#BFD2ED"/>
<circle cx="261.919" cy="158.561" r="3.52358" transform="rotate(-90 261.919 158.561)" fill="#BFD2ED"/>
<circle cx="313.599" cy="210.24" r="3.52358" transform="rotate(-90 313.599 210.24)" fill="#BFD2ED"/>
<circle cx="313.599" cy="158.561" r="3.52358" transform="rotate(-90 313.599 158.561)" fill="#BFD2ED"/>
<circle cx="365.278" cy="210.24" r="3.52358" transform="rotate(-90 365.278 210.24)" fill="#BFD2ED"/>
<circle cx="365.278" cy="158.561" r="3.52358" transform="rotate(-90 365.278 158.561)" fill="#BFD2ED"/>
<circle cx="416.957" cy="210.24" r="3.52358" transform="rotate(-90 416.957 210.24)" fill="#BFD2ED"/>
<circle cx="416.957" cy="158.561" r="3.52358" transform="rotate(-90 416.957 158.561)" fill="#BFD2ED"/>
<circle cx="416.957" cy="106.882" r="3.52358" transform="rotate(-90 416.957 106.882)" fill="#BFD2ED"/>
<circle cx="416.957" cy="55.2027" r="3.52358" transform="rotate(-90 416.957 55.2027)" fill="#BFD2ED"/>
<circle cx="416.957" cy="3.52354" r="3.52358" transform="rotate(-90 416.957 3.52354)" fill="#BFD2ED"/>
<circle cx="468.636" cy="210.24" r="3.52358" transform="rotate(-90 468.636 210.24)" fill="#BFD2ED"/>
<circle cx="468.636" cy="158.561" r="3.52358" transform="rotate(-90 468.636 158.561)" fill="#BFD2ED"/>
<circle cx="468.636" cy="106.882" r="3.52358" transform="rotate(-90 468.636 106.882)" fill="#BFD2ED"/>
<circle cx="468.636" cy="55.2027" r="3.52358" transform="rotate(-90 468.636 55.2027)" fill="#BFD2ED"/>
<circle cx="468.636" cy="3.52354" r="3.52358" transform="rotate(-90 468.636 3.52354)" fill="#BFD2ED"/>
</svg>
