<svg width="214" height="473" viewBox="0 0 214 473" fill="none" xmlns="http://www.w3.org/2000/svg">
<circle cx="3.52401" cy="3.52358" r="3.52358" fill="#C7D6EB"/>
<circle cx="55.2028" cy="3.52358" r="3.52358" fill="#C7D6EB"/>
<circle cx="106.882" cy="3.52358" r="3.52358" fill="#C7D6EB"/>
<circle cx="158.561" cy="3.52358" r="3.52358" fill="#C7D6EB"/>
<circle cx="210.24" cy="3.52358" r="3.52358" fill="#C7D6EB"/>
<circle cx="3.52358" cy="55.2028" r="3.52358" fill="#C7D6EB"/>
<circle cx="55.2028" cy="55.2028" r="3.52358" fill="#C7D6EB"/>
<circle cx="106.882" cy="55.2028" r="3.52358" fill="#C7D6EB"/>
<circle cx="158.561" cy="55.2028" r="3.52358" fill="#C7D6EB"/>
<circle cx="210.24" cy="55.2028" r="3.52358" fill="#C7D6EB"/>
<circle cx="3.52358" cy="106.882" r="3.52358" fill="#C7D6EB"/>
<circle cx="55.2028" cy="106.882" r="3.52358" fill="#C7D6EB"/>
<circle cx="106.882" cy="106.882" r="3.52358" fill="#C7D6EB"/>
<circle cx="158.561" cy="106.882" r="3.52358" fill="#C7D6EB"/>
<circle cx="210.24" cy="106.882" r="3.52358" fill="#C7D6EB"/>
<circle cx="3.52358" cy="158.561" r="3.52358" fill="#C7D6EB"/>
<circle cx="55.2028" cy="158.561" r="3.52358" fill="#C7D6EB"/>
<circle cx="106.882" cy="158.561" r="3.52358" fill="#C7D6EB"/>
<circle cx="158.561" cy="158.561" r="3.52358" fill="#C7D6EB"/>
<circle cx="210.24" cy="158.561" r="3.52358" fill="#C7D6EB"/>
<circle cx="3.52358" cy="210.24" r="3.52358" fill="#C7D6EB"/>
<circle cx="55.2028" cy="210.24" r="3.52358" fill="#C7D6EB"/>
<circle cx="106.882" cy="210.24" r="3.52358" fill="#C7D6EB"/>
<circle cx="158.561" cy="210.24" r="3.52358" fill="#C7D6EB"/>
<circle cx="210.24" cy="210.24" r="3.52358" fill="#C7D6EB"/>
<circle cx="3.52358" cy="261.92" r="3.52358" fill="#C7D6EB"/>
<circle cx="55.2028" cy="261.92" r="3.52358" fill="#C7D6EB"/>
<circle cx="106.882" cy="261.92" r="3.52358" fill="#C7D6EB"/>
<circle cx="158.561" cy="261.92" r="3.52358" fill="#C7D6EB"/>
<circle cx="210.24" cy="261.92" r="3.52358" fill="#C7D6EB"/>
<circle cx="3.52358" cy="313.599" r="3.52358" fill="#C7D6EB"/>
<circle cx="55.2028" cy="313.599" r="3.52358" fill="#C7D6EB"/>
<circle cx="106.882" cy="313.599" r="3.52358" fill="#C7D6EB"/>
<circle cx="158.561" cy="313.599" r="3.52358" fill="#C7D6EB"/>
<circle cx="210.24" cy="313.599" r="3.52358" fill="#C7D6EB"/>
<circle cx="3.52358" cy="365.278" r="3.52358" fill="#C7D6EB"/>
<circle cx="55.2028" cy="365.278" r="3.52358" fill="#C7D6EB"/>
<circle cx="106.882" cy="365.278" r="3.52358" fill="#C7D6EB"/>
<circle cx="158.561" cy="365.278" r="3.52358" fill="#C7D6EB"/>
<circle cx="210.24" cy="365.278" r="3.52358" fill="#C7D6EB"/>
<circle cx="3.52358" cy="416.957" r="3.52358" fill="#C7D6EB"/>
<circle cx="55.2028" cy="416.957" r="3.52358" fill="#C7D6EB"/>
<circle cx="106.882" cy="416.957" r="3.52358" fill="#C7D6EB"/>
<circle cx="158.561" cy="416.957" r="3.52358" fill="#C7D6EB"/>
<circle cx="210.24" cy="416.957" r="3.52358" fill="#C7D6EB"/>
<circle cx="3.52358" cy="468.636" r="3.52358" fill="#C7D6EB"/>
<circle cx="55.2028" cy="468.636" r="3.52358" fill="#C7D6EB"/>
<circle cx="106.882" cy="468.636" r="3.52358" fill="#C7D6EB"/>
<circle cx="158.561" cy="468.636" r="3.52358" fill="#C7D6EB"/>
<circle cx="210.24" cy="468.636" r="3.52358" fill="#C7D6EB"/>
</svg>
