<svg width="188" height="473" viewBox="0 0 188 473" fill="none" xmlns="http://www.w3.org/2000/svg">
<circle cx="3.72207" cy="4.32558" r="3.52358" fill="#C7D6EB"/>
<circle cx="55.4008" cy="4.32558" r="3.52358" fill="#C7D6EB"/>
<circle cx="107.08" cy="4.32558" r="3.52358" fill="#C7D6EB"/>
<circle cx="158.759" cy="4.32558" r="3.52358" fill="#C7D6EB"/>
<circle cx="3.72158" cy="56.0048" r="3.52358" fill="#C7D6EB"/>
<circle cx="55.4008" cy="56.0048" r="3.52358" fill="#C7D6EB"/>
<circle cx="107.08" cy="56.0048" r="3.52358" fill="#C7D6EB"/>
<circle cx="158.759" cy="56.0048" r="3.52358" fill="#C7D6EB"/>
<circle cx="3.72158" cy="107.684" r="3.52358" fill="#C7D6EB"/>
<circle cx="55.4008" cy="107.684" r="3.52358" fill="#C7D6EB"/>
<circle cx="107.08" cy="107.684" r="3.52358" fill="#C7D6EB"/>
<circle cx="158.759" cy="107.684" r="3.52358" fill="#C7D6EB"/>
<circle cx="3.72158" cy="159.363" r="3.52358" fill="#C7D6EB"/>
<circle cx="55.4008" cy="159.363" r="3.52358" fill="#C7D6EB"/>
<circle cx="107.08" cy="159.363" r="3.52358" fill="#C7D6EB"/>
<circle cx="158.759" cy="159.363" r="3.52358" fill="#C7D6EB"/>
<circle cx="3.72158" cy="211.042" r="3.52358" fill="#C7D6EB"/>
<circle cx="55.4008" cy="211.042" r="3.52358" fill="#C7D6EB"/>
<circle cx="107.08" cy="211.042" r="3.52358" fill="#C7D6EB"/>
<circle cx="158.759" cy="211.042" r="3.52358" fill="#C7D6EB"/>
<circle cx="3.72158" cy="262.722" r="3.52358" fill="#C7D6EB"/>
<circle cx="55.4008" cy="262.722" r="3.52358" fill="#C7D6EB"/>
<circle cx="107.08" cy="262.722" r="3.52358" fill="#C7D6EB"/>
<circle cx="158.759" cy="262.722" r="3.52358" fill="#C7D6EB"/>
<circle cx="3.72158" cy="314.401" r="3.52358" fill="#C7D6EB"/>
<circle cx="55.4008" cy="314.401" r="3.52358" fill="#C7D6EB"/>
<circle cx="107.08" cy="314.401" r="3.52358" fill="#C7D6EB"/>
<circle cx="158.759" cy="314.401" r="3.52358" fill="#C7D6EB"/>
<circle cx="3.72158" cy="366.08" r="3.52358" fill="#C7D6EB"/>
<circle cx="55.4008" cy="366.08" r="3.52358" fill="#C7D6EB"/>
<circle cx="107.08" cy="366.08" r="3.52358" fill="#C7D6EB"/>
<circle cx="158.759" cy="366.08" r="3.52358" fill="#C7D6EB"/>
<circle cx="3.72158" cy="417.759" r="3.52358" fill="#C7D6EB"/>
<circle cx="55.4008" cy="417.759" r="3.52358" fill="#C7D6EB"/>
<circle cx="107.08" cy="417.759" r="3.52358" fill="#C7D6EB"/>
<circle cx="158.759" cy="417.759" r="3.52358" fill="#C7D6EB"/>
<circle cx="3.72158" cy="469.438" r="3.52358" fill="#C7D6EB"/>
<circle cx="55.4008" cy="469.438" r="3.52358" fill="#C7D6EB"/>
<circle cx="107.08" cy="469.438" r="3.52358" fill="#C7D6EB"/>
<circle cx="158.759" cy="469.438" r="3.52358" fill="#C7D6EB"/>
</svg>
