<svg width="473" height="214" viewBox="0 0 473 214" fill="none" xmlns="http://www.w3.org/2000/svg">
<circle cx="468.636" cy="3.52407" r="3.52358" transform="rotate(90 468.636 3.52407)" fill="#C7D6EB"/>
<circle cx="468.636" cy="55.2028" r="3.52358" transform="rotate(90 468.636 55.2028)" fill="#C7D6EB"/>
<circle cx="468.636" cy="106.882" r="3.52358" transform="rotate(90 468.636 106.882)" fill="#C7D6EB"/>
<circle cx="468.636" cy="158.561" r="3.52358" transform="rotate(90 468.636 158.561)" fill="#C7D6EB"/>
<circle cx="468.636" cy="210.24" r="3.52358" transform="rotate(90 468.636 210.24)" fill="#C7D6EB"/>
<circle cx="416.957" cy="3.52358" r="3.52358" transform="rotate(90 416.957 3.52358)" fill="#C7D6EB"/>
<circle cx="416.957" cy="55.2028" r="3.52358" transform="rotate(90 416.957 55.2028)" fill="#C7D6EB"/>
<circle cx="416.957" cy="106.882" r="3.52358" transform="rotate(90 416.957 106.882)" fill="#C7D6EB"/>
<circle cx="416.957" cy="158.561" r="3.52358" transform="rotate(90 416.957 158.561)" fill="#C7D6EB"/>
<circle cx="416.957" cy="210.24" r="3.52358" transform="rotate(90 416.957 210.24)" fill="#C7D6EB"/>
<circle cx="365.278" cy="3.52358" r="3.52358" transform="rotate(90 365.278 3.52358)" fill="#C7D6EB"/>
<circle cx="365.278" cy="55.2028" r="3.52358" transform="rotate(90 365.278 55.2028)" fill="#C7D6EB"/>
<circle cx="365.278" cy="106.882" r="3.52358" transform="rotate(90 365.278 106.882)" fill="#C7D6EB"/>
<circle cx="365.278" cy="158.561" r="3.52358" transform="rotate(90 365.278 158.561)" fill="#C7D6EB"/>
<circle cx="365.278" cy="210.24" r="3.52358" transform="rotate(90 365.278 210.24)" fill="#C7D6EB"/>
<circle cx="313.599" cy="3.52358" r="3.52358" transform="rotate(90 313.599 3.52358)" fill="#C7D6EB"/>
<circle cx="313.599" cy="55.2028" r="3.52358" transform="rotate(90 313.599 55.2028)" fill="#C7D6EB"/>
<circle cx="313.599" cy="106.882" r="3.52358" transform="rotate(90 313.599 106.882)" fill="#C7D6EB"/>
<circle cx="313.599" cy="158.561" r="3.52358" transform="rotate(90 313.599 158.561)" fill="#C7D6EB"/>
<circle cx="313.599" cy="210.24" r="3.52358" transform="rotate(90 313.599 210.24)" fill="#C7D6EB"/>
<circle cx="261.92" cy="3.52358" r="3.52358" transform="rotate(90 261.92 3.52358)" fill="#C7D6EB"/>
<circle cx="261.92" cy="55.2028" r="3.52358" transform="rotate(90 261.92 55.2028)" fill="#C7D6EB"/>
<circle cx="261.92" cy="106.882" r="3.52358" transform="rotate(90 261.92 106.882)" fill="#C7D6EB"/>
<circle cx="261.92" cy="158.561" r="3.52358" transform="rotate(90 261.92 158.561)" fill="#C7D6EB"/>
<circle cx="261.92" cy="210.24" r="3.52358" transform="rotate(90 261.92 210.24)" fill="#C7D6EB"/>
<circle cx="210.24" cy="3.52358" r="3.52358" transform="rotate(90 210.24 3.52358)" fill="#C7D6EB"/>
<circle cx="210.24" cy="55.2028" r="3.52358" transform="rotate(90 210.24 55.2028)" fill="#C7D6EB"/>
<circle cx="210.24" cy="106.882" r="3.52358" transform="rotate(90 210.24 106.882)" fill="#C7D6EB"/>
<circle cx="210.24" cy="158.561" r="3.52358" transform="rotate(90 210.24 158.561)" fill="#C7D6EB"/>
<circle cx="210.24" cy="210.24" r="3.52358" transform="rotate(90 210.24 210.24)" fill="#C7D6EB"/>
<circle cx="158.561" cy="3.52358" r="3.52358" transform="rotate(90 158.561 3.52358)" fill="#C7D6EB"/>
<circle cx="158.561" cy="55.2028" r="3.52358" transform="rotate(90 158.561 55.2028)" fill="#C7D6EB"/>
<circle cx="158.561" cy="106.882" r="3.52358" transform="rotate(90 158.561 106.882)" fill="#C7D6EB"/>
<circle cx="158.561" cy="158.561" r="3.52358" transform="rotate(90 158.561 158.561)" fill="#C7D6EB"/>
<circle cx="158.561" cy="210.24" r="3.52358" transform="rotate(90 158.561 210.24)" fill="#C7D6EB"/>
<circle cx="106.882" cy="3.52358" r="3.52358" transform="rotate(90 106.882 3.52358)" fill="#C7D6EB"/>
<circle cx="106.882" cy="55.2028" r="3.52358" transform="rotate(90 106.882 55.2028)" fill="#C7D6EB"/>
<circle cx="106.882" cy="106.882" r="3.52358" transform="rotate(90 106.882 106.882)" fill="#C7D6EB"/>
<circle cx="106.882" cy="158.561" r="3.52358" transform="rotate(90 106.882 158.561)" fill="#C7D6EB"/>
<circle cx="106.882" cy="210.24" r="3.52358" transform="rotate(90 106.882 210.24)" fill="#C7D6EB"/>
<circle cx="55.2028" cy="3.52358" r="3.52358" transform="rotate(90 55.2028 3.52358)" fill="#C7D6EB"/>
<circle cx="55.2028" cy="55.2028" r="3.52358" transform="rotate(90 55.2028 55.2028)" fill="#C7D6EB"/>
<circle cx="55.2028" cy="106.882" r="3.52358" transform="rotate(90 55.2028 106.882)" fill="#C7D6EB"/>
<circle cx="55.2028" cy="158.561" r="3.52358" transform="rotate(90 55.2028 158.561)" fill="#C7D6EB"/>
<circle cx="55.2028" cy="210.24" r="3.52358" transform="rotate(90 55.2028 210.24)" fill="#C7D6EB"/>
<circle cx="3.52363" cy="3.52358" r="3.52358" transform="rotate(90 3.52363 3.52358)" fill="#C7D6EB"/>
<circle cx="3.52363" cy="55.2028" r="3.52358" transform="rotate(90 3.52363 55.2028)" fill="#C7D6EB"/>
<circle cx="3.52363" cy="106.882" r="3.52358" transform="rotate(90 3.52363 106.882)" fill="#C7D6EB"/>
<circle cx="3.52363" cy="158.561" r="3.52358" transform="rotate(90 3.52363 158.561)" fill="#C7D6EB"/>
<circle cx="3.52363" cy="210.24" r="3.52358" transform="rotate(90 3.52363 210.24)" fill="#C7D6EB"/>
</svg>
