<svg width="163" height="214" viewBox="0 0 163 214" fill="none" xmlns="http://www.w3.org/2000/svg">
<circle cx="106.92" cy="210.24" r="3.52358" transform="rotate(-90 106.92 210.24)" fill="#C7D6EB"/>
<circle cx="106.92" cy="158.561" r="3.52358" transform="rotate(-90 106.92 158.561)" fill="#C7D6EB"/>
<circle cx="106.92" cy="106.881" r="3.52358" transform="rotate(-90 106.92 106.881)" fill="#C7D6EB"/>
<circle cx="106.92" cy="55.2022" r="3.52358" transform="rotate(-90 106.92 55.2022)" fill="#C7D6EB"/>
<circle cx="106.92" cy="3.52305" r="3.52358" transform="rotate(-90 106.92 3.52305)" fill="#C7D6EB"/>
<circle cx="158.599" cy="210.24" r="3.52358" transform="rotate(-90 158.599 210.24)" fill="#C7D6EB"/>
<circle cx="158.599" cy="158.561" r="3.52358" transform="rotate(-90 158.599 158.561)" fill="#C7D6EB"/>
<circle cx="158.599" cy="106.881" r="3.52358" transform="rotate(-90 158.599 106.881)" fill="#C7D6EB"/>
<circle cx="158.599" cy="55.2022" r="3.52358" transform="rotate(-90 158.599 55.2022)" fill="#C7D6EB"/>
<circle cx="158.599" cy="3.52305" r="3.52358" transform="rotate(-90 158.599 3.52305)" fill="#C7D6EB"/>
<circle cx="3.56118" cy="210.24" r="3.52358" transform="rotate(-90 3.56118 210.24)" fill="#C7D6EB"/>
<circle cx="3.56118" cy="158.561" r="3.52358" transform="rotate(-90 3.56118 158.561)" fill="#C7D6EB"/>
<circle cx="3.56118" cy="106.881" r="3.52358" transform="rotate(-90 3.56118 106.881)" fill="#C7D6EB"/>
<circle cx="3.56118" cy="55.2022" r="3.52358" transform="rotate(-90 3.56118 55.2022)" fill="#C7D6EB"/>
<circle cx="3.56118" cy="3.52305" r="3.52358" transform="rotate(-90 3.56118 3.52305)" fill="#C7D6EB"/>
<circle cx="55.2404" cy="210.24" r="3.52358" transform="rotate(-90 55.2404 210.24)" fill="#C7D6EB"/>
<circle cx="55.2404" cy="158.561" r="3.52358" transform="rotate(-90 55.2404 158.561)" fill="#C7D6EB"/>
<circle cx="55.2404" cy="106.881" r="3.52358" transform="rotate(-90 55.2404 106.881)" fill="#C7D6EB"/>
<circle cx="55.2404" cy="55.2022" r="3.52358" transform="rotate(-90 55.2404 55.2022)" fill="#C7D6EB"/>
<circle cx="55.2404" cy="3.52305" r="3.52358" transform="rotate(-90 55.2404 3.52305)" fill="#C7D6EB"/>
</svg>
