<svg width="214" height="421" viewBox="0 0 214 421" fill="none" xmlns="http://www.w3.org/2000/svg">
<circle cx="210.24" cy="416.957" r="3.52358" transform="rotate(-180 210.24 416.957)" fill="#BFD2ED"/>
<circle cx="158.561" cy="416.957" r="3.52358" transform="rotate(-180 158.561 416.957)" fill="#BFD2ED"/>
<circle cx="106.882" cy="416.957" r="3.52358" transform="rotate(-180 106.882 416.957)" fill="#BFD2ED"/>
<path d="M51.679 416.957C51.679 415.011 53.2565 413.434 55.2025 413.434C57.1486 413.434 58.7261 415.011 58.7261 416.957C58.7261 418.903 57.1486 420.481 55.2025 420.481C53.2565 420.481 51.679 418.903 51.679 416.957Z" fill="#BFD2ED"/>
<circle cx="3.52334" cy="416.957" r="3.52358" transform="rotate(-180 3.52334 416.957)" fill="#BFD2ED"/>
<circle cx="210.24" cy="365.278" r="3.52358" transform="rotate(-180 210.24 365.278)" fill="#BFD2ED"/>
<circle cx="158.561" cy="365.278" r="3.52358" transform="rotate(-180 158.561 365.278)" fill="#BFD2ED"/>
<circle cx="106.882" cy="365.278" r="3.52358" transform="rotate(-180 106.882 365.278)" fill="#BFD2ED"/>
<circle cx="55.2025" cy="365.278" r="3.52358" transform="rotate(-180 55.2025 365.278)" fill="#BFD2ED"/>
<circle cx="3.52334" cy="365.278" r="3.52358" transform="rotate(-180 3.52334 365.278)" fill="#BFD2ED"/>
</svg>
