<svg width="151" height="473" viewBox="0 0 151 473" fill="none" xmlns="http://www.w3.org/2000/svg">
<circle cx="147.24" cy="468.636" r="3.52358" transform="rotate(180 147.24 468.636)" fill="#C7D6EB"/>
<circle cx="95.5609" cy="468.636" r="3.52358" transform="rotate(180 95.5609 468.636)" fill="#C7D6EB"/>
<circle cx="43.8817" cy="468.636" r="3.52358" transform="rotate(180 43.8817 468.636)" fill="#C7D6EB"/>
<circle cx="147.24" cy="416.957" r="3.52358" transform="rotate(180 147.24 416.957)" fill="#C7D6EB"/>
<circle cx="95.5609" cy="416.957" r="3.52358" transform="rotate(180 95.5609 416.957)" fill="#C7D6EB"/>
<circle cx="43.8817" cy="416.957" r="3.52358" transform="rotate(180 43.8817 416.957)" fill="#C7D6EB"/>
<circle cx="147.24" cy="365.278" r="3.52358" transform="rotate(180 147.24 365.278)" fill="#C7D6EB"/>
<circle cx="95.5609" cy="365.278" r="3.52358" transform="rotate(180 95.5609 365.278)" fill="#C7D6EB"/>
<circle cx="43.8817" cy="365.278" r="3.52358" transform="rotate(180 43.8817 365.278)" fill="#C7D6EB"/>
<circle cx="147.24" cy="313.599" r="3.52358" transform="rotate(180 147.24 313.599)" fill="#C7D6EB"/>
<circle cx="95.5609" cy="313.599" r="3.52358" transform="rotate(180 95.5609 313.599)" fill="#C7D6EB"/>
<circle cx="43.8817" cy="313.599" r="3.52358" transform="rotate(180 43.8817 313.599)" fill="#C7D6EB"/>
<circle cx="147.24" cy="261.92" r="3.52358" transform="rotate(180 147.24 261.92)" fill="#C7D6EB"/>
<circle cx="95.5609" cy="261.92" r="3.52358" transform="rotate(180 95.5609 261.92)" fill="#C7D6EB"/>
<circle cx="43.8817" cy="261.92" r="3.52358" transform="rotate(180 43.8817 261.92)" fill="#C7D6EB"/>
<circle cx="147.24" cy="210.24" r="3.52358" transform="rotate(180 147.24 210.24)" fill="#C7D6EB"/>
<circle cx="95.5609" cy="210.24" r="3.52358" transform="rotate(180 95.5609 210.24)" fill="#C7D6EB"/>
<circle cx="43.8817" cy="210.24" r="3.52358" transform="rotate(180 43.8817 210.24)" fill="#C7D6EB"/>
<circle cx="147.24" cy="158.561" r="3.52358" transform="rotate(180 147.24 158.561)" fill="#C7D6EB"/>
<circle cx="95.5609" cy="158.561" r="3.52358" transform="rotate(180 95.5609 158.561)" fill="#C7D6EB"/>
<circle cx="43.8817" cy="158.561" r="3.52358" transform="rotate(180 43.8817 158.561)" fill="#C7D6EB"/>
<circle cx="147.24" cy="106.882" r="3.52358" transform="rotate(180 147.24 106.882)" fill="#C7D6EB"/>
<circle cx="95.5609" cy="106.882" r="3.52358" transform="rotate(180 95.5609 106.882)" fill="#C7D6EB"/>
<circle cx="43.8817" cy="106.882" r="3.52358" transform="rotate(180 43.8817 106.882)" fill="#C7D6EB"/>
<circle cx="147.24" cy="55.2027" r="3.52358" transform="rotate(180 147.24 55.2027)" fill="#C7D6EB"/>
<circle cx="95.5609" cy="55.2027" r="3.52358" transform="rotate(180 95.5609 55.2027)" fill="#C7D6EB"/>
<circle cx="43.8817" cy="55.2027" r="3.52358" transform="rotate(180 43.8817 55.2027)" fill="#C7D6EB"/>
<circle cx="147.24" cy="3.52354" r="3.52358" transform="rotate(180 147.24 3.52354)" fill="#C7D6EB"/>
<circle cx="95.5609" cy="3.52354" r="3.52358" transform="rotate(180 95.5609 3.52354)" fill="#C7D6EB"/>
<circle cx="43.8817" cy="3.52354" r="3.52358" transform="rotate(180 43.8817 3.52354)" fill="#C7D6EB"/>
</svg>
