<svg width="68" height="76" viewBox="0 0 68 76" fill="none" xmlns="http://www.w3.org/2000/svg">
<circle cx="29" cy="29" r="29" fill="#A0C9FF"/>
<path d="M55.3211 64.9822C55.0857 65.5431 54.8798 66.1041 54.6445 66.665C53.9973 68.0821 53.1736 69.3516 52.1734 70.5325C50.9967 71.8906 49.6141 73.0125 48.0844 73.8981C46.3488 74.9019 44.4661 75.5219 42.4951 75.8171C41.5832 75.9352 40.6418 76.0238 39.7299 75.9943C38.0825 75.9352 36.494 75.64 34.9349 75.0791C33.464 74.5476 32.1108 73.8391 30.8459 72.8944C30.0516 72.3039 29.3162 71.6544 28.669 70.9163C28.5513 70.7687 28.4336 70.7097 28.2277 70.7687C27.1687 71.0049 26.0802 71.0935 25.0212 71.0639C22.2854 71.0049 19.7261 70.3259 17.3433 68.9678C16.2549 68.3478 15.2547 67.6097 14.3427 66.7241C12.9307 65.3955 11.8129 63.8603 10.9598 62.148C10.1655 60.5537 9.6654 58.8414 9.43006 57.07C9.1653 54.8853 9.34181 52.7301 9.98899 50.6045C10.0184 50.5454 10.0184 50.4864 10.0478 50.4569C10.1655 50.2502 10.0772 50.1321 9.93015 49.9845C8.01803 47.8293 6.84133 45.3494 6.28241 42.5742C6.04707 41.3047 5.95882 40.0353 6.01765 38.7658C6.16474 35.9316 7.01784 33.3335 8.54754 30.9422C9.72423 29.1117 11.1951 27.5765 13.019 26.3366C14.6369 25.2442 16.4314 24.4766 18.3435 24.0633C18.52 24.0338 18.6083 23.9452 18.6671 23.7681C19.3437 21.7605 20.3733 19.9891 21.7559 18.3949C22.9914 17.0073 24.4035 15.8559 26.0508 14.9702C27.5805 14.1141 29.2279 13.5531 30.9635 13.2284C32.1402 13.0217 33.3169 12.9627 34.4936 13.0217C36.7293 13.1398 38.8474 13.7007 40.8477 14.734C42.1127 15.3835 43.26 16.1807 44.319 17.1549C44.6132 17.4502 44.9073 17.7454 45.2015 18.0406C45.3486 18.2178 45.4957 18.2768 45.731 18.2178C46.7606 17.9816 47.7902 17.893 48.8492 17.9225C51.9381 17.9816 54.821 18.8377 57.4097 20.5205C59.9396 22.1738 61.8223 24.4176 63.1166 27.1632C63.8227 28.6689 64.2639 30.2631 64.4698 31.9459C64.7346 34.1897 64.5287 36.4039 63.8521 38.5591C63.7932 38.7362 63.8227 38.8543 63.9403 38.9724C65.3818 40.6257 66.4408 42.4857 67.088 44.5523C67.4704 45.7922 67.7352 47.0322 67.794 48.3312C67.8234 48.9512 67.8528 49.5417 67.8234 50.1616C67.7646 51.4607 67.5587 52.7301 67.1762 53.9701C66.4702 56.3024 65.2935 58.3986 63.6461 60.1995C61.9399 62.0889 59.8807 63.447 57.4979 64.3327C56.8508 64.5689 56.2036 64.7165 55.527 64.9231C55.4681 64.9231 55.4093 64.9527 55.3211 64.9822ZM39.877 34.9573C39.9652 35.0163 39.9946 35.0459 40.0535 35.0754C40.8183 35.5182 41.5832 35.9611 42.348 36.4039C44.8779 37.8801 47.4372 39.3562 49.9671 40.8324C51.6145 41.8066 53.2913 42.7514 54.9386 43.7256C55.1445 43.8437 55.3799 44.0209 55.527 44.198C55.9388 44.6408 56.0565 45.1427 56.0565 45.7332C56.0565 50.4864 56.0565 55.2396 56.0565 59.9928C56.0565 60.1109 56.0565 60.229 56.0565 60.3471C56.1153 60.3766 56.1447 60.3766 56.1447 60.3766C56.1742 60.3766 56.2036 60.3766 56.233 60.3471C57.645 59.7861 58.91 58.989 60.0278 57.9262C61.0868 56.9224 61.9399 55.7415 62.5577 54.413C63.1755 53.0844 63.5579 51.6673 63.6461 50.1616C63.6756 49.5121 63.6461 48.8626 63.6167 48.2427C63.4696 46.5598 62.9696 44.9951 62.1165 43.5485C60.9986 41.6295 59.4689 40.1533 57.5273 39.061C55.3799 37.8506 53.2618 36.5811 51.1144 35.3411C49.2023 34.2192 47.2901 33.1269 45.378 32.005C45.2015 31.9164 45.0838 31.8869 44.9073 32.005C43.3776 32.8907 41.8479 33.7764 40.3182 34.6621C40.23 34.7506 40.0535 34.8392 39.877 34.9573ZM17.7846 28.5803C17.6963 28.6098 17.6375 28.6098 17.5787 28.6394C16.8138 28.9346 16.049 29.3184 15.3724 29.7908C13.5779 31.0307 12.1953 32.5955 11.2833 34.603C10.6656 35.9611 10.2832 37.3782 10.1949 38.8839C10.1361 39.8876 10.1949 40.8914 10.4008 41.8952C11.1657 45.4084 13.0778 48.0655 16.1666 49.8664C18.1376 51.0178 20.0791 52.1397 22.0501 53.2616C24.1681 54.472 26.2568 55.712 28.3748 56.9519C28.6101 57.0996 28.7866 57.0996 29.022 56.9519C30.6105 56.0367 32.199 55.092 33.7876 54.1768C33.8464 54.1473 33.9053 54.0882 33.9935 54.0292C33.2287 53.5863 32.5226 53.173 31.7872 52.7597C29.728 51.5788 27.6982 50.3978 25.639 49.2169C24.0799 48.3312 22.5502 47.4455 20.9911 46.5303C20.285 46.117 19.579 45.7037 18.8436 45.2904C18.4318 45.0542 18.1082 44.7294 17.9317 44.2866C17.7846 43.9913 17.7552 43.6666 17.7552 43.3123C17.7552 38.5591 17.7552 33.7764 17.7552 29.0232C17.7846 28.846 17.7846 28.7279 17.7846 28.5803ZM27.2569 46.7075C27.2569 46.5008 27.2569 46.3827 27.2569 46.2646C27.2569 40.9209 27.2569 35.6068 27.2569 30.2631C27.2569 29.9089 27.2569 29.5546 27.2864 29.2003C27.2864 29.0232 27.3158 28.8165 27.3452 28.6394C27.4923 27.9899 27.9041 27.5765 28.4631 27.2518C29.6397 26.5728 30.8459 25.8937 32.0225 25.1852C34.6113 23.6795 37.2 22.1738 39.7887 20.6682C40.23 20.4025 40.6712 20.1663 41.1125 19.9006C41.0242 19.8415 40.9948 19.7825 40.936 19.7234C40.5536 19.4577 40.2006 19.192 39.8181 18.9263C37.9943 17.7749 35.9939 17.214 33.8464 17.1844C33.3169 17.1844 32.8168 17.214 32.2873 17.273C30.9929 17.4206 29.7868 17.7749 28.6101 18.3358C26.8451 19.192 25.4037 20.4025 24.2564 21.9672C22.7561 24.0043 21.9912 26.2775 21.9912 28.8165C21.9618 33.6288 21.9912 38.441 21.9618 43.2533C21.9618 43.519 22.0501 43.6961 22.2854 43.8142C23.6975 44.6113 25.0801 45.438 26.4921 46.2351C26.6686 46.3827 26.9334 46.5303 27.2569 46.7075ZM13.6073 53.1435C13.4308 54.2063 13.4014 55.2396 13.4896 56.2729C13.6073 57.3653 13.8427 58.4576 14.2839 59.4909C14.9605 61.2032 15.9901 62.6794 17.3727 63.8898C18.3141 64.7165 19.3731 65.3955 20.5204 65.8974C22.256 66.6355 24.0799 66.9602 25.9626 66.8421C27.6982 66.7241 29.3162 66.2517 30.8164 65.425C32.2285 64.6279 33.6111 63.8013 35.0231 63.0042C37.8472 61.3804 40.6418 59.7566 43.4659 58.1329C43.6424 58.0148 43.7306 57.8967 43.7306 57.69C43.7306 55.8301 43.7306 53.9701 43.7306 52.1102C43.7306 52.0216 43.7012 51.9625 43.7012 51.8445C43.5541 51.9035 43.4659 51.9626 43.3776 52.0216C41.0537 53.3797 38.7297 54.7082 36.4057 56.0662C33.817 57.5719 31.2283 59.0481 28.669 60.5537C27.9041 60.9966 27.1393 61.0261 26.3744 60.5833C25.8449 60.288 25.3448 59.9928 24.8153 59.6681C23.5798 58.9595 22.3443 58.2509 21.1381 57.5129C19.1966 56.391 17.2845 55.2691 15.3429 54.1473C14.7252 53.8225 14.1957 53.4977 13.6073 53.1435ZM60.2632 35.8135C60.322 35.4001 60.3808 35.0754 60.4102 34.7211C60.4985 33.304 60.3514 31.9164 59.969 30.5584C59.3218 28.3737 58.1451 26.5432 56.4389 25.0376C55.6152 24.329 54.7327 23.709 53.7325 23.2662C51.7616 22.351 49.7023 21.9672 47.5255 22.2034C45.9664 22.351 44.4661 22.8233 43.0835 23.5909C41.995 24.2109 40.9066 24.8604 39.8181 25.4804C36.6999 27.2813 33.6111 29.0822 30.4928 30.8831C30.2575 31.0307 30.1693 31.1784 30.1693 31.4441C30.1693 33.245 30.1693 35.0459 30.1693 36.8468C30.1693 36.9649 30.1693 37.0534 30.1693 37.2306C30.3458 37.142 30.4634 37.083 30.5811 36.9944C31.2577 36.6106 31.9637 36.1973 32.6403 35.8135C34.523 34.7211 36.4351 33.6288 38.3178 32.5364C40.6418 31.1784 42.9658 29.8203 45.3192 28.4918C46.0546 28.0784 46.79 28.0784 47.4961 28.4918C49.114 29.4365 50.7614 30.3812 52.3793 31.326C54.4385 32.5069 56.4977 33.7173 58.557 34.9278C59.1159 35.164 59.6748 35.4592 60.2632 35.8135ZM46.6135 42.2495C46.6135 42.3971 46.6135 42.5152 46.6135 42.6333C46.6135 48.2722 46.6135 53.8815 46.6135 59.5204C46.6135 59.7861 46.6135 60.0814 46.5547 60.3471C46.4076 60.9966 45.9958 61.4099 45.4074 61.7347C44.2307 62.4137 43.054 63.0927 41.8773 63.7718C38.9356 65.4841 35.9939 67.1669 33.0522 68.8792C32.9639 68.9383 32.8756 68.9973 32.758 69.0564C32.8756 69.1449 32.9345 69.204 33.0227 69.2926C33.7582 69.8535 34.523 70.3259 35.3467 70.7097C36.6411 71.3001 37.9943 71.6249 39.3769 71.743C40.2006 71.802 40.9948 71.7725 41.7891 71.6544C44.2896 71.3001 46.437 70.2373 48.2609 68.525C49.5847 67.285 50.5555 65.7793 51.1732 64.067C51.6439 62.7975 51.8792 61.469 51.8792 60.1109C51.8792 55.3282 51.8792 50.5454 51.8792 45.7627C51.8792 45.6151 51.8792 45.497 51.8792 45.3494C50.1436 44.3161 48.3786 43.2828 46.6135 42.2495ZM43.7012 48.3903C43.7012 48.2722 43.7012 48.1541 43.7012 48.036C43.7012 45.6741 43.7012 43.3123 43.7012 40.9505C43.7012 40.6848 43.613 40.5371 43.3776 40.3895C42.4069 39.8286 41.4361 39.2677 40.4653 38.7067C39.3475 38.0572 38.2296 37.4077 37.1412 36.7877C37.0235 36.7287 36.9058 36.6696 36.7587 36.7582C34.6407 37.9982 32.5226 39.2086 30.4046 40.4486C30.2281 40.5667 30.1398 40.6552 30.1693 40.8914C30.1693 43.3123 30.1693 45.7332 30.1693 48.1836C30.1693 48.3903 30.2575 48.4788 30.4046 48.5969C32.4932 49.8074 34.5819 51.0178 36.6705 52.2283C36.8764 52.3463 36.9941 52.3463 37.2 52.2283C39.0533 51.1359 40.9066 50.0731 42.7893 48.9807C43.0835 48.7445 43.3776 48.5674 43.7012 48.3903Z" fill="#272D4E"/>
</svg>
