<svg width="797" height="294" viewBox="0 0 797 294" fill="none" xmlns="http://www.w3.org/2000/svg">
<path d="M57.0234 293.013H0.85437L103.122 2.52197H168.085L270.494 293.013H214.325L136.738 62.0952H134.469L57.0234 293.013ZM58.8674 179.114H212.056V221.383H58.8674V179.114Z" fill="#272D4E"/>
<path d="M361.379 2.52197V293.013H308.756V2.52197H361.379Z" fill="#272D4E"/>
<path d="M427.662 293.009L389.887 159.162H415.964L440.08 257.521H441.321L467.071 159.162H490.795L516.61 257.586H517.787L541.903 159.162H567.979L530.204 293.009H506.284L479.489 199.094H478.443L451.582 293.009H427.662Z" fill="#272D4E"/>
<path d="M584.792 293.009V159.162H671.844V179.487H609.038V215.825H667.335V236.15H609.038V272.683H672.367V293.009H584.792Z" fill="#272D4E"/>
<path d="M696.581 293.009V159.162H747.819C757.492 159.162 765.53 160.687 771.935 163.737C778.383 166.743 783.198 170.861 786.379 176.089C789.603 181.317 791.215 187.243 791.215 193.866C791.215 199.312 790.169 203.974 788.078 207.851C785.986 211.686 783.176 214.801 779.647 217.197C776.118 219.594 772.175 221.315 767.818 222.36V223.667C772.567 223.929 777.12 225.388 781.477 228.046C785.877 230.66 789.472 234.364 792.26 239.156C795.049 243.949 796.443 249.744 796.443 256.541C796.443 263.468 794.766 269.699 791.411 275.232C788.056 280.722 783.002 285.057 776.248 288.238C769.495 291.418 760.999 293.009 750.76 293.009H696.581ZM720.828 272.749H746.904C755.705 272.749 762.045 271.071 765.922 267.716C769.844 264.318 771.804 259.961 771.804 254.645C771.804 250.681 770.824 247.108 768.863 243.927C766.903 240.703 764.114 238.176 760.498 236.346C756.882 234.473 752.568 233.536 747.558 233.536H720.828V272.749ZM720.828 216.086H744.813C748.996 216.086 752.764 215.324 756.119 213.799C759.474 212.23 762.11 210.03 764.027 207.198C765.988 204.322 766.968 200.924 766.968 197.003C766.968 191.818 765.138 187.548 761.478 184.193C757.862 180.838 752.481 179.161 745.336 179.161H720.828V216.086Z" fill="#272D4E"/>
<path d="M424.131 103.581C424.406 103.554 425.032 103.543 425.641 103.428C434.36 101.798 437.954 91.8665 432.32 85.0034C431.332 83.803 430.307 82.6211 429.442 81.3363C427.499 78.4479 426.716 75.3147 428.005 71.9386C428.22 71.3782 428.81 70.7709 429.368 70.5582C432.69 69.29 435.805 69.9898 438.661 71.9115C440.141 72.9053 441.482 74.1057 442.897 75.1976C447.541 78.7722 454.168 78.2463 458.034 74.0077C462.041 69.6137 462.057 62.9768 458.072 58.7379C453.942 54.3495 447.456 53.8567 442.769 57.5809C441.643 58.4766 440.568 59.4376 439.407 60.2815C435.75 62.941 431.874 63.6679 427.714 61.4603C427.233 61.2044 426.751 60.9513 426.25 60.7362C422.57 59.1626 418.486 61.3542 417.771 65.2882C417.501 66.7635 417.831 68.1328 418.511 69.4559C419.604 71.5823 420.6 73.7709 420.14 76.2481C419.139 81.652 415.771 85.2401 411.057 87.6766C408.317 89.0953 405.458 89.1575 402.612 87.8807C401.832 87.5299 401.073 87.1353 400.295 86.7814C397.109 85.3357 393.357 86.8604 392.084 90.1051C390.789 93.4103 392.555 97.0934 395.931 98.1773C397.947 98.8253 399.756 98.2858 401.519 97.3197C405.58 95.0873 409.449 95.615 413.124 98.2205C414.327 99.0725 415.442 100.053 416.587 100.981C418.69 102.688 421.068 103.603 424.131 103.581ZM500.881 101.068C500.856 101.457 500.84 101.844 500.804 102.233C500.783 102.465 500.748 102.696 500.688 102.922C499.493 107.474 496.65 110.727 492.667 113.066C489.452 114.955 486.144 115.162 482.757 113.518C481.955 113.128 481.166 112.685 480.322 112.41C477.033 111.331 473.502 113.224 472.574 116.518C471.617 119.904 473.641 123.321 477.058 124.16C479.024 124.644 480.73 123.996 482.409 123.098C485.902 121.225 489.376 121.331 492.709 123.422C494.314 124.429 495.78 125.665 497.266 126.852C499.412 128.564 501.838 129.569 504.575 129.463C509.249 129.277 512.794 127.102 514.703 122.793C516.652 118.399 515.854 114.299 512.791 110.599C511.654 109.227 510.541 107.812 509.597 106.303C508.232 104.122 507.635 101.686 508.297 99.1545C508.694 97.6323 509.467 96.2063 510.057 94.7334C511.025 92.316 510.767 90.0509 508.993 88.1094C507.263 86.2204 505.062 85.5749 502.622 86.3949C500.168 87.2192 498.566 88.9701 498.476 91.6187C498.433 92.9091 498.835 94.292 499.336 95.5121C500.073 97.3111 500.949 99.0454 500.881 101.068ZM515.713 11.8967C515.705 6.80859 513.142 2.74951 508.977 1.00175C504.594 -0.83858 500.549 -0.117152 496.906 2.95097C495.807 3.87658 494.703 4.81036 493.514 5.61073C489.977 7.99824 486.267 8.44201 482.392 6.40569C481.843 6.11709 481.285 5.83125 480.709 5.60528C477.447 4.32577 473.763 6.03542 472.656 9.32679C471.527 12.6753 473.464 16.2634 476.9 17.2026C478.614 17.6708 480.195 17.3197 481.726 16.5002C483.921 15.3269 486.212 14.4748 488.759 15.0111C493.707 16.0565 497.089 19.1519 499.504 23.4341C501.275 26.573 501.346 29.7881 499.752 33.036C499.357 33.8364 498.911 34.6313 498.664 35.4806C497.959 37.8818 498.449 40.0624 500.317 41.7612C502.246 43.5144 504.526 43.9309 506.926 42.8638C509.257 41.8265 510.639 39.9562 510.514 37.37C510.451 36.0687 509.981 34.7075 509.388 33.526C507.513 29.7827 507.598 26.1783 509.885 22.6882C510.799 21.2971 511.855 19.9876 512.933 18.7135C514.747 16.5683 515.639 14.1127 515.713 11.8967ZM489.471 37.0896C489.406 36.5125 489.381 35.7284 489.224 34.9716C487.423 26.3743 477.452 23.0231 470.706 28.7156C469.373 29.8399 468.006 30.9615 466.532 31.8817C463.339 33.8718 459.973 34.1385 456.535 32.448C455.942 32.1567 455.354 31.849 454.75 31.5822C452.383 30.5369 450.169 30.8444 448.218 32.5078C446.295 34.1494 445.656 36.3083 446.311 38.7257C446.997 41.2494 448.738 42.7113 451.328 43.1714C453.05 43.4763 454.543 42.8474 455.993 42.0688C459.516 40.1795 462.979 40.2911 466.429 42.2812C469.514 44.0643 471.867 46.5362 473.467 49.7051C474.833 52.4139 475.034 55.2098 473.834 58.041C473.456 58.9339 472.963 59.7806 472.599 60.679C471.636 63.0526 471.941 65.2715 473.654 67.1963C475.376 69.1291 477.585 69.6926 480.018 68.9442C482.46 68.1926 483.875 66.4534 484.253 63.8862C484.515 62.1192 483.827 60.6137 483.048 59.1218C481.242 55.6562 481.343 52.2124 483.388 48.9156C484.387 47.3067 485.624 45.8366 486.819 44.3584C488.492 42.2839 489.37 39.9345 489.471 37.0896ZM401.141 28.5386C401.132 25.9278 401.998 23.5458 404.334 20.7118C407.09 17.3687 410.431 14.924 415.007 14.875C417.221 14.8532 419.101 15.9313 421.038 16.8433C423.628 18.0629 426.642 17.2816 428.375 15.0465C430.114 12.8087 430.1 9.71064 428.348 7.47012C426.659 5.31127 423.655 4.57351 421.084 5.69785C420.124 6.11709 419.194 6.61254 418.222 7.00459C415.88 7.952 413.437 8.07993 411.201 6.95015C409.144 5.91019 407.183 4.59256 405.401 3.1252C402.392 0.647837 399.098 -0.536398 395.248 0.283038C386.953 2.04441 383.537 11.8259 388.877 18.4304C389.756 19.5194 390.697 20.562 391.516 21.6945C394.198 25.4051 394.854 29.3254 392.604 33.5042C392.345 33.9834 392.095 34.4707 391.894 34.9743C390.92 37.4163 391.589 40.2095 393.534 41.8919C395.547 43.6369 398.374 43.8846 400.703 42.5207C403.529 40.8628 404.479 37.3836 402.898 34.2747C401.97 32.4561 401.143 30.6294 401.141 28.5386ZM398.717 107.011C390.819 106.573 384.987 113.545 386.545 120.495C388.444 128.965 398.325 132.286 404.949 126.689C405.839 125.937 406.715 125.161 407.656 124.475C410.344 122.512 413.263 121.173 416.672 122.036C418.195 122.423 419.613 123.217 421.087 123.806C423.462 124.75 425.698 124.481 427.613 122.771C429.485 121.1 430.124 118.949 429.414 116.526C428.693 114.065 427.001 112.622 424.455 112.173C422.825 111.887 421.392 112.391 420.002 113.15C417.521 114.508 414.912 115.042 412.139 114.266C409.563 113.545 407.479 111.979 405.534 110.226C403.344 108.25 400.836 107.093 398.717 107.011ZM444.488 96.636C444.499 101.507 448.474 105.451 453.344 105.421C458.159 105.394 462.043 101.457 462.043 96.6119C462.043 91.7247 458.115 87.8185 453.205 87.8154C448.447 87.8154 444.478 91.8339 444.488 96.636ZM448.931 118.173C448.909 114.966 446.216 112.312 443.017 112.341C439.877 112.372 437.244 115.042 437.244 118.195C437.244 121.44 439.88 124.083 443.093 124.061C446.327 124.042 448.953 121.393 448.931 118.173ZM484.014 97.1452C484.019 93.9547 481.454 91.3302 478.279 91.2784C475.113 91.2266 472.362 93.919 472.332 97.099C472.302 100.276 475.001 103.007 478.176 103.015C481.391 103.023 484.006 100.393 484.014 97.1452ZM465.088 11.4421C465.104 8.15613 462.55 5.55084 459.307 5.5454C456.04 5.53995 453.436 8.12623 453.436 11.374C453.436 14.5809 455.996 17.1808 459.176 17.2026C462.476 17.2217 465.074 14.6926 465.088 11.4421ZM498.674 72.5434C498.677 75.8129 501.259 78.3905 504.515 78.377C507.671 78.3634 510.307 75.7364 510.335 72.5841C510.362 69.3714 507.723 66.7117 504.496 66.7037C501.213 66.6957 498.672 69.2407 498.674 72.5434ZM416.938 31.4352C413.726 31.4488 411.095 34.1141 411.117 37.3292C411.138 40.4898 413.755 43.1006 416.925 43.1196C420.159 43.1387 422.793 40.5252 422.801 37.2883C422.809 34.0732 420.154 31.4243 416.938 31.4352ZM397.465 66.7006C394.239 66.7253 391.57 69.4232 391.635 72.5977C391.701 75.8153 394.378 78.4041 397.601 78.3714C400.746 78.3394 403.352 75.6902 403.358 72.5212C403.361 69.3147 400.695 66.679 397.465 66.7006ZM478.198 75.1242C475.923 75.1347 474.038 77.0212 474.049 79.2783C474.06 81.4806 475.923 83.3591 478.135 83.3918C480.453 83.4269 482.354 81.5028 482.319 79.1587C482.284 76.9343 480.426 75.1131 478.198 75.1242ZM439.094 37.3019C439.083 35.0424 437.17 33.1203 434.94 33.1313C432.698 33.1422 430.785 35.0832 430.813 37.3237C430.84 39.5697 432.793 41.4781 435.018 41.4345C437.211 41.391 439.105 39.4689 439.094 37.3019ZM504.423 58.7325C506.743 58.7489 508.561 56.9793 508.615 54.6517C508.667 52.4084 506.774 50.5245 504.469 50.5218C502.151 50.5218 500.336 52.3431 500.348 54.6625C500.359 56.9112 502.168 58.7189 504.423 58.7325ZM437.274 11.4094C437.287 13.718 439.132 15.5393 441.425 15.512C443.705 15.4875 445.514 13.6063 445.481 11.295C445.449 9.04911 443.626 7.26051 441.368 7.26322C439.042 7.26593 437.257 9.07358 437.274 11.4094ZM465.088 118.206C465.08 115.864 463.297 114.095 460.958 114.106C458.665 114.114 456.834 115.981 456.869 118.271C456.905 120.528 458.714 122.319 460.963 122.327C463.276 122.335 465.096 120.517 465.088 118.206ZM393.412 54.589C393.401 56.9384 395.167 58.7298 397.501 58.7325C399.824 58.7352 401.625 56.9303 401.617 54.6054C401.609 52.3186 399.87 50.5599 397.577 50.5245C395.237 50.4864 393.423 52.256 393.412 54.589Z" fill="#272D4E"/>
</svg>
