<svg width="57" height="52" viewBox="0 0 57 52" fill="none" xmlns="http://www.w3.org/2000/svg">
<path d="M55.6972 38.5635L35.8873 4.25121C32.6516 -1.41707 24.4693 -1.41707 21.2453 4.25121L1.42376 38.5635C-1.81193 44.2318 2.21522 51.2735 8.74479 51.2735H48.3063C54.8359 51.2735 58.9329 44.1619 55.6972 38.5635ZM28.5547 43.6614C26.8321 43.6614 25.4004 42.2298 25.4004 40.5072C25.4004 38.7846 26.8321 37.353 28.5547 37.353C30.2773 37.353 31.7089 38.7846 31.639 40.5887C31.7205 42.2298 30.2074 43.6614 28.5547 43.6614ZM31.4295 23.2696C31.2899 25.7138 31.1386 28.1464 30.9989 30.5906C30.9291 31.3821 30.9291 32.1037 30.9291 32.8836C30.8592 34.1755 29.8466 35.1765 28.5547 35.1765C27.2627 35.1765 26.2617 34.2453 26.1803 32.9534C25.9708 29.1474 25.7496 25.4112 25.5401 21.6052C25.4703 20.6042 25.4004 19.5916 25.319 18.5907C25.319 16.9379 26.2501 15.5761 27.7632 15.1455C29.2763 14.7847 30.7777 15.5063 31.4295 16.9379C31.6507 17.4384 31.7205 17.9389 31.7205 18.5208C31.6507 20.1154 31.4994 21.6983 31.4295 23.2696Z" fill="#272D4E"/>
</svg>
