<svg width="70" height="59" viewBox="0 0 70 59" fill="none" xmlns="http://www.w3.org/2000/svg">
<path d="M68.0364 0.00147155L53.6569 0.646885C53.4285 0.658813 53.2085 0.735665 53.0233 0.868205C52.838 1.00075 52.6954 1.18333 52.6127 1.39403C52.5299 1.60472 52.5105 1.83455 52.5567 2.0559C52.6029 2.27725 52.7128 2.4807 52.8732 2.6418L55.7586 5.49335L25.3255 27.7895L11.7891 11.3607C11.6883 11.2376 11.5632 11.1358 11.4215 11.0617C11.2798 10.9876 11.1244 10.9426 10.9646 10.9294C10.8049 10.9163 10.644 10.9352 10.4919 10.9852C10.3397 11.0351 10.1994 11.1149 10.0793 11.2199L0.68692 19.4343C0.560261 19.5443 0.45875 19.6796 0.38914 19.8314C0.31953 19.9831 0.283417 20.1478 0.283203 20.3144V29.7022C0.283492 29.9277 0.349527 30.1484 0.473406 30.3378C0.597284 30.5272 0.773759 30.6773 0.981711 30.7701C1.18966 30.863 1.42028 30.8947 1.64597 30.8614C1.87166 30.8281 2.08286 30.7312 2.25429 30.5823L10.7323 23.1777L24.1381 39.5712C24.3334 39.8062 24.6134 39.9572 24.919 39.9922C25.2247 40.0272 25.5322 39.9436 25.7767 39.7589L62.6812 12.3817L66.5759 16.2307C66.7383 16.393 66.9452 16.505 67.1711 16.5528C67.3969 16.6007 67.632 16.5824 67.8476 16.5002C68.0631 16.418 68.2497 16.2754 68.3844 16.09C68.5192 15.9046 68.5963 15.6843 68.6063 15.4562L69.2831 1.18669C69.285 1.02653 69.2536 0.867708 69.191 0.719988C69.1283 0.572269 69.0358 0.438784 68.919 0.327752C68.8022 0.21672 68.6636 0.130492 68.5118 0.0743787C68.36 0.0182651 68.1982 -0.00654671 68.0364 0.00147155Z" fill="#272D4E"/>
<path d="M11.061 35H2.50543C1.83041 35 1.2832 35.5373 1.2832 36.2V57.8C1.2832 58.4627 1.83041 59 2.50543 59H11.061C11.736 59 12.2832 58.4627 12.2832 57.8V36.2C12.2832 35.5373 11.736 35 11.061 35Z" fill="#272D4E"/>
<path d="M30.061 45H21.5054C20.8304 45 20.2832 45.5223 20.2832 46.1667V57.8333C20.2832 58.4777 20.8304 59 21.5054 59H30.061C30.736 59 31.2832 58.4777 31.2832 57.8333V46.1667C31.2832 45.5223 30.736 45 30.061 45Z" fill="#272D4E"/>
<path d="M49.061 35H40.5054C39.8304 35 39.2832 35.5373 39.2832 36.2V57.8C39.2832 58.4627 39.8304 59 40.5054 59H49.061C49.736 59 50.2832 58.4627 50.2832 57.8V36.2C50.2832 35.5373 49.736 35 49.061 35Z" fill="#272D4E"/>
<path d="M67.061 22H58.5054C57.8304 22 57.2832 22.5344 57.2832 23.1935V57.8065C57.2832 58.4656 57.8304 59 58.5054 59H67.061C67.736 59 68.2832 58.4656 68.2832 57.8065V23.1935C68.2832 22.5344 67.736 22 67.061 22Z" fill="#272D4E"/>
</svg>
