<svg width="44" height="72" viewBox="0 0 44 72" fill="none" xmlns="http://www.w3.org/2000/svg">
<path d="M40.3833 49.6519H32.6101V45.7258C29.3184 47.2638 25.6497 48.125 21.7831 48.125C17.9165 48.125 14.2478 47.2638 10.9562 45.7258V49.6519H3.18296C2.33651 49.6519 1.57432 50.1642 1.25479 50.948C0.935251 51.7319 1.12222 52.6311 1.72742 53.2228L20.3276 71.4066C20.7321 71.8022 21.2576 71.9998 21.783 71.9998C22.3084 71.9998 22.8339 71.802 23.2384 71.4066L41.8386 53.2228C42.4438 52.6311 42.6307 51.732 42.3112 50.948C41.9918 50.1643 41.2296 49.6519 40.3833 49.6519Z" fill="#272D4E"/>
<path d="M21.7832 43.9608C33.6383 43.9608 43.2832 34.3161 43.2832 22.4608C43.2832 10.6055 33.6383 0.960938 21.7832 0.960938C9.92809 0.960938 0.283203 10.6057 0.283203 22.4609C0.283203 34.3162 9.92795 43.9608 21.7832 43.9608ZM17.1576 13.2816C17.8479 12.7536 18.6717 12.3692 19.5716 12.1414V10.6801C19.5716 9.53021 20.5038 8.59798 21.6537 8.59798C22.8036 8.59798 23.7358 9.53021 23.7358 10.6801V12.2007C26.3064 12.9125 28.5038 14.871 28.5038 17.9206C28.5038 19.0704 27.5716 20.0027 26.4217 20.0027C25.2718 20.0027 24.3396 19.0704 24.3396 17.9206C24.3396 16.5766 22.6242 16.0682 21.5431 16.0634C20.8085 16.0555 19.0912 16.2379 19.0758 17.9566C19.0679 18.8381 19.4253 19.3579 21.5808 20.1545C21.8301 20.2467 22.0815 20.3359 22.3336 20.4246C23.6943 20.9041 25.0746 21.3714 26.2545 22.2196C27.8142 23.3408 28.6722 25.0126 28.6549 26.9393C28.6379 28.835 27.8402 30.4819 26.4087 31.577C25.7188 32.1047 24.8944 32.4905 23.9948 32.7187V34.2421C23.9948 35.3919 23.0626 36.3242 21.9127 36.3242C20.7628 36.3242 19.8306 35.3919 19.8306 34.2421V32.658C17.2599 31.9463 15.0624 29.9878 15.0624 26.9382C15.0624 25.7883 15.9947 24.8561 17.1445 24.8561C18.2944 24.8561 19.2267 25.7883 19.2267 26.9382C19.2267 28.282 20.9419 28.7906 22.0232 28.7953C22.0297 28.7954 22.0364 28.7954 22.043 28.7954C22.1663 28.7954 22.2896 28.7904 22.4124 28.78C23.0973 28.722 23.8489 28.4916 24.2327 27.8765C24.7955 26.9747 24.4186 25.919 23.5538 25.4075C22.6185 24.8544 21.5439 24.5612 20.527 24.2016C18.6918 23.5535 14.8734 22.2047 14.9117 17.9194C14.9286 16.0236 15.7262 14.3765 17.1576 13.2816Z" fill="#272D4E"/>
</svg>
