<svg width="75" height="45" viewBox="0 0 75 45" fill="none" xmlns="http://www.w3.org/2000/svg">
<path d="M1.62306 35.7356H1.65484C1.98608 35.7312 2.30365 35.6028 2.54489 35.3758C2.78614 35.1487 2.93354 34.8396 2.95803 34.5092C3.2999 30.7328 4.4122 27.0665 6.22628 23.7368C8.04036 20.407 10.5177 17.4844 13.5054 15.1495L10.0977 11.7432C4.33656 17.9278 0.872799 25.9025 0.285438 34.3344C0.274887 34.5158 0.301775 34.6974 0.364428 34.8679C0.427081 35.0385 0.52416 35.1943 0.649626 35.3258C0.775091 35.4572 0.926258 35.5614 1.09372 35.6319C1.26119 35.7024 1.44137 35.7377 1.62306 35.7356Z" fill="#272D4E"/>
<path d="M30.0084 39.6994C31.1056 39.6994 31.995 38.81 31.995 37.7129C31.995 36.6157 31.1056 35.7263 30.0084 35.7263C28.9113 35.7263 28.0219 36.6157 28.0219 37.7129C28.0219 38.81 28.9113 39.6994 30.0084 39.6994Z" fill="#272D4E"/>
<path d="M35.9681 9.74476V0C27.0402 0.28603 18.5174 3.79355 11.9744 9.87455L15.7051 13.6C20.1742 10.7458 25.3678 9.23231 30.6706 9.23885C32.4484 9.24007 34.2222 9.40946 35.9681 9.74476Z" fill="#272D4E"/>
<path d="M38.6168 0V10.3897C39.595 10.6818 40.5562 11.028 41.496 11.4267C42.2483 10.6877 42.9939 9.95798 43.7196 9.25077C44.2613 8.71544 44.9688 8.38009 45.7261 8.29972C46.4834 8.21934 47.2455 8.39872 47.8875 8.80842C48.5298 9.19131 49.023 9.78117 49.286 10.4812C49.549 11.1812 49.5663 11.9499 49.335 12.661C49.0476 13.5709 48.7298 14.5642 48.4 15.5919C49.9489 16.8691 51.3548 18.3105 52.593 19.8908L62.6158 9.87455C56.0718 3.79175 47.5467 0.284048 38.6168 0Z" fill="#272D4E"/>
<path d="M64.4872 11.7432L54.1398 22.0852C56.52 25.8196 57.9731 30.0688 58.3778 34.4787C58.4022 34.8111 58.5509 35.1221 58.7944 35.3497C59.038 35.5773 59.3583 35.7046 59.6916 35.7064L72.9566 35.7263C73.1371 35.7266 73.3159 35.69 73.4818 35.6187C73.6477 35.5473 73.7972 35.4429 73.9213 35.3116C74.0453 35.1804 74.1412 35.0252 74.2031 34.8555C74.2649 34.6859 74.2914 34.5054 74.2809 34.3251C73.7021 25.8975 70.2444 17.9249 64.4872 11.7432Z" fill="#272D4E"/>
<path d="M46.4903 11.0611C46.3616 10.9796 46.2135 10.9339 46.0612 10.9287C45.9691 10.9292 45.8781 10.9483 45.7937 10.985C45.7092 11.0216 45.6331 11.075 45.5698 11.1419C33.6028 22.7964 25.8459 31.1122 23.7256 34.5662C23.2582 35.314 22.9455 36.148 22.8061 37.0188C22.6666 37.8896 22.7032 38.7795 22.9137 39.6359C23.1322 40.5339 23.5284 41.3791 24.0788 42.1216C24.6293 42.864 25.3229 43.4887 26.1187 43.9586C27.6898 44.9233 29.577 45.232 31.3735 44.8183C33.1701 44.4046 34.7322 43.3016 35.7231 41.7469C38.6169 37.0851 43.9051 21.0258 46.8055 11.8597C46.8564 11.7109 46.8526 11.5488 46.7948 11.4024C46.7371 11.2561 46.6291 11.1351 46.4903 11.0611ZM30.0084 42.3482C29.0916 42.3482 28.1955 42.0764 27.4332 41.567C26.6709 41.0577 26.0768 40.3337 25.726 39.4867C25.3751 38.6398 25.2833 37.7077 25.4622 36.8086C25.641 35.9094 26.0825 35.0835 26.7308 34.4352C27.379 33.787 28.205 33.3455 29.1041 33.1666C30.0033 32.9878 30.9353 33.0796 31.7823 33.4304C32.6293 33.7813 33.3532 34.3754 33.8625 35.1376C34.3719 35.8999 34.6437 36.7961 34.6437 37.7129C34.6437 38.9423 34.1554 40.1213 33.2861 40.9906C32.4168 41.8598 31.2378 42.3482 30.0084 42.3482Z" fill="#272D4E"/>
</svg>
