<svg width="647" height="601" viewBox="0 0 647 601" fill="none" xmlns="http://www.w3.org/2000/svg">
<path d="M71.0153 76.3689C69.0543 76.3689 67.4323 75.7214 66.1496 74.4263C64.8792 73.1313 64.244 71.5402 64.244 69.6531C64.244 67.766 64.8792 66.1749 66.1496 64.8799C67.4323 63.5848 69.0543 62.9373 71.0153 62.9373C72.1994 62.9373 73.2848 63.221 74.2715 63.7883C75.2706 64.3557 76.0476 65.1204 76.6026 66.0824L75.104 66.952C74.734 66.2366 74.179 65.6692 73.439 65.2499C72.7113 64.8182 71.9034 64.6024 71.0153 64.6024C69.5229 64.6024 68.3019 65.0834 67.3522 66.0454C66.4148 67.0075 65.9461 68.21 65.9461 69.6531C65.9461 71.0838 66.4148 72.2802 67.3522 73.2423C68.3019 74.2043 69.5229 74.6853 71.0153 74.6853C71.9034 74.6853 72.7113 74.4757 73.439 74.0563C74.179 73.6246 74.734 73.0573 75.104 72.3542L76.6026 73.2053C76.0599 74.1673 75.2891 74.9382 74.29 75.5179C73.291 76.0852 72.1994 76.3689 71.0153 76.3689ZM85.1178 66.878H86.7274V76.1284H85.1178V74.7964C84.4641 75.8447 83.465 76.3689 82.1206 76.3689C81.0353 76.3689 80.1657 76.0297 79.512 75.3514C78.8583 74.6607 78.5315 73.7295 78.5315 72.5577V66.878H80.1411V72.4652C80.1411 73.2176 80.3446 73.8035 80.7516 74.2228C81.1586 74.6298 81.7198 74.8334 82.4352 74.8334C83.2369 74.8334 83.8844 74.5867 84.3778 74.0933C84.8711 73.5876 85.1178 72.8168 85.1178 71.7807V66.878ZM91.0835 68.432C91.6138 67.285 92.5759 66.7115 93.9696 66.7115V68.395C93.1802 68.358 92.5019 68.5677 91.9345 69.0241C91.3671 69.4804 91.0835 70.2143 91.0835 71.2257V76.1284H89.4739V66.878H91.0835V68.432ZM97.4501 68.432C97.9804 67.285 98.9425 66.7115 100.336 66.7115V68.395C99.5468 68.358 98.8685 68.5677 98.3011 69.0241C97.7338 69.4804 97.4501 70.2143 97.4501 71.2257V76.1284H95.8405V66.878H97.4501V68.432ZM102.83 72.2432C102.99 73.0696 103.366 73.711 103.958 74.1673C104.563 74.6237 105.303 74.8519 106.178 74.8519C107.4 74.8519 108.288 74.4017 108.843 73.5013L110.212 74.2783C109.311 75.6721 107.955 76.3689 106.141 76.3689C104.674 76.3689 103.477 75.9126 102.552 74.9999C101.64 74.0748 101.183 72.9093 101.183 71.5032C101.183 70.1095 101.633 68.9501 102.534 68.025C103.434 67.1 104.6 66.6375 106.03 66.6375C107.387 66.6375 108.491 67.1185 109.342 68.0805C110.205 69.0302 110.637 70.1773 110.637 71.5217C110.637 71.756 110.619 71.9966 110.582 72.2432H102.83ZM106.03 68.1545C105.167 68.1545 104.452 68.4012 103.884 68.8946C103.317 69.3756 102.965 70.0231 102.83 70.8372H109.009C108.873 69.9615 108.528 69.2954 107.973 68.8391C107.418 68.3827 106.77 68.1545 106.03 68.1545ZM117.39 66.6375C118.476 66.6375 119.345 66.9828 119.999 67.6735C120.652 68.3519 120.979 69.2769 120.979 70.4486V76.1284H119.37V70.5411C119.37 69.7888 119.166 69.2091 118.759 68.8021C118.352 68.3827 117.791 68.173 117.076 68.173C116.274 68.173 115.626 68.4259 115.133 68.9316C114.64 69.4249 114.393 70.1896 114.393 71.2257V76.1284H112.783V66.878H114.393V68.21C115.047 67.1617 116.046 66.6375 117.39 66.6375ZM128.555 68.432H126.094V73.4458C126.094 73.9021 126.18 74.229 126.353 74.4263C126.538 74.6113 126.815 74.71 127.185 74.7224C127.556 74.7224 128.012 74.71 128.555 74.6853V76.1284C127.148 76.3134 126.119 76.2024 125.465 75.7954C124.811 75.376 124.484 74.5928 124.484 73.4458V68.432H122.653V66.878H124.484V64.7689L126.094 64.2878V66.878H128.555V68.432ZM140.597 63.1778C141.794 63.1778 142.787 63.5786 143.576 64.3804C144.378 65.1697 144.779 66.1564 144.779 67.3405C144.779 68.5122 144.378 69.4989 143.576 70.3006C142.787 71.1023 141.794 71.5032 140.597 71.5032H137.619V76.1284H135.898V63.1778H140.597ZM140.597 69.8936C141.313 69.8936 141.905 69.6531 142.373 69.1721C142.842 68.6787 143.076 68.0682 143.076 67.3405C143.076 66.6005 142.842 65.9899 142.373 65.5089C141.905 65.0279 141.313 64.7874 140.597 64.7874H137.619V69.8936H140.597ZM154.043 74.9629C153.093 75.9002 151.94 76.3689 150.583 76.3689C149.227 76.3689 148.073 75.9002 147.124 74.9629C146.186 74.0255 145.718 72.8723 145.718 71.5032C145.718 70.1341 146.186 68.9809 147.124 68.0435C148.073 67.1062 149.227 66.6375 150.583 66.6375C151.94 66.6375 153.093 67.1062 154.043 68.0435C154.993 68.9809 155.468 70.1341 155.468 71.5032C155.468 72.8723 154.993 74.0255 154.043 74.9629ZM150.583 74.7964C151.508 74.7964 152.285 74.4818 152.914 73.8528C153.543 73.2238 153.858 72.4406 153.858 71.5032C153.858 70.5658 153.543 69.7826 152.914 69.1536C152.285 68.5246 151.508 68.21 150.583 68.21C149.671 68.21 148.9 68.5246 148.271 69.1536C147.642 69.7826 147.327 70.5658 147.327 71.5032C147.327 72.4406 147.642 73.2238 148.271 73.8528C148.9 74.4818 149.671 74.7964 150.583 74.7964ZM159.271 68.432C159.801 67.285 160.763 66.7115 162.157 66.7115V68.395C161.367 68.358 160.689 68.5677 160.122 69.0241C159.554 69.4804 159.271 70.2143 159.271 71.2257V76.1284H157.661V66.878H159.271V68.432ZM169.277 68.432H166.816V73.4458C166.816 73.9021 166.902 74.229 167.075 74.4263C167.26 74.6113 167.538 74.71 167.908 74.7224C168.278 74.7224 168.734 74.71 169.277 74.6853V76.1284C167.871 76.3134 166.841 76.2024 166.187 75.7954C165.533 75.376 165.207 74.5928 165.207 73.4458V68.432H163.375V66.878H165.207V64.7689L166.816 64.2878V66.878H169.277V68.432ZM175.763 64.4914C174.135 64.3557 173.321 65.0587 173.321 66.6005V66.878H175.763V68.432H173.321V76.1284H171.712V68.432H170.232V66.878H171.712V66.6005C171.712 65.3547 172.057 64.4112 172.748 63.7698C173.451 63.1285 174.456 62.8509 175.763 62.9373V64.4914ZM184.586 74.9629C183.637 75.9002 182.483 76.3689 181.127 76.3689C179.77 76.3689 178.617 75.9002 177.667 74.9629C176.73 74.0255 176.261 72.8723 176.261 71.5032C176.261 70.1341 176.73 68.9809 177.667 68.0435C178.617 67.1062 179.77 66.6375 181.127 66.6375C182.483 66.6375 183.637 67.1062 184.586 68.0435C185.536 68.9809 186.011 70.1341 186.011 71.5032C186.011 72.8723 185.536 74.0255 184.586 74.9629ZM181.127 74.7964C182.052 74.7964 182.829 74.4818 183.458 73.8528C184.087 73.2238 184.401 72.4406 184.401 71.5032C184.401 70.5658 184.087 69.7826 183.458 69.1536C182.829 68.5246 182.052 68.21 181.127 68.21C180.214 68.21 179.443 68.5246 178.814 69.1536C178.185 69.7826 177.871 70.5658 177.871 71.5032C177.871 72.4406 178.185 73.2238 178.814 73.8528C179.443 74.4818 180.214 74.7964 181.127 74.7964ZM188.204 76.1284V62.6228H189.814V76.1284H188.204ZM193.38 65.1944C193.071 65.1944 192.812 65.0896 192.603 64.8799C192.393 64.6702 192.288 64.4174 192.288 64.1213C192.288 63.8253 192.393 63.5725 192.603 63.3628C192.812 63.1408 193.071 63.0298 193.38 63.0298C193.676 63.0298 193.929 63.1408 194.138 63.3628C194.348 63.5725 194.453 63.8253 194.453 64.1213C194.453 64.4174 194.348 64.6702 194.138 64.8799C193.929 65.0896 193.676 65.1944 193.38 65.1944ZM192.566 76.1284V66.878H194.175V76.1284H192.566ZM204.734 74.9629C203.784 75.9002 202.631 76.3689 201.274 76.3689C199.918 76.3689 198.765 75.9002 197.815 74.9629C196.877 74.0255 196.409 72.8723 196.409 71.5032C196.409 70.1341 196.877 68.9809 197.815 68.0435C198.765 67.1062 199.918 66.6375 201.274 66.6375C202.631 66.6375 203.784 67.1062 204.734 68.0435C205.684 68.9809 206.159 70.1341 206.159 71.5032C206.159 72.8723 205.684 74.0255 204.734 74.9629ZM201.274 74.7964C202.2 74.7964 202.977 74.4818 203.606 73.8528C204.235 73.2238 204.549 72.4406 204.549 71.5032C204.549 70.5658 204.235 69.7826 203.606 69.1536C202.977 68.5246 202.2 68.21 201.274 68.21C200.362 68.21 199.591 68.5246 198.962 69.1536C198.333 69.7826 198.018 70.5658 198.018 71.5032C198.018 72.4406 198.333 73.2238 198.962 73.8528C199.591 74.4818 200.362 74.7964 201.274 74.7964ZM221.969 76.1284L220.914 73.2238H215.087L214.032 76.1284H212.2L217.029 63.1778H218.972L223.8 76.1284H221.969ZM215.679 71.6142H220.322L217.991 65.2314L215.679 71.6142ZM225.458 76.1284V62.6228H227.067V76.1284H225.458ZM229.819 76.1284V62.6228H231.428V76.1284H229.819ZM241.987 74.9629C241.038 75.9002 239.884 76.3689 238.528 76.3689C237.171 76.3689 236.018 75.9002 235.068 74.9629C234.131 74.0255 233.662 72.8723 233.662 71.5032C233.662 70.1341 234.131 68.9809 235.068 68.0435C236.018 67.1062 237.171 66.6375 238.528 66.6375C239.884 66.6375 241.038 67.1062 241.987 68.0435C242.937 68.9809 243.412 70.1341 243.412 71.5032C243.412 72.8723 242.937 74.0255 241.987 74.9629ZM238.528 74.7964C239.453 74.7964 240.23 74.4818 240.859 73.8528C241.488 73.2238 241.802 72.4406 241.802 71.5032C241.802 70.5658 241.488 69.7826 240.859 69.1536C240.23 68.5246 239.453 68.21 238.528 68.21C237.615 68.21 236.844 68.5246 236.215 69.1536C235.586 69.7826 235.272 70.5658 235.272 71.5032C235.272 72.4406 235.586 73.2238 236.215 73.8528C236.844 74.4818 237.615 74.7964 238.528 74.7964ZM249.953 76.3689C248.559 76.3689 247.4 75.9064 246.475 74.9814C245.55 74.044 245.087 72.8846 245.087 71.5032C245.087 70.1218 245.55 68.9686 246.475 68.0435C247.4 67.1062 248.559 66.6375 249.953 66.6375C250.866 66.6375 251.686 66.8595 252.414 67.3035C253.142 67.7352 253.684 68.321 254.042 69.0611L252.691 69.8381C252.457 69.3448 252.093 68.9501 251.6 68.6541C251.119 68.358 250.57 68.21 249.953 68.21C249.028 68.21 248.251 68.5246 247.622 69.1536C247.005 69.7826 246.697 70.5658 246.697 71.5032C246.697 72.4282 247.005 73.2053 247.622 73.8343C248.251 74.4633 249.028 74.7779 249.953 74.7779C250.57 74.7779 251.125 74.636 251.618 74.3523C252.112 74.0563 252.488 73.6616 252.747 73.1683L254.116 73.9638C253.721 74.6915 253.154 75.2774 252.414 75.7214C251.674 76.1531 250.854 76.3689 249.953 76.3689ZM263.534 66.878H265.144V76.1284H263.534V74.5373C262.732 75.7584 261.567 76.3689 260.037 76.3689C258.742 76.3689 257.638 75.9002 256.726 74.9629C255.813 74.0131 255.357 72.8599 255.357 71.5032C255.357 70.1465 255.813 68.9994 256.726 68.062C257.638 67.1123 258.742 66.6375 260.037 66.6375C261.567 66.6375 262.732 67.248 263.534 68.469V66.878ZM260.241 74.8149C261.178 74.8149 261.961 74.5003 262.59 73.8713C263.22 73.2299 263.534 72.4406 263.534 71.5032C263.534 70.5658 263.22 69.7826 262.59 69.1536C261.961 68.5122 261.178 68.1915 260.241 68.1915C259.316 68.1915 258.539 68.5122 257.91 69.1536C257.281 69.7826 256.966 70.5658 256.966 71.5032C256.966 72.4406 257.281 73.2299 257.91 73.8713C258.539 74.5003 259.316 74.8149 260.241 74.8149ZM272.911 68.432H270.45V73.4458C270.45 73.9021 270.536 74.229 270.709 74.4263C270.894 74.6113 271.171 74.71 271.541 74.7224C271.911 74.7224 272.368 74.71 272.911 74.6853V76.1284C271.504 76.3134 270.475 76.2024 269.821 75.7954C269.167 75.376 268.84 74.5928 268.84 73.4458V68.432H267.009V66.878H268.84V64.7689L270.45 64.2878V66.878H272.911V68.432ZM275.926 65.1944C275.618 65.1944 275.359 65.0896 275.149 64.8799C274.939 64.6702 274.835 64.4174 274.835 64.1213C274.835 63.8253 274.939 63.5725 275.149 63.3628C275.359 63.1408 275.618 63.0298 275.926 63.0298C276.222 63.0298 276.475 63.1408 276.685 63.3628C276.894 63.5725 276.999 63.8253 276.999 64.1213C276.999 64.4174 276.894 64.6702 276.685 64.8799C276.475 65.0896 276.222 65.1944 275.926 65.1944ZM275.112 76.1284V66.878H276.722V76.1284H275.112ZM287.281 74.9629C286.331 75.9002 285.178 76.3689 283.821 76.3689C282.464 76.3689 281.311 75.9002 280.361 74.9629C279.424 74.0255 278.955 72.8723 278.955 71.5032C278.955 70.1341 279.424 68.9809 280.361 68.0435C281.311 67.1062 282.464 66.6375 283.821 66.6375C285.178 66.6375 286.331 67.1062 287.281 68.0435C288.23 68.9809 288.705 70.1341 288.705 71.5032C288.705 72.8723 288.23 74.0255 287.281 74.9629ZM283.821 74.7964C284.746 74.7964 285.523 74.4818 286.152 73.8528C286.781 73.2238 287.096 72.4406 287.096 71.5032C287.096 70.5658 286.781 69.7826 286.152 69.1536C285.523 68.5246 284.746 68.21 283.821 68.21C282.908 68.21 282.137 68.5246 281.508 69.1536C280.879 69.7826 280.565 70.5658 280.565 71.5032C280.565 72.4406 280.879 73.2238 281.508 73.8528C282.137 74.4818 282.908 74.7964 283.821 74.7964ZM295.505 66.6375C296.591 66.6375 297.46 66.9828 298.114 67.6735C298.768 68.3519 299.095 69.2769 299.095 70.4486V76.1284H297.485V70.5411C297.485 69.7888 297.282 69.2091 296.875 68.8021C296.467 68.3827 295.906 68.173 295.191 68.173C294.389 68.173 293.742 68.4259 293.248 68.9316C292.755 69.4249 292.508 70.1896 292.508 71.2257V76.1284H290.899V66.878H292.508V68.21C293.162 67.1617 294.161 66.6375 295.505 66.6375Z" fill="white"/>
<rect width="314.175" height="286.817" rx="17.6503" fill="white"/>
<path d="M45.688 78.8788V68.2068H35.886V61.3628H45.688V50.6908H53.112V61.3628H62.914V68.2068H53.112V78.8788H45.688ZM98.1553 82.5328H69.5033V74.5868L81.9733 63.9148C83.0947 62.9481 84.042 62.0781 84.8153 61.3048C85.5887 60.4928 86.2073 59.7194 86.6713 58.9848C87.174 58.2114 87.522 57.4574 87.7153 56.7228C87.9473 55.9881 88.0633 55.1954 88.0633 54.3448V53.5328C88.0633 52.7594 87.9087 52.0828 87.5993 51.5028C87.29 50.9228 86.884 50.4394 86.3813 50.0528C85.8787 49.6661 85.2987 49.3761 84.6413 49.1828C84.0227 48.9894 83.3847 48.8928 82.7273 48.8928C81.7607 48.8928 80.91 49.0474 80.1753 49.3568C79.4793 49.6661 78.8607 50.0914 78.3193 50.6328C77.8167 51.1354 77.3913 51.7348 77.0433 52.4308C76.6953 53.0881 76.4247 53.8034 76.2313 54.5768L68.6333 51.6768C69.0973 50.2848 69.7353 48.9701 70.5473 47.7328C71.3593 46.4568 72.3647 45.3548 73.5633 44.4268C74.8007 43.4601 76.2507 42.7061 77.9133 42.1648C79.576 41.6234 81.4513 41.3528 83.5393 41.3528C85.7433 41.3528 87.696 41.6621 89.3973 42.2808C91.0987 42.8994 92.5293 43.7501 93.6893 44.8328C94.888 45.9154 95.7967 47.2108 96.4153 48.7188C97.034 50.1881 97.3433 51.7928 97.3433 53.5328C97.3433 55.2728 97.0533 56.8581 96.4733 58.2888C95.8933 59.7194 95.1007 61.0728 94.0953 62.3488C93.1287 63.5861 91.988 64.7654 90.6733 65.8868C89.3587 67.0081 87.986 68.1488 86.5553 69.3088L79.0153 75.2248H98.1553V82.5328ZM117.795 83.2288C112.497 83.2288 108.573 81.3921 106.021 77.7188C103.469 74.0454 102.193 68.9028 102.193 62.2908C102.193 55.6788 103.469 50.5361 106.021 46.8628C108.573 43.1894 112.497 41.3528 117.795 41.3528C123.092 41.3528 127.017 43.1894 129.569 46.8628C132.121 50.5361 133.397 55.6788 133.397 62.2908C133.397 68.9028 132.121 74.0454 129.569 77.7188C127.017 81.3921 123.092 83.2288 117.795 83.2288ZM117.795 75.8628C120.115 75.8628 121.719 75.0121 122.609 73.3108C123.498 71.6094 123.943 69.2121 123.943 66.1188V58.4628C123.943 55.3694 123.498 52.9721 122.609 51.2708C121.719 49.5694 120.115 48.7188 117.795 48.7188C115.475 48.7188 113.87 49.5694 112.981 51.2708C112.091 52.9721 111.647 55.3694 111.647 58.4628V66.1188C111.647 69.2121 112.091 71.6094 112.981 73.3108C113.87 75.0121 115.475 75.8628 117.795 75.8628ZM144.974 82.5328L173.046 42.0488H180.702L152.63 82.5328H144.974ZM147.932 64.3208C144.529 64.3208 141.939 63.3541 140.16 61.4208C138.381 59.4874 137.492 56.6261 137.492 52.8368C137.492 49.0474 138.381 46.1861 140.16 44.2528C141.939 42.3194 144.529 41.3528 147.932 41.3528C151.335 41.3528 153.925 42.3194 155.704 44.2528C157.483 46.1861 158.372 49.0474 158.372 52.8368C158.372 56.6261 157.483 59.4874 155.704 61.4208C153.925 63.3541 151.335 64.3208 147.932 64.3208ZM147.932 59.3328C148.937 59.3328 149.691 58.9461 150.194 58.1728C150.697 57.3608 150.948 56.0848 150.948 54.3448V51.3288C150.948 49.5888 150.697 48.3321 150.194 47.5588C149.691 46.7468 148.937 46.3408 147.932 46.3408C146.927 46.3408 146.173 46.7468 145.67 47.5588C145.167 48.3321 144.916 49.5888 144.916 51.3288V54.3448C144.916 56.0848 145.167 57.3608 145.67 58.1728C146.173 58.9461 146.927 59.3328 147.932 59.3328ZM177.744 83.2288C174.341 83.2288 171.751 82.2621 169.972 80.3288C168.193 78.3954 167.304 75.5341 167.304 71.7448C167.304 67.9554 168.193 65.0941 169.972 63.1608C171.751 61.2274 174.341 60.2608 177.744 60.2608C181.147 60.2608 183.737 61.2274 185.516 63.1608C187.295 65.0941 188.184 67.9554 188.184 71.7448C188.184 75.5341 187.295 78.3954 185.516 80.3288C183.737 82.2621 181.147 83.2288 177.744 83.2288ZM177.744 78.2408C178.749 78.2408 179.503 77.8541 180.006 77.0808C180.509 76.2688 180.76 74.9928 180.76 73.2528V70.2368C180.76 68.4968 180.509 67.2401 180.006 66.4668C179.503 65.6548 178.749 65.2488 177.744 65.2488C176.739 65.2488 175.985 65.6548 175.482 66.4668C174.979 67.2401 174.728 68.4968 174.728 70.2368V73.2528C174.728 74.9928 174.979 76.2688 175.482 77.0808C175.985 77.8541 176.739 78.2408 177.744 78.2408Z" fill="#272D4E"/>
<path d="M174.484 172.828C176.557 172.828 178.26 173.401 179.594 174.547C180.938 175.693 181.609 177.156 181.609 178.938C181.609 178.958 181.609 178.984 181.609 179.016C181.609 180.068 181.427 181.052 181.062 181.969C180.698 182.875 180.135 183.807 179.375 184.766C178.625 185.714 177.245 187.109 175.234 188.953L172.297 191.719V191.938H182.25V196H166.281V192.641L172.016 186.844C173.714 185.115 174.823 183.911 175.344 183.234C175.865 182.557 176.24 181.938 176.469 181.375C176.698 180.802 176.812 180.203 176.812 179.578C176.812 178.682 176.562 178.005 176.062 177.547C175.573 177.089 174.896 176.859 174.031 176.859C172.458 176.859 170.729 177.641 168.844 179.203L166.219 176.094C167.365 175.125 168.297 174.448 169.016 174.062C170.547 173.24 172.333 172.828 174.375 172.828C174.417 172.828 174.453 172.828 174.484 172.828ZM184.438 184.469C184.438 180.521 185.083 177.589 186.375 175.672C187.677 173.755 189.661 172.797 192.328 172.797C195.005 172.797 197.021 173.797 198.375 175.797C199.729 177.797 200.406 180.76 200.406 184.688C200.406 188.604 199.75 191.521 198.438 193.438C197.135 195.354 195.146 196.312 192.469 196.312C189.792 196.312 187.781 195.323 186.438 193.344C185.104 191.365 184.438 188.406 184.438 184.469ZM194.828 178.547C194.328 177.318 193.51 176.703 192.375 176.703C191.25 176.703 190.443 177.318 189.953 178.547C189.474 179.776 189.234 181.792 189.234 184.594C189.234 187.396 189.474 189.401 189.953 190.609C190.443 191.818 191.255 192.422 192.391 192.422C193.526 192.422 194.344 191.807 194.844 190.578C195.344 189.339 195.594 187.328 195.594 184.547C195.594 181.755 195.339 179.755 194.828 178.547ZM207.938 172.828C209.698 172.828 211.047 173.448 211.984 174.688C212.932 175.917 213.406 177.703 213.406 180.047C213.406 182.38 212.943 184.151 212.016 185.359C211.099 186.568 209.755 187.172 207.984 187.172C206.224 187.172 204.875 186.552 203.938 185.312C203.01 184.073 202.547 182.292 202.547 179.969C202.547 175.208 204.344 172.828 207.938 172.828ZM211.484 196H207.734L220.406 173.156H224.156L211.484 196ZM207.969 176.094C207.448 176.094 207.068 176.411 206.828 177.047C206.599 177.682 206.484 178.667 206.484 180C206.484 181.333 206.599 182.323 206.828 182.969C207.068 183.615 207.448 183.938 207.969 183.938C208.969 183.938 209.469 182.63 209.469 180.016C209.469 177.401 208.969 176.094 207.969 176.094ZM223.938 181.953C225.698 181.953 227.047 182.573 227.984 183.812C228.932 185.042 229.406 186.823 229.406 189.156C229.406 191.49 228.943 193.26 228.016 194.469C227.089 195.677 225.745 196.281 223.984 196.281C222.224 196.281 220.875 195.661 219.938 194.422C219.01 193.182 218.547 191.406 218.547 189.094C218.547 184.333 220.344 181.953 223.938 181.953ZM223.969 185.219C223.448 185.219 223.068 185.536 222.828 186.172C222.599 186.807 222.484 187.792 222.484 189.125C222.484 190.458 222.599 191.448 222.828 192.094C223.068 192.74 223.448 193.062 223.969 193.062C224.969 193.062 225.469 191.755 225.469 189.141C225.469 186.526 224.969 185.219 223.969 185.219Z" fill="#252F4A"/>
<path d="M270 184.5C270 166.347 263.095 148.873 250.685 135.623C238.276 122.374 221.291 114.34 203.176 113.153C185.062 111.966 167.174 117.713 153.141 129.23C139.108 140.746 129.981 157.169 127.612 175.167C125.242 193.166 129.807 211.391 140.381 226.147C150.955 240.903 166.746 251.085 184.551 254.626C202.356 258.168 220.841 254.804 236.257 245.218C251.673 235.632 262.865 220.54 267.564 203.006L251.057 198.583C247.482 211.927 238.964 223.411 227.233 230.706C215.501 238.001 201.434 240.561 187.885 237.866C174.336 235.17 162.319 227.422 154.272 216.193C146.225 204.964 142.751 191.094 144.554 177.398C146.358 163.701 153.303 151.204 163.982 142.44C174.661 133.676 188.274 129.302 202.059 130.205C215.844 131.109 228.769 137.222 238.213 147.305C247.656 157.388 252.911 170.685 252.911 184.5H270Z" fill="#F3F3F5"/>
<path d="M267 184.5C268.657 184.5 270.007 185.844 269.937 187.499C269.454 199.009 266.196 210.248 260.421 220.25C254.145 231.119 245.119 240.145 234.25 246.421C223.381 252.696 211.051 256 198.5 256C186.951 256 175.588 253.202 165.379 247.866C163.911 247.098 163.422 245.258 164.25 243.823L169.794 234.219C170.623 232.785 172.454 232.301 173.933 233.049C181.536 236.897 189.951 238.911 198.5 238.911C208.051 238.911 217.434 236.397 225.706 231.621C233.977 226.846 240.846 219.977 245.621 211.706C249.896 204.302 252.359 196.007 252.828 187.499C252.92 185.844 254.254 184.5 255.911 184.5H267Z" fill="#3B82F6"/>
<path d="M403.842 76.3689C401.881 76.3689 400.259 75.7214 398.977 74.4263C397.706 73.1313 397.071 71.5402 397.071 69.6531C397.071 67.766 397.706 66.1749 398.977 64.8799C400.259 63.5848 401.881 62.9373 403.842 62.9373C405.026 62.9373 406.112 63.221 407.098 63.7883C408.097 64.3557 408.875 65.1204 409.43 66.0824L407.931 66.952C407.561 66.2366 407.006 65.6692 406.266 65.2499C405.538 64.8182 404.73 64.6024 403.842 64.6024C402.35 64.6024 401.129 65.0834 400.179 66.0454C399.242 67.0075 398.773 68.21 398.773 69.6531C398.773 71.0838 399.242 72.2802 400.179 73.2423C401.129 74.2043 402.35 74.6853 403.842 74.6853C404.73 74.6853 405.538 74.4757 406.266 74.0563C407.006 73.6246 407.561 73.0573 407.931 72.3542L409.43 73.2053C408.887 74.1673 408.116 74.9382 407.117 75.5179C406.118 76.0852 405.026 76.3689 403.842 76.3689ZM417.945 66.878H419.554V76.1284H417.945V74.7964C417.291 75.8447 416.292 76.3689 414.948 76.3689C413.862 76.3689 412.993 76.0297 412.339 75.3514C411.685 74.6607 411.358 73.7295 411.358 72.5577V66.878H412.968V72.4652C412.968 73.2176 413.171 73.8035 413.579 74.2228C413.986 74.6298 414.547 74.8334 415.262 74.8334C416.064 74.8334 416.711 74.5867 417.205 74.0933C417.698 73.5876 417.945 72.8168 417.945 71.7807V66.878ZM423.91 68.432C424.441 67.285 425.403 66.7115 426.797 66.7115V68.395C426.007 68.358 425.329 68.5677 424.761 69.0241C424.194 69.4804 423.91 70.2143 423.91 71.2257V76.1284H422.301V66.878H423.91V68.432ZM430.277 68.432C430.807 67.285 431.769 66.7115 433.163 66.7115V68.395C432.374 68.358 431.695 68.5677 431.128 69.0241C430.561 69.4804 430.277 70.2143 430.277 71.2257V76.1284H428.667V66.878H430.277V68.432ZM435.657 72.2432C435.817 73.0696 436.193 73.711 436.785 74.1673C437.39 74.6237 438.13 74.8519 439.005 74.8519C440.226 74.8519 441.114 74.4017 441.67 73.5013L443.039 74.2783C442.138 75.6721 440.781 76.3689 438.968 76.3689C437.501 76.3689 436.304 75.9126 435.379 74.9999C434.467 74.0748 434.01 72.9093 434.01 71.5032C434.01 70.1095 434.46 68.9501 435.361 68.025C436.261 67.1 437.427 66.6375 438.857 66.6375C440.214 66.6375 441.318 67.1185 442.169 68.0805C443.032 69.0302 443.464 70.1773 443.464 71.5217C443.464 71.756 443.446 71.9966 443.409 72.2432H435.657ZM438.857 68.1545C437.994 68.1545 437.279 68.4012 436.711 68.8946C436.144 69.3756 435.792 70.0231 435.657 70.8372H441.836C441.7 69.9615 441.355 69.2954 440.8 68.8391C440.245 68.3827 439.597 68.1545 438.857 68.1545ZM450.217 66.6375C451.302 66.6375 452.172 66.9828 452.826 67.6735C453.479 68.3519 453.806 69.2769 453.806 70.4486V76.1284H452.197V70.5411C452.197 69.7888 451.993 69.2091 451.586 68.8021C451.179 68.3827 450.618 68.173 449.903 68.173C449.101 68.173 448.453 68.4259 447.96 68.9316C447.467 69.4249 447.22 70.1896 447.22 71.2257V76.1284H445.61V66.878H447.22V68.21C447.874 67.1617 448.873 66.6375 450.217 66.6375ZM461.381 68.432H458.921V73.4458C458.921 73.9021 459.007 74.229 459.18 74.4263C459.365 74.6113 459.642 74.71 460.012 74.7224C460.382 74.7224 460.839 74.71 461.381 74.6853V76.1284C459.975 76.3134 458.946 76.2024 458.292 75.7954C457.638 75.376 457.311 74.5928 457.311 73.4458V68.432H455.48V66.878H457.311V64.7689L458.921 64.2878V66.878H461.381V68.432ZM473.424 63.1778C474.621 63.1778 475.614 63.5786 476.403 64.3804C477.205 65.1697 477.605 66.1564 477.605 67.3405C477.605 68.5122 477.205 69.4989 476.403 70.3006C475.614 71.1023 474.621 71.5032 473.424 71.5032H470.446V76.1284H468.725V63.1778H473.424ZM473.424 69.8936C474.14 69.8936 474.732 69.6531 475.2 69.1721C475.669 68.6787 475.903 68.0682 475.903 67.3405C475.903 66.6005 475.669 65.9899 475.2 65.5089C474.732 65.0279 474.14 64.7874 473.424 64.7874H470.446V69.8936H473.424ZM486.87 74.9629C485.92 75.9002 484.767 76.3689 483.41 76.3689C482.054 76.3689 480.9 75.9002 479.951 74.9629C479.013 74.0255 478.545 72.8723 478.545 71.5032C478.545 70.1341 479.013 68.9809 479.951 68.0435C480.9 67.1062 482.054 66.6375 483.41 66.6375C484.767 66.6375 485.92 67.1062 486.87 68.0435C487.82 68.9809 488.295 70.1341 488.295 71.5032C488.295 72.8723 487.82 74.0255 486.87 74.9629ZM483.41 74.7964C484.335 74.7964 485.112 74.4818 485.741 73.8528C486.37 73.2238 486.685 72.4406 486.685 71.5032C486.685 70.5658 486.37 69.7826 485.741 69.1536C485.112 68.5246 484.335 68.21 483.41 68.21C482.498 68.21 481.727 68.5246 481.098 69.1536C480.469 69.7826 480.154 70.5658 480.154 71.5032C480.154 72.4406 480.469 73.2238 481.098 73.8528C481.727 74.4818 482.498 74.7964 483.41 74.7964ZM492.098 68.432C492.628 67.285 493.59 66.7115 494.984 66.7115V68.395C494.194 68.358 493.516 68.5677 492.949 69.0241C492.381 69.4804 492.098 70.2143 492.098 71.2257V76.1284H490.488V66.878H492.098V68.432ZM502.104 68.432H499.643V73.4458C499.643 73.9021 499.729 74.229 499.902 74.4263C500.087 74.6113 500.365 74.71 500.735 74.7224C501.105 74.7224 501.561 74.71 502.104 74.6853V76.1284C500.698 76.3134 499.668 76.2024 499.014 75.7954C498.36 75.376 498.033 74.5928 498.033 73.4458V68.432H496.202V66.878H498.033V64.7689L499.643 64.2878V66.878H502.104V68.432ZM508.59 64.4914C506.962 64.3557 506.148 65.0587 506.148 66.6005V66.878H508.59V68.432H506.148V76.1284H504.539V68.432H503.059V66.878H504.539V66.6005C504.539 65.3547 504.884 64.4112 505.575 63.7698C506.278 63.1285 507.283 62.8509 508.59 62.9373V64.4914ZM517.413 74.9629C516.464 75.9002 515.31 76.3689 513.954 76.3689C512.597 76.3689 511.444 75.9002 510.494 74.9629C509.557 74.0255 509.088 72.8723 509.088 71.5032C509.088 70.1341 509.557 68.9809 510.494 68.0435C511.444 67.1062 512.597 66.6375 513.954 66.6375C515.31 66.6375 516.464 67.1062 517.413 68.0435C518.363 68.9809 518.838 70.1341 518.838 71.5032C518.838 72.8723 518.363 74.0255 517.413 74.9629ZM513.954 74.7964C514.879 74.7964 515.656 74.4818 516.285 73.8528C516.914 73.2238 517.228 72.4406 517.228 71.5032C517.228 70.5658 516.914 69.7826 516.285 69.1536C515.656 68.5246 514.879 68.21 513.954 68.21C513.041 68.21 512.27 68.5246 511.641 69.1536C511.012 69.7826 510.697 70.5658 510.697 71.5032C510.697 72.4406 511.012 73.2238 511.641 73.8528C512.27 74.4818 513.041 74.7964 513.954 74.7964ZM521.031 76.1284V62.6228H522.641V76.1284H521.031ZM526.207 65.1944C525.898 65.1944 525.639 65.0896 525.43 64.8799C525.22 64.6702 525.115 64.4174 525.115 64.1213C525.115 63.8253 525.22 63.5725 525.43 63.3628C525.639 63.1408 525.898 63.0298 526.207 63.0298C526.503 63.0298 526.755 63.1408 526.965 63.3628C527.175 63.5725 527.28 63.8253 527.28 64.1213C527.28 64.4174 527.175 64.6702 526.965 64.8799C526.755 65.0896 526.503 65.1944 526.207 65.1944ZM525.393 76.1284V66.878H527.002V76.1284H525.393ZM537.561 74.9629C536.611 75.9002 535.458 76.3689 534.101 76.3689C532.745 76.3689 531.591 75.9002 530.642 74.9629C529.704 74.0255 529.236 72.8723 529.236 71.5032C529.236 70.1341 529.704 68.9809 530.642 68.0435C531.591 67.1062 532.745 66.6375 534.101 66.6375C535.458 66.6375 536.611 67.1062 537.561 68.0435C538.511 68.9809 538.986 70.1341 538.986 71.5032C538.986 72.8723 538.511 74.0255 537.561 74.9629ZM534.101 74.7964C535.026 74.7964 535.803 74.4818 536.433 73.8528C537.062 73.2238 537.376 72.4406 537.376 71.5032C537.376 70.5658 537.062 69.7826 536.433 69.1536C535.803 68.5246 535.026 68.21 534.101 68.21C533.189 68.21 532.418 68.5246 531.789 69.1536C531.16 69.7826 530.845 70.5658 530.845 71.5032C530.845 72.4406 531.16 73.2238 531.789 73.8528C532.418 74.4818 533.189 74.7964 534.101 74.7964ZM554.796 76.1284L553.741 73.2238H547.913L546.859 76.1284H545.027L549.856 63.1778H551.799L556.627 76.1284H554.796ZM548.506 71.6142H553.149L550.818 65.2314L548.506 71.6142ZM558.285 76.1284V62.6228H559.894V76.1284H558.285ZM562.646 76.1284V62.6228H564.255V76.1284H562.646ZM574.814 74.9629C573.865 75.9002 572.711 76.3689 571.355 76.3689C569.998 76.3689 568.845 75.9002 567.895 74.9629C566.958 74.0255 566.489 72.8723 566.489 71.5032C566.489 70.1341 566.958 68.9809 567.895 68.0435C568.845 67.1062 569.998 66.6375 571.355 66.6375C572.711 66.6375 573.865 67.1062 574.814 68.0435C575.764 68.9809 576.239 70.1341 576.239 71.5032C576.239 72.8723 575.764 74.0255 574.814 74.9629ZM571.355 74.7964C572.28 74.7964 573.057 74.4818 573.686 73.8528C574.315 73.2238 574.629 72.4406 574.629 71.5032C574.629 70.5658 574.315 69.7826 573.686 69.1536C573.057 68.5246 572.28 68.21 571.355 68.21C570.442 68.21 569.671 68.5246 569.042 69.1536C568.413 69.7826 568.099 70.5658 568.099 71.5032C568.099 72.4406 568.413 73.2238 569.042 73.8528C569.671 74.4818 570.442 74.7964 571.355 74.7964ZM582.78 76.3689C581.386 76.3689 580.227 75.9064 579.302 74.9814C578.377 74.044 577.914 72.8846 577.914 71.5032C577.914 70.1218 578.377 68.9686 579.302 68.0435C580.227 67.1062 581.386 66.6375 582.78 66.6375C583.693 66.6375 584.513 66.8595 585.241 67.3035C585.968 67.7352 586.511 68.321 586.869 69.0611L585.518 69.8381C585.284 69.3448 584.92 68.9501 584.427 68.6541C583.946 68.358 583.397 68.21 582.78 68.21C581.855 68.21 581.078 68.5246 580.449 69.1536C579.832 69.7826 579.524 70.5658 579.524 71.5032C579.524 72.4282 579.832 73.2053 580.449 73.8343C581.078 74.4633 581.855 74.7779 582.78 74.7779C583.397 74.7779 583.952 74.636 584.445 74.3523C584.939 74.0563 585.315 73.6616 585.574 73.1683L586.943 73.9638C586.548 74.6915 585.981 75.2774 585.241 75.7214C584.501 76.1531 583.681 76.3689 582.78 76.3689ZM596.361 66.878H597.971V76.1284H596.361V74.5373C595.559 75.7584 594.394 76.3689 592.864 76.3689C591.569 76.3689 590.465 75.9002 589.553 74.9629C588.64 74.0131 588.184 72.8599 588.184 71.5032C588.184 70.1465 588.64 68.9994 589.553 68.062C590.465 67.1123 591.569 66.6375 592.864 66.6375C594.394 66.6375 595.559 67.248 596.361 68.469V66.878ZM593.068 74.8149C594.005 74.8149 594.788 74.5003 595.417 73.8713C596.046 73.2299 596.361 72.4406 596.361 71.5032C596.361 70.5658 596.046 69.7826 595.417 69.1536C594.788 68.5122 594.005 68.1915 593.068 68.1915C592.143 68.1915 591.366 68.5122 590.737 69.1536C590.108 69.7826 589.793 70.5658 589.793 71.5032C589.793 72.4406 590.108 73.2299 590.737 73.8713C591.366 74.5003 592.143 74.8149 593.068 74.8149ZM605.737 68.432H603.277V73.4458C603.277 73.9021 603.363 74.229 603.536 74.4263C603.721 74.6113 603.998 74.71 604.368 74.7224C604.738 74.7224 605.195 74.71 605.737 74.6853V76.1284C604.331 76.3134 603.301 76.2024 602.648 75.7954C601.994 75.376 601.667 74.5928 601.667 73.4458V68.432H599.836V66.878H601.667V64.7689L603.277 64.2878V66.878H605.737V68.432ZM608.753 65.1944C608.445 65.1944 608.186 65.0896 607.976 64.8799C607.766 64.6702 607.662 64.4174 607.662 64.1213C607.662 63.8253 607.766 63.5725 607.976 63.3628C608.186 63.1408 608.445 63.0298 608.753 63.0298C609.049 63.0298 609.302 63.1408 609.512 63.3628C609.721 63.5725 609.826 63.8253 609.826 64.1213C609.826 64.4174 609.721 64.6702 609.512 64.8799C609.302 65.0896 609.049 65.1944 608.753 65.1944ZM607.939 76.1284V66.878H609.549V76.1284H607.939ZM620.108 74.9629C619.158 75.9002 618.005 76.3689 616.648 76.3689C615.291 76.3689 614.138 75.9002 613.188 74.9629C612.251 74.0255 611.782 72.8723 611.782 71.5032C611.782 70.1341 612.251 68.9809 613.188 68.0435C614.138 67.1062 615.291 66.6375 616.648 66.6375C618.005 66.6375 619.158 67.1062 620.108 68.0435C621.057 68.9809 621.532 70.1341 621.532 71.5032C621.532 72.8723 621.057 74.0255 620.108 74.9629ZM616.648 74.7964C617.573 74.7964 618.35 74.4818 618.979 73.8528C619.608 73.2238 619.923 72.4406 619.923 71.5032C619.923 70.5658 619.608 69.7826 618.979 69.1536C618.35 68.5246 617.573 68.21 616.648 68.21C615.735 68.21 614.964 68.5246 614.335 69.1536C613.706 69.7826 613.392 70.5658 613.392 71.5032C613.392 72.4406 613.706 73.2238 614.335 73.8528C614.964 74.4818 615.735 74.7964 616.648 74.7964ZM628.332 66.6375C629.418 66.6375 630.287 66.9828 630.941 67.6735C631.595 68.3519 631.922 69.2769 631.922 70.4486V76.1284H630.312V70.5411C630.312 69.7888 630.108 69.2091 629.701 68.8021C629.294 68.3827 628.733 68.173 628.018 68.173C627.216 68.173 626.569 68.4259 626.075 68.9316C625.582 69.4249 625.335 70.1896 625.335 71.2257V76.1284H623.726V66.878H625.335V68.21C625.989 67.1617 626.988 66.6375 628.332 66.6375Z" fill="white"/>
<rect x="331.828" width="314.175" height="286.817" rx="17.6503" fill="#3E0C5A"/>
<path d="M462.688 78.8788V68.2068H452.886V61.3628H462.688V50.6908H470.112V61.3628H479.914V68.2068H470.112V78.8788H462.688ZM488.649 82.5328V75.5148H499.553V48.3708H499.031L490.795 59.1588L485.227 54.8088L494.913 42.0488H508.253V75.5148H516.837V82.5328H488.649ZM547.671 49.6468H529.285L528.415 62.4648H528.879C529.265 61.4981 529.691 60.6281 530.155 59.8548C530.657 59.0428 531.237 58.3661 531.895 57.8248C532.552 57.2448 533.345 56.8001 534.273 56.4908C535.201 56.1814 536.303 56.0268 537.579 56.0268C539.319 56.0268 540.943 56.3168 542.451 56.8968C543.959 57.4768 545.273 58.3274 546.395 59.4488C547.516 60.5314 548.405 61.8848 549.063 63.5088C549.72 65.0941 550.049 66.8921 550.049 68.9028C550.049 70.9521 549.701 72.8661 549.005 74.6448C548.347 76.3848 547.342 77.8928 545.989 79.1688C544.674 80.4448 543.05 81.4501 541.117 82.1848C539.183 82.8808 536.979 83.2288 534.505 83.2288C532.533 83.2288 530.793 83.0161 529.285 82.5908C527.777 82.1654 526.443 81.6048 525.283 80.9088C524.123 80.1741 523.117 79.3428 522.267 78.4148C521.416 77.4868 520.681 76.5008 520.063 75.4568L526.385 70.4688C527.274 72.0541 528.337 73.4074 529.575 74.5288C530.812 75.6114 532.475 76.1528 534.563 76.1528C536.651 76.1528 538.217 75.5534 539.261 74.3548C540.343 73.1561 540.885 71.5708 540.885 69.5988V69.1348C540.885 67.2788 540.343 65.8094 539.261 64.7268C538.178 63.6441 536.689 63.1028 534.795 63.1028C533.209 63.1028 531.895 63.4314 530.851 64.0888C529.845 64.7074 529.072 65.3261 528.531 65.9448L521.397 64.9588L522.905 42.0488H547.671V49.6468ZM561.974 82.5328L590.046 42.0488H597.702L569.63 82.5328H561.974ZM564.932 64.3208C561.529 64.3208 558.939 63.3541 557.16 61.4208C555.381 59.4874 554.492 56.6261 554.492 52.8368C554.492 49.0474 555.381 46.1861 557.16 44.2528C558.939 42.3194 561.529 41.3528 564.932 41.3528C568.335 41.3528 570.925 42.3194 572.704 44.2528C574.483 46.1861 575.372 49.0474 575.372 52.8368C575.372 56.6261 574.483 59.4874 572.704 61.4208C570.925 63.3541 568.335 64.3208 564.932 64.3208ZM564.932 59.3328C565.937 59.3328 566.691 58.9461 567.194 58.1728C567.697 57.3608 567.948 56.0848 567.948 54.3448V51.3288C567.948 49.5888 567.697 48.3321 567.194 47.5588C566.691 46.7468 565.937 46.3408 564.932 46.3408C563.927 46.3408 563.173 46.7468 562.67 47.5588C562.167 48.3321 561.916 49.5888 561.916 51.3288V54.3448C561.916 56.0848 562.167 57.3608 562.67 58.1728C563.173 58.9461 563.927 59.3328 564.932 59.3328ZM594.744 83.2288C591.341 83.2288 588.751 82.2621 586.972 80.3288C585.193 78.3954 584.304 75.5341 584.304 71.7448C584.304 67.9554 585.193 65.0941 586.972 63.1608C588.751 61.2274 591.341 60.2608 594.744 60.2608C598.147 60.2608 600.737 61.2274 602.516 63.1608C604.295 65.0941 605.184 67.9554 605.184 71.7448C605.184 75.5341 604.295 78.3954 602.516 80.3288C600.737 82.2621 598.147 83.2288 594.744 83.2288ZM594.744 78.2408C595.749 78.2408 596.503 77.8541 597.006 77.0808C597.509 76.2688 597.76 74.9928 597.76 73.2528V70.2368C597.76 68.4968 597.509 67.2401 597.006 66.4668C596.503 65.6548 595.749 65.2488 594.744 65.2488C593.739 65.2488 592.985 65.6548 592.482 66.4668C591.979 67.2401 591.728 68.4968 591.728 70.2368V73.2528C591.728 74.9928 591.979 76.2688 592.482 77.0808C592.985 77.8541 593.739 78.2408 594.744 78.2408Z" fill="white"/>
<rect x="480" y="112" width="20" height="140" rx="3" fill="#683287"/>
<rect x="534" y="112" width="20" height="140" rx="3" fill="#683287"/>
<rect x="507" y="112" width="20" height="140" rx="3" fill="#683287"/>
<rect x="561" y="112" width="20" height="140" rx="3" fill="#683287"/>
<rect x="588" y="112" width="20" height="140" rx="3" fill="#683287"/>
<rect x="480" y="217" width="20" height="35" rx="3" fill="white"/>
<rect x="534" y="160" width="20" height="92" rx="3" fill="white"/>
<rect x="507" y="177" width="20" height="75" rx="3" fill="white"/>
<rect x="561" y="207" width="20" height="45" rx="3" fill="white"/>
<rect x="588" y="170" width="20" height="82" rx="3" fill="white"/>
<path d="M71.0153 389.661C69.0543 389.661 67.4323 389.014 66.1496 387.719C64.8792 386.424 64.244 384.833 64.244 382.945C64.244 381.058 64.8792 379.467 66.1496 378.172C67.4323 376.877 69.0543 376.23 71.0153 376.23C72.1994 376.23 73.2848 376.513 74.2715 377.081C75.2706 377.648 76.0476 378.413 76.6026 379.375L75.104 380.244C74.734 379.529 74.179 378.962 73.439 378.542C72.7113 378.111 71.9034 377.895 71.0153 377.895C69.5229 377.895 68.3019 378.376 67.3522 379.338C66.4148 380.3 65.9461 381.502 65.9461 382.945C65.9461 384.376 66.4148 385.573 67.3522 386.535C68.3019 387.497 69.5229 387.978 71.0153 387.978C71.9034 387.978 72.7113 387.768 73.439 387.349C74.179 386.917 74.734 386.35 75.104 385.647L76.6026 386.498C76.0599 387.46 75.2891 388.231 74.29 388.81C73.291 389.378 72.1994 389.661 71.0153 389.661ZM85.1178 380.17H86.7274V389.421H85.1178V388.089C84.4641 389.137 83.465 389.661 82.1206 389.661C81.0353 389.661 80.1657 389.322 79.512 388.644C78.8583 387.953 78.5315 387.022 78.5315 385.85V380.17H80.1411V385.758C80.1411 386.51 80.3446 387.096 80.7516 387.515C81.1586 387.922 81.7198 388.126 82.4352 388.126C83.2369 388.126 83.8844 387.879 84.3778 387.386C84.8711 386.88 85.1178 386.109 85.1178 385.073V380.17ZM91.0835 381.724C91.6138 380.577 92.5759 380.004 93.9696 380.004V381.687C93.1802 381.65 92.5019 381.86 91.9345 382.316C91.3671 382.773 91.0835 383.507 91.0835 384.518V389.421H89.4739V380.17H91.0835V381.724ZM97.4501 381.724C97.9804 380.577 98.9425 380.004 100.336 380.004V381.687C99.5468 381.65 98.8685 381.86 98.3011 382.316C97.7338 382.773 97.4501 383.507 97.4501 384.518V389.421H95.8405V380.17H97.4501V381.724ZM102.83 385.536C102.99 386.362 103.366 387.003 103.958 387.46C104.563 387.916 105.303 388.144 106.178 388.144C107.4 388.144 108.288 387.694 108.843 386.794L110.212 387.571C109.311 388.964 107.955 389.661 106.141 389.661C104.674 389.661 103.477 389.205 102.552 388.292C101.64 387.367 101.183 386.202 101.183 384.796C101.183 383.402 101.633 382.242 102.534 381.317C103.434 380.392 104.6 379.93 106.03 379.93C107.387 379.93 108.491 380.411 109.342 381.373C110.205 382.323 110.637 383.47 110.637 384.814C110.637 385.048 110.619 385.289 110.582 385.536H102.83ZM106.03 381.447C105.167 381.447 104.452 381.694 103.884 382.187C103.317 382.668 102.965 383.315 102.83 384.13H109.009C108.873 383.254 108.528 382.588 107.973 382.131C107.418 381.675 106.77 381.447 106.03 381.447ZM117.39 379.93C118.476 379.93 119.345 380.275 119.999 380.966C120.652 381.644 120.979 382.569 120.979 383.741V389.421H119.37V383.834C119.37 383.081 119.166 382.501 118.759 382.094C118.352 381.675 117.791 381.465 117.076 381.465C116.274 381.465 115.626 381.718 115.133 382.224C114.64 382.717 114.393 383.482 114.393 384.518V389.421H112.783V380.17H114.393V381.502C115.047 380.454 116.046 379.93 117.39 379.93ZM128.555 381.724H126.094V386.738C126.094 387.195 126.18 387.521 126.353 387.719C126.538 387.904 126.815 388.002 127.185 388.015C127.556 388.015 128.012 388.002 128.555 387.978V389.421C127.148 389.606 126.119 389.495 125.465 389.088C124.811 388.668 124.484 387.885 124.484 386.738V381.724H122.653V380.17H124.484V378.061L126.094 377.58V380.17H128.555V381.724ZM140.597 376.47C141.794 376.47 142.787 376.871 143.576 377.673C144.378 378.462 144.779 379.449 144.779 380.633C144.779 381.805 144.378 382.791 143.576 383.593C142.787 384.395 141.794 384.796 140.597 384.796H137.619V389.421H135.898V376.47H140.597ZM140.597 383.186C141.313 383.186 141.905 382.945 142.373 382.464C142.842 381.971 143.076 381.361 143.076 380.633C143.076 379.893 142.842 379.282 142.373 378.801C141.905 378.32 141.313 378.08 140.597 378.08H137.619V383.186H140.597ZM154.043 388.255C153.093 389.193 151.94 389.661 150.583 389.661C149.227 389.661 148.073 389.193 147.124 388.255C146.186 387.318 145.718 386.165 145.718 384.796C145.718 383.426 146.186 382.273 147.124 381.336C148.073 380.399 149.227 379.93 150.583 379.93C151.94 379.93 153.093 380.399 154.043 381.336C154.993 382.273 155.468 383.426 155.468 384.796C155.468 386.165 154.993 387.318 154.043 388.255ZM150.583 388.089C151.508 388.089 152.285 387.774 152.914 387.145C153.543 386.516 153.858 385.733 153.858 384.796C153.858 383.858 153.543 383.075 152.914 382.446C152.285 381.817 151.508 381.502 150.583 381.502C149.671 381.502 148.9 381.817 148.271 382.446C147.642 383.075 147.327 383.858 147.327 384.796C147.327 385.733 147.642 386.516 148.271 387.145C148.9 387.774 149.671 388.089 150.583 388.089ZM159.271 381.724C159.801 380.577 160.763 380.004 162.157 380.004V381.687C161.367 381.65 160.689 381.86 160.122 382.316C159.554 382.773 159.271 383.507 159.271 384.518V389.421H157.661V380.17H159.271V381.724ZM169.277 381.724H166.816V386.738C166.816 387.195 166.902 387.521 167.075 387.719C167.26 387.904 167.538 388.002 167.908 388.015C168.278 388.015 168.734 388.002 169.277 387.978V389.421C167.871 389.606 166.841 389.495 166.187 389.088C165.533 388.668 165.207 387.885 165.207 386.738V381.724H163.375V380.17H165.207V378.061L166.816 377.58V380.17H169.277V381.724ZM175.763 377.784C174.135 377.648 173.321 378.351 173.321 379.893V380.17H175.763V381.724H173.321V389.421H171.712V381.724H170.232V380.17H171.712V379.893C171.712 378.647 172.057 377.704 172.748 377.062C173.451 376.421 174.456 376.143 175.763 376.23V377.784ZM184.586 388.255C183.637 389.193 182.483 389.661 181.127 389.661C179.77 389.661 178.617 389.193 177.667 388.255C176.73 387.318 176.261 386.165 176.261 384.796C176.261 383.426 176.73 382.273 177.667 381.336C178.617 380.399 179.77 379.93 181.127 379.93C182.483 379.93 183.637 380.399 184.586 381.336C185.536 382.273 186.011 383.426 186.011 384.796C186.011 386.165 185.536 387.318 184.586 388.255ZM181.127 388.089C182.052 388.089 182.829 387.774 183.458 387.145C184.087 386.516 184.401 385.733 184.401 384.796C184.401 383.858 184.087 383.075 183.458 382.446C182.829 381.817 182.052 381.502 181.127 381.502C180.214 381.502 179.443 381.817 178.814 382.446C178.185 383.075 177.871 383.858 177.871 384.796C177.871 385.733 178.185 386.516 178.814 387.145C179.443 387.774 180.214 388.089 181.127 388.089ZM188.204 389.421V375.915H189.814V389.421H188.204ZM193.38 378.487C193.071 378.487 192.812 378.382 192.603 378.172C192.393 377.963 192.288 377.71 192.288 377.414C192.288 377.118 192.393 376.865 192.603 376.655C192.812 376.433 193.071 376.322 193.38 376.322C193.676 376.322 193.929 376.433 194.138 376.655C194.348 376.865 194.453 377.118 194.453 377.414C194.453 377.71 194.348 377.963 194.138 378.172C193.929 378.382 193.676 378.487 193.38 378.487ZM192.566 389.421V380.17H194.175V389.421H192.566ZM204.734 388.255C203.784 389.193 202.631 389.661 201.274 389.661C199.918 389.661 198.765 389.193 197.815 388.255C196.877 387.318 196.409 386.165 196.409 384.796C196.409 383.426 196.877 382.273 197.815 381.336C198.765 380.399 199.918 379.93 201.274 379.93C202.631 379.93 203.784 380.399 204.734 381.336C205.684 382.273 206.159 383.426 206.159 384.796C206.159 386.165 205.684 387.318 204.734 388.255ZM201.274 388.089C202.2 388.089 202.977 387.774 203.606 387.145C204.235 386.516 204.549 385.733 204.549 384.796C204.549 383.858 204.235 383.075 203.606 382.446C202.977 381.817 202.2 381.502 201.274 381.502C200.362 381.502 199.591 381.817 198.962 382.446C198.333 383.075 198.018 383.858 198.018 384.796C198.018 385.733 198.333 386.516 198.962 387.145C199.591 387.774 200.362 388.089 201.274 388.089ZM221.969 389.421L220.914 386.516H215.087L214.032 389.421H212.2L217.029 376.47H218.972L223.8 389.421H221.969ZM215.679 384.907H220.322L217.991 378.524L215.679 384.907ZM225.458 389.421V375.915H227.067V389.421H225.458ZM229.819 389.421V375.915H231.428V389.421H229.819ZM241.987 388.255C241.038 389.193 239.884 389.661 238.528 389.661C237.171 389.661 236.018 389.193 235.068 388.255C234.131 387.318 233.662 386.165 233.662 384.796C233.662 383.426 234.131 382.273 235.068 381.336C236.018 380.399 237.171 379.93 238.528 379.93C239.884 379.93 241.038 380.399 241.987 381.336C242.937 382.273 243.412 383.426 243.412 384.796C243.412 386.165 242.937 387.318 241.987 388.255ZM238.528 388.089C239.453 388.089 240.23 387.774 240.859 387.145C241.488 386.516 241.802 385.733 241.802 384.796C241.802 383.858 241.488 383.075 240.859 382.446C240.23 381.817 239.453 381.502 238.528 381.502C237.615 381.502 236.844 381.817 236.215 382.446C235.586 383.075 235.272 383.858 235.272 384.796C235.272 385.733 235.586 386.516 236.215 387.145C236.844 387.774 237.615 388.089 238.528 388.089ZM249.953 389.661C248.559 389.661 247.4 389.199 246.475 388.274C245.55 387.336 245.087 386.177 245.087 384.796C245.087 383.414 245.55 382.261 246.475 381.336C247.4 380.399 248.559 379.93 249.953 379.93C250.866 379.93 251.686 380.152 252.414 380.596C253.142 381.028 253.684 381.613 254.042 382.353L252.691 383.13C252.457 382.637 252.093 382.242 251.6 381.946C251.119 381.65 250.57 381.502 249.953 381.502C249.028 381.502 248.251 381.817 247.622 382.446C247.005 383.075 246.697 383.858 246.697 384.796C246.697 385.721 247.005 386.498 247.622 387.127C248.251 387.756 249.028 388.07 249.953 388.07C250.57 388.07 251.125 387.928 251.618 387.645C252.112 387.349 252.488 386.954 252.747 386.461L254.116 387.256C253.721 387.984 253.154 388.57 252.414 389.014C251.674 389.445 250.854 389.661 249.953 389.661ZM263.534 380.17H265.144V389.421H263.534V387.83C262.732 389.051 261.567 389.661 260.037 389.661C258.742 389.661 257.638 389.193 256.726 388.255C255.813 387.306 255.357 386.152 255.357 384.796C255.357 383.439 255.813 382.292 256.726 381.354C257.638 380.405 258.742 379.93 260.037 379.93C261.567 379.93 262.732 380.54 263.534 381.761V380.17ZM260.241 388.107C261.178 388.107 261.961 387.793 262.59 387.164C263.22 386.522 263.534 385.733 263.534 384.796C263.534 383.858 263.22 383.075 262.59 382.446C261.961 381.805 261.178 381.484 260.241 381.484C259.316 381.484 258.539 381.805 257.91 382.446C257.281 383.075 256.966 383.858 256.966 384.796C256.966 385.733 257.281 386.522 257.91 387.164C258.539 387.793 259.316 388.107 260.241 388.107ZM272.911 381.724H270.45V386.738C270.45 387.195 270.536 387.521 270.709 387.719C270.894 387.904 271.171 388.002 271.541 388.015C271.911 388.015 272.368 388.002 272.911 387.978V389.421C271.504 389.606 270.475 389.495 269.821 389.088C269.167 388.668 268.84 387.885 268.84 386.738V381.724H267.009V380.17H268.84V378.061L270.45 377.58V380.17H272.911V381.724ZM275.926 378.487C275.618 378.487 275.359 378.382 275.149 378.172C274.939 377.963 274.835 377.71 274.835 377.414C274.835 377.118 274.939 376.865 275.149 376.655C275.359 376.433 275.618 376.322 275.926 376.322C276.222 376.322 276.475 376.433 276.685 376.655C276.894 376.865 276.999 377.118 276.999 377.414C276.999 377.71 276.894 377.963 276.685 378.172C276.475 378.382 276.222 378.487 275.926 378.487ZM275.112 389.421V380.17H276.722V389.421H275.112ZM287.281 388.255C286.331 389.193 285.178 389.661 283.821 389.661C282.464 389.661 281.311 389.193 280.361 388.255C279.424 387.318 278.955 386.165 278.955 384.796C278.955 383.426 279.424 382.273 280.361 381.336C281.311 380.399 282.464 379.93 283.821 379.93C285.178 379.93 286.331 380.399 287.281 381.336C288.23 382.273 288.705 383.426 288.705 384.796C288.705 386.165 288.23 387.318 287.281 388.255ZM283.821 388.089C284.746 388.089 285.523 387.774 286.152 387.145C286.781 386.516 287.096 385.733 287.096 384.796C287.096 383.858 286.781 383.075 286.152 382.446C285.523 381.817 284.746 381.502 283.821 381.502C282.908 381.502 282.137 381.817 281.508 382.446C280.879 383.075 280.565 383.858 280.565 384.796C280.565 385.733 280.879 386.516 281.508 387.145C282.137 387.774 282.908 388.089 283.821 388.089ZM295.505 379.93C296.591 379.93 297.46 380.275 298.114 380.966C298.768 381.644 299.095 382.569 299.095 383.741V389.421H297.485V383.834C297.485 383.081 297.282 382.501 296.875 382.094C296.467 381.675 295.906 381.465 295.191 381.465C294.389 381.465 293.742 381.718 293.248 382.224C292.755 382.717 292.508 383.482 292.508 384.518V389.421H290.899V380.17H292.508V381.502C293.162 380.454 294.161 379.93 295.505 379.93Z" fill="white"/>
<rect y="313.292" width="314.175" height="286.817" rx="17.6503" fill="#5DA2FF"/>
<path d="M45.688 392.171V381.499H35.886V374.655H45.688V363.983H53.112V374.655H62.914V381.499H53.112V392.171H45.688ZM71.6493 395.825V388.807H82.5533V361.663H82.0313L73.7953 372.451L68.2273 368.101L77.9133 355.341H91.2533V388.807H99.8373V395.825H71.6493ZM117.795 396.521C112.497 396.521 108.573 394.684 106.021 391.011C103.469 387.338 102.193 382.195 102.193 375.583C102.193 368.971 103.469 363.828 106.021 360.155C108.573 356.482 112.497 354.645 117.795 354.645C123.092 354.645 127.017 356.482 129.569 360.155C132.121 363.828 133.397 368.971 133.397 375.583C133.397 382.195 132.121 387.338 129.569 391.011C127.017 394.684 123.092 396.521 117.795 396.521ZM117.795 389.155C120.115 389.155 121.719 388.304 122.609 386.603C123.498 384.902 123.943 382.504 123.943 379.411V371.755C123.943 368.662 123.498 366.264 122.609 364.563C121.719 362.862 120.115 362.011 117.795 362.011C115.475 362.011 113.87 362.862 112.981 364.563C112.091 366.264 111.647 368.662 111.647 371.755V379.411C111.647 382.504 112.091 384.902 112.981 386.603C113.87 388.304 115.475 389.155 117.795 389.155ZM144.974 395.825L173.046 355.341H180.702L152.63 395.825H144.974ZM147.932 377.613C144.529 377.613 141.939 376.646 140.16 374.713C138.381 372.78 137.492 369.918 137.492 366.129C137.492 362.34 138.381 359.478 140.16 357.545C141.939 355.612 144.529 354.645 147.932 354.645C151.335 354.645 153.925 355.612 155.704 357.545C157.483 359.478 158.372 362.34 158.372 366.129C158.372 369.918 157.483 372.78 155.704 374.713C153.925 376.646 151.335 377.613 147.932 377.613ZM147.932 372.625C148.937 372.625 149.691 372.238 150.194 371.465C150.697 370.653 150.948 369.377 150.948 367.637V364.621C150.948 362.881 150.697 361.624 150.194 360.851C149.691 360.039 148.937 359.633 147.932 359.633C146.927 359.633 146.173 360.039 145.67 360.851C145.167 361.624 144.916 362.881 144.916 364.621V367.637C144.916 369.377 145.167 370.653 145.67 371.465C146.173 372.238 146.927 372.625 147.932 372.625ZM177.744 396.521C174.341 396.521 171.751 395.554 169.972 393.621C168.193 391.688 167.304 388.826 167.304 385.037C167.304 381.248 168.193 378.386 169.972 376.453C171.751 374.52 174.341 373.553 177.744 373.553C181.147 373.553 183.737 374.52 185.516 376.453C187.295 378.386 188.184 381.248 188.184 385.037C188.184 388.826 187.295 391.688 185.516 393.621C183.737 395.554 181.147 396.521 177.744 396.521ZM177.744 391.533C178.749 391.533 179.503 391.146 180.006 390.373C180.509 389.561 180.76 388.285 180.76 386.545V383.529C180.76 381.789 180.509 380.532 180.006 379.759C179.503 378.947 178.749 378.541 177.744 378.541C176.739 378.541 175.985 378.947 175.482 379.759C174.979 380.532 174.728 381.789 174.728 383.529V386.545C174.728 388.285 174.979 389.561 175.482 390.373C175.985 391.146 176.739 391.533 177.744 391.533Z" fill="white"/>
<circle cx="198.5" cy="498.5" r="70.5" fill="#3B82F6"/>
<path d="M269 498.5C269 510.875 265.742 523.033 259.555 533.75C253.367 544.467 244.467 553.367 233.75 559.555C223.033 565.742 210.875 569 198.5 569C186.125 569 173.967 565.742 163.25 559.555C152.533 553.367 143.633 544.467 137.445 533.75C131.258 523.033 128 510.875 128 498.5C128 486.125 131.258 473.967 137.445 463.25C143.633 452.533 152.533 443.633 163.25 437.445L198.5 498.5H269Z" fill="#83B8FF"/>
<path d="M269 498.5C269 510.875 265.742 523.033 259.555 533.75L198.5 498.5H269Z" fill="white"/>
<path d="M402.842 389.661C400.881 389.661 399.259 389.014 397.977 387.719C396.706 386.424 396.071 384.833 396.071 382.945C396.071 381.058 396.706 379.467 397.977 378.172C399.259 376.877 400.881 376.23 402.842 376.23C404.026 376.23 405.112 376.513 406.098 377.081C407.098 377.648 407.875 378.413 408.43 379.375L406.931 380.244C406.561 379.529 406.006 378.962 405.266 378.542C404.538 378.111 403.73 377.895 402.842 377.895C401.35 377.895 400.129 378.376 399.179 379.338C398.242 380.3 397.773 381.502 397.773 382.945C397.773 384.376 398.242 385.573 399.179 386.535C400.129 387.497 401.35 387.978 402.842 387.978C403.73 387.978 404.538 387.768 405.266 387.349C406.006 386.917 406.561 386.35 406.931 385.647L408.43 386.498C407.887 387.46 407.116 388.231 406.117 388.81C405.118 389.378 404.026 389.661 402.842 389.661ZM416.945 380.17H418.554V389.421H416.945V388.089C416.291 389.137 415.292 389.661 413.948 389.661C412.862 389.661 411.993 389.322 411.339 388.644C410.685 387.953 410.358 387.022 410.358 385.85V380.17H411.968V385.758C411.968 386.51 412.172 387.096 412.579 387.515C412.986 387.922 413.547 388.126 414.262 388.126C415.064 388.126 415.711 387.879 416.205 387.386C416.698 386.88 416.945 386.109 416.945 385.073V380.17ZM422.91 381.724C423.441 380.577 424.403 380.004 425.797 380.004V381.687C425.007 381.65 424.329 381.86 423.761 382.316C423.194 382.773 422.91 383.507 422.91 384.518V389.421H421.301V380.17H422.91V381.724ZM429.277 381.724C429.807 380.577 430.769 380.004 432.163 380.004V381.687C431.374 381.65 430.695 381.86 430.128 382.316C429.561 382.773 429.277 383.507 429.277 384.518V389.421H427.667V380.17H429.277V381.724ZM434.657 385.536C434.817 386.362 435.193 387.003 435.785 387.46C436.39 387.916 437.13 388.144 438.005 388.144C439.226 388.144 440.115 387.694 440.67 386.794L442.039 387.571C441.138 388.964 439.782 389.661 437.968 389.661C436.501 389.661 435.304 389.205 434.379 388.292C433.467 387.367 433.01 386.202 433.01 384.796C433.01 383.402 433.46 382.242 434.361 381.317C435.261 380.392 436.427 379.93 437.857 379.93C439.214 379.93 440.318 380.411 441.169 381.373C442.032 382.323 442.464 383.47 442.464 384.814C442.464 385.048 442.446 385.289 442.409 385.536H434.657ZM437.857 381.447C436.994 381.447 436.279 381.694 435.711 382.187C435.144 382.668 434.792 383.315 434.657 384.13H440.836C440.7 383.254 440.355 382.588 439.8 382.131C439.245 381.675 438.597 381.447 437.857 381.447ZM449.217 379.93C450.302 379.93 451.172 380.275 451.826 380.966C452.479 381.644 452.806 382.569 452.806 383.741V389.421H451.197V383.834C451.197 383.081 450.993 382.501 450.586 382.094C450.179 381.675 449.618 381.465 448.903 381.465C448.101 381.465 447.453 381.718 446.96 382.224C446.467 382.717 446.22 383.482 446.22 384.518V389.421H444.61V380.17H446.22V381.502C446.874 380.454 447.873 379.93 449.217 379.93ZM460.382 381.724H457.921V386.738C457.921 387.195 458.007 387.521 458.18 387.719C458.365 387.904 458.642 388.002 459.012 388.015C459.382 388.015 459.839 388.002 460.382 387.978V389.421C458.975 389.606 457.946 389.495 457.292 389.088C456.638 388.668 456.311 387.885 456.311 386.738V381.724H454.48V380.17H456.311V378.061L457.921 377.58V380.17H460.382V381.724ZM472.424 376.47C473.621 376.47 474.614 376.871 475.403 377.673C476.205 378.462 476.606 379.449 476.606 380.633C476.606 381.805 476.205 382.791 475.403 383.593C474.614 384.395 473.621 384.796 472.424 384.796H469.446V389.421H467.725V376.47H472.424ZM472.424 383.186C473.14 383.186 473.732 382.945 474.2 382.464C474.669 381.971 474.903 381.361 474.903 380.633C474.903 379.893 474.669 379.282 474.2 378.801C473.732 378.32 473.14 378.08 472.424 378.08H469.446V383.186H472.424ZM485.87 388.255C484.92 389.193 483.767 389.661 482.41 389.661C481.054 389.661 479.9 389.193 478.951 388.255C478.013 387.318 477.545 386.165 477.545 384.796C477.545 383.426 478.013 382.273 478.951 381.336C479.9 380.399 481.054 379.93 482.41 379.93C483.767 379.93 484.92 380.399 485.87 381.336C486.82 382.273 487.295 383.426 487.295 384.796C487.295 386.165 486.82 387.318 485.87 388.255ZM482.41 388.089C483.335 388.089 484.112 387.774 484.741 387.145C485.37 386.516 485.685 385.733 485.685 384.796C485.685 383.858 485.37 383.075 484.741 382.446C484.112 381.817 483.335 381.502 482.41 381.502C481.498 381.502 480.727 381.817 480.098 382.446C479.469 383.075 479.154 383.858 479.154 384.796C479.154 385.733 479.469 386.516 480.098 387.145C480.727 387.774 481.498 388.089 482.41 388.089ZM491.098 381.724C491.628 380.577 492.59 380.004 493.984 380.004V381.687C493.194 381.65 492.516 381.86 491.949 382.316C491.381 382.773 491.098 383.507 491.098 384.518V389.421H489.488V380.17H491.098V381.724ZM501.104 381.724H498.643V386.738C498.643 387.195 498.729 387.521 498.902 387.719C499.087 387.904 499.365 388.002 499.735 388.015C500.105 388.015 500.561 388.002 501.104 387.978V389.421C499.698 389.606 498.668 389.495 498.014 389.088C497.36 388.668 497.034 387.885 497.034 386.738V381.724H495.202V380.17H497.034V378.061L498.643 377.58V380.17H501.104V381.724ZM507.59 377.784C505.962 377.648 505.148 378.351 505.148 379.893V380.17H507.59V381.724H505.148V389.421H503.539V381.724H502.059V380.17H503.539V379.893C503.539 378.647 503.884 377.704 504.575 377.062C505.278 376.421 506.283 376.143 507.59 376.23V377.784ZM516.413 388.255C515.464 389.193 514.31 389.661 512.954 389.661C511.597 389.661 510.444 389.193 509.494 388.255C508.557 387.318 508.088 386.165 508.088 384.796C508.088 383.426 508.557 382.273 509.494 381.336C510.444 380.399 511.597 379.93 512.954 379.93C514.31 379.93 515.464 380.399 516.413 381.336C517.363 382.273 517.838 383.426 517.838 384.796C517.838 386.165 517.363 387.318 516.413 388.255ZM512.954 388.089C513.879 388.089 514.656 387.774 515.285 387.145C515.914 386.516 516.228 385.733 516.228 384.796C516.228 383.858 515.914 383.075 515.285 382.446C514.656 381.817 513.879 381.502 512.954 381.502C512.041 381.502 511.27 381.817 510.641 382.446C510.012 383.075 509.698 383.858 509.698 384.796C509.698 385.733 510.012 386.516 510.641 387.145C511.27 387.774 512.041 388.089 512.954 388.089ZM520.031 389.421V375.915H521.641V389.421H520.031ZM525.207 378.487C524.898 378.487 524.639 378.382 524.43 378.172C524.22 377.963 524.115 377.71 524.115 377.414C524.115 377.118 524.22 376.865 524.43 376.655C524.639 376.433 524.898 376.322 525.207 376.322C525.503 376.322 525.755 376.433 525.965 376.655C526.175 376.865 526.28 377.118 526.28 377.414C526.28 377.71 526.175 377.963 525.965 378.172C525.755 378.382 525.503 378.487 525.207 378.487ZM524.393 389.421V380.17H526.002V389.421H524.393ZM536.561 388.255C535.611 389.193 534.458 389.661 533.101 389.661C531.745 389.661 530.591 389.193 529.642 388.255C528.704 387.318 528.236 386.165 528.236 384.796C528.236 383.426 528.704 382.273 529.642 381.336C530.591 380.399 531.745 379.93 533.101 379.93C534.458 379.93 535.611 380.399 536.561 381.336C537.511 382.273 537.986 383.426 537.986 384.796C537.986 386.165 537.511 387.318 536.561 388.255ZM533.101 388.089C534.026 388.089 534.804 387.774 535.433 387.145C536.062 386.516 536.376 385.733 536.376 384.796C536.376 383.858 536.062 383.075 535.433 382.446C534.804 381.817 534.026 381.502 533.101 381.502C532.189 381.502 531.418 381.817 530.789 382.446C530.16 383.075 529.845 383.858 529.845 384.796C529.845 385.733 530.16 386.516 530.789 387.145C531.418 387.774 532.189 388.089 533.101 388.089ZM553.796 389.421L552.741 386.516H546.914L545.859 389.421H544.027L548.856 376.47H550.799L555.627 389.421H553.796ZM547.506 384.907H552.149L549.818 378.524L547.506 384.907ZM557.285 389.421V375.915H558.894V389.421H557.285ZM561.646 389.421V375.915H563.255V389.421H561.646ZM573.814 388.255C572.865 389.193 571.711 389.661 570.355 389.661C568.998 389.661 567.845 389.193 566.895 388.255C565.958 387.318 565.489 386.165 565.489 384.796C565.489 383.426 565.958 382.273 566.895 381.336C567.845 380.399 568.998 379.93 570.355 379.93C571.711 379.93 572.865 380.399 573.814 381.336C574.764 382.273 575.239 383.426 575.239 384.796C575.239 386.165 574.764 387.318 573.814 388.255ZM570.355 388.089C571.28 388.089 572.057 387.774 572.686 387.145C573.315 386.516 573.629 385.733 573.629 384.796C573.629 383.858 573.315 383.075 572.686 382.446C572.057 381.817 571.28 381.502 570.355 381.502C569.442 381.502 568.671 381.817 568.042 382.446C567.413 383.075 567.099 383.858 567.099 384.796C567.099 385.733 567.413 386.516 568.042 387.145C568.671 387.774 569.442 388.089 570.355 388.089ZM581.78 389.661C580.386 389.661 579.227 389.199 578.302 388.274C577.377 387.336 576.914 386.177 576.914 384.796C576.914 383.414 577.377 382.261 578.302 381.336C579.227 380.399 580.386 379.93 581.78 379.93C582.693 379.93 583.513 380.152 584.241 380.596C584.968 381.028 585.511 381.613 585.869 382.353L584.518 383.13C584.284 382.637 583.92 382.242 583.427 381.946C582.946 381.65 582.397 381.502 581.78 381.502C580.855 381.502 580.078 381.817 579.449 382.446C578.832 383.075 578.524 383.858 578.524 384.796C578.524 385.721 578.832 386.498 579.449 387.127C580.078 387.756 580.855 388.07 581.78 388.07C582.397 388.07 582.952 387.928 583.445 387.645C583.939 387.349 584.315 386.954 584.574 386.461L585.943 387.256C585.548 387.984 584.981 388.57 584.241 389.014C583.501 389.445 582.681 389.661 581.78 389.661ZM595.361 380.17H596.971V389.421H595.361V387.83C594.559 389.051 593.394 389.661 591.864 389.661C590.569 389.661 589.465 389.193 588.553 388.255C587.64 387.306 587.184 386.152 587.184 384.796C587.184 383.439 587.64 382.292 588.553 381.354C589.465 380.405 590.569 379.93 591.864 379.93C593.394 379.93 594.559 380.54 595.361 381.761V380.17ZM592.068 388.107C593.005 388.107 593.788 387.793 594.417 387.164C595.046 386.522 595.361 385.733 595.361 384.796C595.361 383.858 595.046 383.075 594.417 382.446C593.788 381.805 593.005 381.484 592.068 381.484C591.143 381.484 590.366 381.805 589.737 382.446C589.108 383.075 588.793 383.858 588.793 384.796C588.793 385.733 589.108 386.522 589.737 387.164C590.366 387.793 591.143 388.107 592.068 388.107ZM604.737 381.724H602.277V386.738C602.277 387.195 602.363 387.521 602.536 387.719C602.721 387.904 602.998 388.002 603.368 388.015C603.738 388.015 604.195 388.002 604.737 387.978V389.421C603.331 389.606 602.302 389.495 601.648 389.088C600.994 388.668 600.667 387.885 600.667 386.738V381.724H598.836V380.17H600.667V378.061L602.277 377.58V380.17H604.737V381.724ZM607.753 378.487C607.445 378.487 607.186 378.382 606.976 378.172C606.766 377.963 606.662 377.71 606.662 377.414C606.662 377.118 606.766 376.865 606.976 376.655C607.186 376.433 607.445 376.322 607.753 376.322C608.049 376.322 608.302 376.433 608.512 376.655C608.721 376.865 608.826 377.118 608.826 377.414C608.826 377.71 608.721 377.963 608.512 378.172C608.302 378.382 608.049 378.487 607.753 378.487ZM606.939 389.421V380.17H608.549V389.421H606.939ZM619.108 388.255C618.158 389.193 617.005 389.661 615.648 389.661C614.291 389.661 613.138 389.193 612.188 388.255C611.251 387.318 610.782 386.165 610.782 384.796C610.782 383.426 611.251 382.273 612.188 381.336C613.138 380.399 614.291 379.93 615.648 379.93C617.005 379.93 618.158 380.399 619.108 381.336C620.057 382.273 620.532 383.426 620.532 384.796C620.532 386.165 620.057 387.318 619.108 388.255ZM615.648 388.089C616.573 388.089 617.35 387.774 617.979 387.145C618.608 386.516 618.923 385.733 618.923 384.796C618.923 383.858 618.608 383.075 617.979 382.446C617.35 381.817 616.573 381.502 615.648 381.502C614.735 381.502 613.964 381.817 613.335 382.446C612.706 383.075 612.392 383.858 612.392 384.796C612.392 385.733 612.706 386.516 613.335 387.145C613.964 387.774 614.735 388.089 615.648 388.089ZM627.332 379.93C628.418 379.93 629.287 380.275 629.941 380.966C630.595 381.644 630.922 382.569 630.922 383.741V389.421H629.312V383.834C629.312 383.081 629.108 382.501 628.701 382.094C628.294 381.675 627.733 381.465 627.018 381.465C626.216 381.465 625.569 381.718 625.075 382.224C624.582 382.717 624.335 383.482 624.335 384.518V389.421H622.726V380.17H624.335V381.502C624.989 380.454 625.988 379.93 627.332 379.93Z" fill="white"/>
<rect x="331.828" y="313.292" width="314.175" height="286.817" rx="17.6503" fill="#272D4E"/>
<path d="M470.688 392.171V381.499H460.886V374.655H470.688V363.983H478.112V374.655H487.914V381.499H478.112V392.171H470.688ZM523.155 395.825H494.503V387.879L506.973 377.207C508.095 376.24 509.042 375.37 509.815 374.597C510.589 373.785 511.207 373.012 511.671 372.277C512.174 371.504 512.522 370.75 512.715 370.015C512.947 369.28 513.063 368.488 513.063 367.637V366.825C513.063 366.052 512.909 365.375 512.599 364.795C512.29 364.215 511.884 363.732 511.381 363.345C510.879 362.958 510.299 362.668 509.641 362.475C509.023 362.282 508.385 362.185 507.727 362.185C506.761 362.185 505.91 362.34 505.175 362.649C504.479 362.958 503.861 363.384 503.319 363.925C502.817 364.428 502.391 365.027 502.043 365.723C501.695 366.38 501.425 367.096 501.231 367.869L493.633 364.969C494.097 363.577 494.735 362.262 495.547 361.025C496.359 359.749 497.365 358.647 498.563 357.719C499.801 356.752 501.251 355.998 502.913 355.457C504.576 354.916 506.451 354.645 508.539 354.645C510.743 354.645 512.696 354.954 514.397 355.573C516.099 356.192 517.529 357.042 518.689 358.125C519.888 359.208 520.797 360.503 521.415 362.011C522.034 363.48 522.343 365.085 522.343 366.825C522.343 368.565 522.053 370.15 521.473 371.581C520.893 373.012 520.101 374.365 519.095 375.641C518.129 376.878 516.988 378.058 515.673 379.179C514.359 380.3 512.986 381.441 511.555 382.601L504.015 388.517H523.155V395.825ZM555.671 362.939H537.285L536.415 375.757H536.879C537.265 374.79 537.691 373.92 538.155 373.147C538.657 372.335 539.237 371.658 539.895 371.117C540.552 370.537 541.345 370.092 542.273 369.783C543.201 369.474 544.303 369.319 545.579 369.319C547.319 369.319 548.943 369.609 550.451 370.189C551.959 370.769 553.273 371.62 554.395 372.741C555.516 373.824 556.405 375.177 557.063 376.801C557.72 378.386 558.049 380.184 558.049 382.195C558.049 384.244 557.701 386.158 557.005 387.937C556.347 389.677 555.342 391.185 553.989 392.461C552.674 393.737 551.05 394.742 549.117 395.477C547.183 396.173 544.979 396.521 542.505 396.521C540.533 396.521 538.793 396.308 537.285 395.883C535.777 395.458 534.443 394.897 533.283 394.201C532.123 393.466 531.117 392.635 530.267 391.707C529.416 390.779 528.681 389.793 528.063 388.749L534.385 383.761C535.274 385.346 536.337 386.7 537.575 387.821C538.812 388.904 540.475 389.445 542.563 389.445C544.651 389.445 546.217 388.846 547.261 387.647C548.343 386.448 548.885 384.863 548.885 382.891V382.427C548.885 380.571 548.343 379.102 547.261 378.019C546.178 376.936 544.689 376.395 542.795 376.395C541.209 376.395 539.895 376.724 538.851 377.381C537.845 378 537.072 378.618 536.531 379.237L529.397 378.251L530.905 355.341H555.671V362.939ZM569.974 395.825L598.046 355.341H605.702L577.63 395.825H569.974ZM572.932 377.613C569.529 377.613 566.939 376.646 565.16 374.713C563.381 372.78 562.492 369.918 562.492 366.129C562.492 362.34 563.381 359.478 565.16 357.545C566.939 355.612 569.529 354.645 572.932 354.645C576.335 354.645 578.925 355.612 580.704 357.545C582.483 359.478 583.372 362.34 583.372 366.129C583.372 369.918 582.483 372.78 580.704 374.713C578.925 376.646 576.335 377.613 572.932 377.613ZM572.932 372.625C573.937 372.625 574.691 372.238 575.194 371.465C575.697 370.653 575.948 369.377 575.948 367.637V364.621C575.948 362.881 575.697 361.624 575.194 360.851C574.691 360.039 573.937 359.633 572.932 359.633C571.927 359.633 571.173 360.039 570.67 360.851C570.167 361.624 569.916 362.881 569.916 364.621V367.637C569.916 369.377 570.167 370.653 570.67 371.465C571.173 372.238 571.927 372.625 572.932 372.625ZM602.744 396.521C599.341 396.521 596.751 395.554 594.972 393.621C593.193 391.688 592.304 388.826 592.304 385.037C592.304 381.248 593.193 378.386 594.972 376.453C596.751 374.52 599.341 373.553 602.744 373.553C606.147 373.553 608.737 374.52 610.516 376.453C612.295 378.386 613.184 381.248 613.184 385.037C613.184 388.826 612.295 391.688 610.516 393.621C608.737 395.554 606.147 396.521 602.744 396.521ZM602.744 391.533C603.749 391.533 604.503 391.146 605.006 390.373C605.509 389.561 605.76 388.285 605.76 386.545V383.529C605.76 381.789 605.509 380.532 605.006 379.759C604.503 378.947 603.749 378.541 602.744 378.541C601.739 378.541 600.985 378.947 600.482 379.759C599.979 380.532 599.728 381.789 599.728 383.529V386.545C599.728 388.285 599.979 389.561 600.482 390.373C600.985 391.146 601.739 391.533 602.744 391.533Z" fill="white"/>
<g filter="url(#filter0_d_145_8)">
<path d="M609 463C609 463 596.921 511.556 586.351 511.556C575.781 511.556 571.252 483.444 557.662 483.444C544.073 483.444 527.464 555 513.874 555C500.285 555 483.675 511.556 474.616 511.556C465.556 511.556 454.987 544.778 438.377 544.778C423.592 544.778 423.592 527.86 418.748 532.415C413.905 536.969 409.389 537.033 401.989 523.224C394.589 509.415 389.073 536.887 381 523.224" stroke="#6975B4" stroke-width="12" stroke-linecap="round" stroke-linejoin="round"/>
</g>
<defs>
<filter id="filter0_d_145_8" x="364.999" y="456.999" width="260.002" height="124.001" filterUnits="userSpaceOnUse" color-interpolation-filters="sRGB">
<feFlood flood-opacity="0" result="BackgroundImageFix"/>
<feColorMatrix in="SourceAlpha" type="matrix" values="0 0 0 0 0 0 0 0 0 0 0 0 0 0 0 0 0 0 127 0" result="hardAlpha"/>
<feOffset dy="10"/>
<feGaussianBlur stdDeviation="5"/>
<feColorMatrix type="matrix" values="0 0 0 0 0.140156 0 0 0 0 0.162825 0 0 0 0 0.2875 0 0 0 0.55 0"/>
<feBlend mode="normal" in2="BackgroundImageFix" result="effect1_dropShadow_145_8"/>
<feBlend mode="normal" in="SourceGraphic" in2="effect1_dropShadow_145_8" result="shape"/>
</filter>
</defs>
</svg>
