<svg width="117" height="43" viewBox="0 0 117 43" fill="none" xmlns="http://www.w3.org/2000/svg">
<path d="M8.24292 42.9999H0L15.0079 0.369873H24.5414L39.5702 42.9999H31.3272L19.9412 9.11236H19.6081L8.24292 42.9999ZM8.51352 26.2851H30.9942V32.4881H8.51352V26.2851Z" fill="#4C1B7D"/>
<path d="M52.9076 0.369873V42.9999H45.1851V0.369873H52.9076Z" fill="#4C1B7D"/>
<path d="M62.6349 42.9999L57.0913 23.3577H60.9181L64.4571 37.792H64.6394L68.4182 23.3577H71.8997L75.6881 37.8016H75.8608L79.3998 23.3577H83.2266L77.6831 42.9999H74.1728L70.2405 29.2177H70.087L66.1452 42.9999H62.6349Z" fill="#272D4E"/>
<path d="M85.6939 42.9999V23.3577H98.469V26.3404H89.2521V31.673H97.8072V34.6558H89.2521V40.0171H98.5457V42.9999H85.6939Z" fill="#272D4E"/>
<path d="M102.099 42.9999V23.3577H109.618C111.038 23.3577 112.218 23.5815 113.158 24.029C114.104 24.4702 114.81 25.0744 115.277 25.8417C115.75 26.609 115.987 27.4786 115.987 28.4505C115.987 29.2497 115.833 29.9339 115.526 30.5029C115.22 31.0656 114.807 31.5228 114.289 31.8744C113.771 32.2261 113.193 32.4786 112.553 32.6321V32.8239C113.25 32.8623 113.918 33.0765 114.558 33.4665C115.204 33.8502 115.731 34.3936 116.14 35.097C116.55 35.8003 116.754 36.6507 116.754 37.6482C116.754 38.6648 116.508 39.5791 116.016 40.3912C115.523 41.1968 114.782 41.833 113.791 42.2998C112.799 42.7665 111.553 42.9999 110.05 42.9999H102.099ZM105.657 40.0267H109.484C110.776 40.0267 111.706 39.7805 112.275 39.2882C112.851 38.7895 113.138 38.1501 113.138 37.37C113.138 36.7882 112.994 36.2639 112.707 35.7971C112.419 35.324 112.01 34.9531 111.479 34.6846C110.948 34.4096 110.315 34.2722 109.58 34.2722H105.657V40.0267ZM105.657 31.7114H109.177C109.791 31.7114 110.344 31.5995 110.837 31.3757C111.329 31.1455 111.716 30.8226 111.997 30.407C112.285 29.985 112.429 29.4863 112.429 28.9108C112.429 28.1499 112.16 27.5233 111.623 27.031C111.092 26.5387 110.303 26.2925 109.254 26.2925H105.657V31.7114Z" fill="#272D4E"/>
<path d="M62.1167 15.2007C62.157 15.1967 62.2488 15.1951 62.3382 15.1783C63.6178 14.939 64.1452 13.4816 63.3184 12.4744C63.1734 12.2982 63.0229 12.1248 62.896 11.9363C62.6109 11.5124 62.4959 11.0526 62.6852 10.5571C62.7167 10.4749 62.8033 10.3858 62.8852 10.3545C63.3727 10.1684 63.8298 10.2711 64.249 10.5531C64.4661 10.699 64.663 10.8751 64.8706 11.0354C65.5521 11.56 66.5246 11.4828 67.0919 10.8608C67.68 10.2159 67.6823 9.24196 67.0975 8.6199C66.4915 7.97588 65.5397 7.90357 64.8518 8.4501C64.6865 8.58155 64.5288 8.72257 64.3584 8.84643C63.8218 9.23671 63.2529 9.34339 62.6425 9.01942C62.5718 8.98186 62.5011 8.94471 62.4277 8.91315C61.8875 8.68222 61.2883 9.00384 61.1833 9.58116C61.1437 9.79767 61.192 9.99861 61.2919 10.1928C61.4523 10.5048 61.5985 10.826 61.531 11.1896C61.3841 11.9826 60.8898 12.5091 60.198 12.8667C59.7959 13.0749 59.3763 13.084 58.9587 12.8967C58.8442 12.8452 58.7328 12.7873 58.6186 12.7353C58.1511 12.5232 57.6006 12.7469 57.4137 13.2231C57.2237 13.7081 57.4828 14.2486 57.9782 14.4077C58.2741 14.5028 58.5395 14.4236 58.7982 14.2818C59.3943 13.9542 59.962 14.0317 60.5014 14.414C60.6778 14.5391 60.8415 14.6829 61.0096 14.8192C61.3182 15.0696 61.6671 15.2039 62.1167 15.2007ZM73.3798 14.8319C73.3762 14.889 73.3738 14.9458 73.3686 15.0029C73.3654 15.0369 73.3603 15.0709 73.3515 15.104C73.1761 15.772 72.759 16.2494 72.1745 16.5926C71.7027 16.8698 71.2172 16.9002 70.7201 16.6589C70.6024 16.6017 70.4866 16.5367 70.3628 16.4963C69.8801 16.3381 69.3619 16.6158 69.2258 17.0992C69.0853 17.5962 69.3823 18.0976 69.8837 18.2206C70.1723 18.2918 70.4227 18.1967 70.6691 18.0648C71.1816 17.79 71.6914 17.8055 72.1805 18.1123C72.4161 18.2602 72.6312 18.4416 72.8493 18.6157C73.1642 18.867 73.5203 19.0145 73.9219 18.9989C74.6078 18.9717 75.1281 18.6525 75.4083 18.0201C75.6942 17.3752 75.5772 16.7736 75.1276 16.2306C74.9608 16.0293 74.7975 15.8216 74.659 15.6002C74.4586 15.2802 74.3711 14.9226 74.4681 14.5511C74.5264 14.3277 74.6398 14.1184 74.7264 13.9023C74.8685 13.5475 74.8306 13.2151 74.5703 12.9302C74.3164 12.653 73.9934 12.5583 73.6353 12.6786C73.2752 12.7996 73.0401 13.0565 73.0269 13.4452C73.0205 13.6346 73.0796 13.8375 73.1531 14.0166C73.2612 14.2806 73.3898 14.5351 73.3798 14.8319ZM75.5564 1.74586C75.5552 0.999174 75.1791 0.403496 74.5679 0.147008C73.9247 -0.123063 73.3311 -0.0171923 72.7965 0.43306C72.6352 0.568895 72.4731 0.705929 72.2987 0.823386C71.7796 1.17376 71.2352 1.23888 70.6666 0.940048C70.586 0.897695 70.5041 0.855746 70.4195 0.822586C69.9408 0.634814 69.4002 0.885709 69.2378 1.36872C69.0721 1.86013 69.3563 2.38668 69.8606 2.52451C70.1121 2.59323 70.3441 2.54169 70.5688 2.42144C70.891 2.24925 71.2271 2.1242 71.6009 2.20291C72.327 2.35632 72.8233 2.81057 73.1778 3.439C73.4377 3.89964 73.448 4.37147 73.2141 4.84809C73.1562 4.96555 73.0907 5.0822 73.0545 5.20685C72.951 5.55923 73.0229 5.87923 73.2971 6.12853C73.5802 6.38582 73.9148 6.44694 74.2669 6.29034C74.609 6.13812 74.8119 5.86365 74.7935 5.48411C74.7843 5.29315 74.7152 5.09339 74.6282 4.92C74.3532 4.37067 74.3655 3.84171 74.7012 3.32953C74.8354 3.12538 74.9903 2.93322 75.1484 2.74624C75.4147 2.43143 75.5456 2.07106 75.5564 1.74586ZM71.7055 5.44297C71.6959 5.35827 71.6922 5.24321 71.6691 5.13214C71.4048 3.87048 69.9416 3.37868 68.9515 4.21406C68.7559 4.37906 68.5554 4.54366 68.3391 4.6787C67.8704 4.97074 67.3765 5.00989 66.8719 4.7618C66.7849 4.71905 66.6987 4.6739 66.61 4.63475C66.2627 4.48134 65.9377 4.52648 65.6514 4.77058C65.3692 5.01149 65.2754 5.32831 65.3716 5.68307C65.4722 6.05343 65.7277 6.26796 66.1078 6.33548C66.3605 6.38023 66.5797 6.28794 66.7925 6.17368C67.3095 5.89641 67.8177 5.91279 68.3239 6.20484C68.7767 6.46652 69.122 6.82928 69.3568 7.29432C69.5572 7.69183 69.5867 8.10213 69.4106 8.51763C69.3552 8.64866 69.2829 8.77291 69.2294 8.90476C69.0881 9.25309 69.1328 9.57871 69.3843 9.86118C69.637 10.1448 69.9612 10.2275 70.3181 10.1177C70.6766 10.0074 70.8842 9.75216 70.9397 9.37541C70.978 9.11611 70.8771 8.89517 70.7629 8.67623C70.4978 8.16765 70.5125 7.66227 70.8127 7.17845C70.9593 6.94235 71.1409 6.72661 71.3161 6.50967C71.5617 6.20524 71.6906 5.86046 71.7055 5.44297ZM58.7428 4.18809C58.7416 3.80496 58.8685 3.45538 59.2115 3.03949C59.6159 2.54889 60.1061 2.19012 60.7776 2.18293C61.1026 2.17973 61.3785 2.33794 61.6627 2.47178C62.0428 2.65076 62.4852 2.5361 62.7395 2.2081C62.9946 1.8797 62.9926 1.42505 62.7355 1.09625C62.4876 0.779439 62.0468 0.67117 61.6695 0.83617C61.5286 0.897695 61.3921 0.970402 61.2495 1.02794C60.9058 1.16697 60.5473 1.18574 60.2191 1.01995C59.9173 0.867332 59.6295 0.673967 59.368 0.458629C58.9264 0.0950712 58.4429 -0.0787174 57.878 0.0415363C56.6608 0.300022 56.1593 1.73548 56.943 2.70469C57.072 2.8645 57.2101 3.01752 57.3303 3.18371C57.7239 3.72825 57.8201 4.30355 57.49 4.9168C57.452 4.98712 57.4153 5.05863 57.3858 5.13254C57.2428 5.49091 57.3411 5.90081 57.6265 6.14771C57.9219 6.4038 58.3367 6.44015 58.6785 6.24C59.0933 5.99669 59.2326 5.48611 59.0007 5.02987C58.8645 4.76299 58.7432 4.49492 58.7428 4.18809ZM58.387 15.704C57.2281 15.6398 56.3721 16.6629 56.6009 17.6828C56.8795 18.9258 58.3296 19.4132 59.3017 18.5918C59.4322 18.4815 59.5608 18.3677 59.6989 18.267C60.0934 17.9789 60.5217 17.7824 61.022 17.909C61.2455 17.9658 61.4535 18.0824 61.6699 18.1687C62.0185 18.3073 62.3466 18.2678 62.6277 18.0169C62.9024 17.7716 62.9962 17.4559 62.892 17.1004C62.7862 16.7392 62.5379 16.5275 62.1642 16.4616C61.925 16.4196 61.7146 16.4935 61.5106 16.605C61.1465 16.8043 60.7637 16.8827 60.3569 16.7688C59.9788 16.6629 59.673 16.4332 59.3875 16.1759C59.0661 15.8859 58.698 15.7161 58.387 15.704ZM65.1041 14.1815C65.1057 14.8963 65.689 15.4751 66.4036 15.4708C67.1103 15.4668 67.6804 14.889 67.6804 14.178C67.6804 13.4608 67.1038 12.8875 66.3833 12.8871C65.685 12.8871 65.1025 13.4768 65.1041 14.1815ZM65.7561 17.3421C65.7528 16.8715 65.3576 16.482 64.8881 16.4863C64.4274 16.4907 64.041 16.8827 64.041 17.3453C64.041 17.8215 64.4278 18.2094 64.8993 18.2063C65.374 18.2034 65.7593 17.8147 65.7561 17.3421ZM70.9046 14.2562C70.9054 13.788 70.5289 13.4029 70.063 13.3953C69.5983 13.3877 69.1947 13.7828 69.1902 14.2495C69.1859 14.7157 69.5819 15.1164 70.0478 15.1176C70.5197 15.1188 70.9034 14.7329 70.9046 14.2562ZM68.1271 1.67915C68.1295 1.19693 67.7546 0.814596 67.2787 0.813797C66.7993 0.812998 66.4172 1.19254 66.4172 1.66916C66.4172 2.13978 66.7929 2.52132 67.2595 2.52451C67.7439 2.52732 68.1251 2.15617 68.1271 1.67915ZM73.056 10.6459C73.0564 11.1257 73.4353 11.504 73.9132 11.502C74.3763 11.5 74.7631 11.1145 74.7672 10.6519C74.7712 10.1804 74.3839 9.79007 73.9104 9.78889C73.4285 9.78771 73.0556 10.1612 73.056 10.6459ZM61.0611 4.61317C60.5896 4.61517 60.2035 5.0063 60.2067 5.47813C60.2099 5.94196 60.594 6.32509 61.0591 6.32789C61.5338 6.33068 61.9202 5.94715 61.9214 5.47213C61.9226 5.0003 61.533 4.61158 61.0611 4.61317ZM58.2034 9.78844C57.7299 9.79206 57.3383 10.188 57.3478 10.6538C57.3574 11.126 57.7503 11.5059 58.2234 11.5012C58.6849 11.4964 59.0673 11.1077 59.0681 10.6426C59.0685 10.1721 58.6773 9.78527 58.2034 9.78844ZM70.051 11.0246C69.7172 11.0262 69.4406 11.303 69.4422 11.6342C69.4437 11.9574 69.7172 12.2331 70.0418 12.2379C70.382 12.2431 70.661 11.9607 70.6558 11.6167C70.6507 11.2903 70.378 11.023 70.051 11.0246ZM64.3124 5.47413C64.3108 5.14253 64.0302 4.86047 63.7028 4.86207C63.3738 4.86367 63.0932 5.14852 63.0972 5.47733C63.1012 5.80692 63.3878 6.08698 63.7144 6.08059C64.0362 6.0742 64.314 5.79214 64.3124 5.47413ZM73.8996 8.61911C74.2401 8.6215 74.5069 8.36182 74.5148 8.02024C74.5224 7.69103 74.2446 7.41457 73.9064 7.41417C73.5663 7.41417 73.2999 7.68145 73.3015 8.02183C73.3032 8.35183 73.5686 8.61711 73.8996 8.61911ZM64.0454 1.67435C64.0474 2.01314 64.318 2.28042 64.6546 2.27642C64.9891 2.27283 65.2546 1.99676 65.2498 1.65757C65.245 1.32797 64.9776 1.06549 64.6462 1.06589C64.3049 1.06629 64.043 1.33157 64.0454 1.67435ZM68.1271 17.3469C68.1259 17.0033 67.8644 16.7436 67.5211 16.7452C67.1845 16.7464 66.9158 17.0205 66.921 17.3565C66.9262 17.6876 67.1917 17.9506 67.5218 17.9517C67.8612 17.9529 68.1283 17.6861 68.1271 17.3469ZM57.6085 8.01104C57.6069 8.35582 57.866 8.61871 58.2086 8.61911C58.5495 8.6195 58.8138 8.35463 58.8126 8.01344C58.8114 7.67785 58.5563 7.41976 58.2198 7.41457C57.8764 7.40898 57.6101 7.66866 57.6085 8.01104Z" fill="#4C1B7D"/>
</svg>
