<svg width="71" height="80" viewBox="0 0 71 80" fill="none" xmlns="http://www.w3.org/2000/svg">
<circle cx="37" cy="29" r="29" fill="#A0C9FF"/>
<path d="M36.4144 52.7486C36.1566 52.2052 35.5066 51.9734 34.9631 52.2315C34.0788 52.6512 33.1516 52.9981 32.2074 53.2622C31.8124 53.3727 31.5131 53.6955 31.4328 54.0977L30.2803 59.8601C30.1665 60.429 29.6628 60.8421 29.0825 60.8421H25.9385C25.3582 60.8421 24.8546 60.4292 24.7407 59.8601L23.5882 54.0977C23.5077 53.6955 23.2083 53.3727 22.8136 53.2622C21.4797 52.8889 20.1924 52.3555 18.9874 51.6768C18.6299 51.4755 18.1896 51.492 17.8484 51.7195L12.9583 54.9795C12.4756 55.3013 11.8273 55.237 11.4168 54.8268L9.19375 52.6036C8.78339 52.1932 8.71938 51.545 9.04106 51.0621L12.301 46.172C12.5287 45.8307 12.5452 45.3905 12.3438 45.033C11.6649 43.8279 11.1315 42.5405 10.7584 41.2069C10.6479 40.8119 10.3251 40.5126 9.92283 40.4322L4.16052 39.2797C3.59154 39.166 3.17849 38.6622 3.17849 38.0819V34.938C3.17849 34.3577 3.59141 33.8541 4.16052 33.7402L9.92283 32.5877C10.3251 32.5072 10.6479 32.2078 10.7584 31.813C11.1317 30.4791 11.6651 29.1918 12.3438 27.9869C12.5451 27.6295 12.5285 27.1892 12.301 26.8479L9.04133 21.9583C8.71951 21.4754 8.78366 20.8273 9.19402 20.4168L11.4171 18.1937C11.8275 17.7834 12.4758 17.7194 12.9586 18.0411L17.8487 21.301C18.1899 21.5287 18.6303 21.5451 18.9877 21.3438C20.1926 20.6651 21.4799 20.1317 22.8138 19.7584C23.2088 19.6479 23.5082 19.3251 23.5885 18.9228L24.741 13.1605C24.8547 12.5915 25.3585 12.1785 25.9388 12.1785H29.0827C29.663 12.1785 30.1667 12.5914 30.2805 13.1605L31.433 18.9228C31.5135 19.3251 31.8129 19.6479 32.2077 19.7584C33.5416 20.1317 34.8289 20.6651 36.0338 21.3438C36.3913 21.5451 36.8316 21.5285 37.1728 21.301L42.063 18.0411C42.5457 17.7192 43.1938 17.7835 43.6044 18.1937L45.8275 20.4168C46.2379 20.8272 46.3019 21.4754 45.9802 21.9583L42.7202 26.8484C42.4926 27.1898 42.476 27.6299 42.6775 27.9874C43.3562 29.1924 43.8896 30.4797 44.2629 31.8136C44.3734 32.2086 44.6961 32.5079 45.0984 32.5882L50.8607 33.7407C51.4297 33.8545 51.8428 34.3582 51.8428 34.9385V38.0825C51.8428 38.6628 51.4298 39.1664 50.8607 39.2803L45.0984 40.4328C44.6961 40.5132 44.3734 40.8127 44.2629 41.2077C43.9921 42.1753 43.6349 43.1244 43.2009 44.0289C42.9405 44.5713 43.1694 45.2221 43.7118 45.4823C44.2542 45.7428 44.9052 45.5138 45.1653 44.9714C45.5569 44.1551 45.8931 43.3065 46.1682 42.4409L51.2881 41.417C52.8714 41.1 54.021 39.6976 54.021 38.0823V34.9384C54.021 33.3231 52.8714 31.9208 51.2874 31.6039L46.1676 30.5799C45.8318 29.5228 45.4062 28.4951 44.8963 27.5114L47.7926 23.1667C48.6886 21.8227 48.51 20.0182 47.3677 18.8759L45.1446 16.6528C44.0022 15.5106 42.1977 15.3321 40.8538 16.2279L36.5091 19.1243C35.5255 18.6145 34.4977 18.1888 33.4406 17.8529L32.4167 12.7332C32.1001 11.1496 30.6978 10 29.0825 10H25.9385C24.3232 10 22.921 11.1496 22.604 12.7336L21.5801 17.8533C20.523 18.1892 19.4952 18.6148 18.5116 19.1247L14.1671 16.2283C12.8233 15.3324 11.0186 15.5108 9.87634 16.6532L7.65324 18.8763C6.51111 20.0186 6.33241 21.823 7.22833 23.1671L10.1247 27.5118C9.61489 28.4955 9.18917 29.5231 8.85333 30.5803L3.73345 31.6043C2.14955 31.921 1 33.3233 1 34.9386V38.0826C1 39.6979 2.14955 41.1001 3.73359 41.4171L8.85333 42.4411C9.18903 43.498 9.61476 44.5257 10.1247 45.5095L7.22833 49.8542C6.33241 51.1983 6.51097 53.0028 7.65324 54.145L9.87634 56.3681C11.0186 57.5104 12.8231 57.6888 14.1671 56.793L18.5118 53.8967C19.4955 54.4065 20.5231 54.8322 21.5803 55.168L22.6043 60.2881C22.921 61.8716 24.3233 63.0212 25.9386 63.0212H29.0826C30.6979 63.0212 32.1001 61.8717 32.4171 60.2877L33.4411 55.1679C34.2805 54.9012 35.1045 54.5768 35.8976 54.2003C36.4411 53.9421 36.6726 53.2922 36.4144 52.7486Z" fill="#272D4E" stroke="#272D4E" stroke-width="0.7"/>
<path d="M36.9472 42.5643C37.1062 42.6459 37.276 42.6846 37.4434 42.6846C37.8391 42.6846 38.2209 42.4683 38.4137 42.092C39.2924 40.3785 39.757 38.4485 39.757 36.5107C39.757 29.758 34.2632 24.2642 27.5104 24.2642C24.2978 24.2642 21.2621 25.4989 18.9622 27.7412C18.5314 28.1612 18.5226 28.851 18.9425 29.2818C19.3625 29.7125 20.0522 29.7215 20.483 29.3014C22.3737 27.4584 24.8693 26.4432 27.5101 26.4432C33.0614 26.4432 37.5778 30.9595 37.5778 36.5109C37.5778 38.1272 37.2066 39.6706 36.4747 41.098C36.2003 41.633 36.4118 42.2896 36.9472 42.5643Z" fill="#272D4E" stroke="#272D4E" stroke-width="0.7"/>
<path d="M17.3124 31.8489C16.7433 31.6531 16.1237 31.9556 15.9279 32.5246C15.4876 33.8046 15.2643 35.1458 15.2643 36.5106C15.2643 43.2634 20.7581 48.7571 27.5108 48.7571C30.1079 48.7571 32.5892 47.9545 34.6867 46.4355C35.174 46.0826 35.283 45.4013 34.9302 44.914C34.5774 44.4267 33.896 44.3177 33.4087 44.6705C31.6853 45.9183 29.6459 46.578 27.5107 46.578C21.9593 46.578 17.443 42.0616 17.443 36.5103C17.443 35.3872 17.6263 34.2844 17.988 33.2331C18.1837 32.6642 17.8813 32.0444 17.3124 31.8489Z" fill="#272D4E" stroke="#272D4E" stroke-width="0.7"/>
<path d="M67.9033 57.6148L64.7529 56.9848C64.561 56.4138 64.3299 55.8562 64.0619 55.3173L65.8443 52.6438C66.5315 51.6129 66.3946 50.2288 65.5185 49.3529L64.0576 47.892C63.1815 47.016 61.7975 46.879 60.7666 47.5661L58.0932 49.3486C57.5542 49.0806 56.9967 48.8495 56.4257 48.6577L55.7957 45.5073C55.5527 44.2924 54.4771 43.4106 53.2382 43.4106H51.1721C49.9334 43.4106 48.8577 44.2924 48.6147 45.5073L47.9847 48.6577C47.4137 48.8496 46.8561 49.0808 46.3172 49.3486L43.6437 47.5661C42.6128 46.8791 41.2287 47.0159 40.3528 47.892L38.8919 49.3529C38.0158 50.229 37.8789 51.613 38.566 52.6438L40.3484 55.3173C39.98 56.0583 39.6815 56.8342 39.4583 57.6322C39.2962 58.2117 39.6346 58.8127 40.2139 58.975C40.7934 59.1371 41.3945 58.7989 41.5568 58.2194C41.7939 57.3714 42.133 56.5534 42.5643 55.7878C42.7656 55.4303 42.749 54.99 42.5215 54.6488L40.3792 51.4353C40.2661 51.2656 40.2886 51.0378 40.4328 50.8936L41.8937 49.4328C42.0379 49.2887 42.2656 49.2663 42.4353 49.3791L45.6488 51.5215C45.99 51.7491 46.4303 51.7656 46.7878 51.5642C47.5536 51.133 48.3714 50.7939 49.2194 50.5567C49.6144 50.4462 49.9137 50.1235 49.994 49.7212L50.7513 45.9347C50.7912 45.7348 50.9682 45.5897 51.1721 45.5897H53.2382C53.442 45.5897 53.6191 45.7348 53.6591 45.9347L54.4164 49.7214C54.4968 50.1237 54.7963 50.4465 55.191 50.557C56.0389 50.7942 56.857 51.1333 57.6226 51.5645C57.98 51.7658 58.4204 51.7493 58.7616 51.5218L61.9751 49.3794C62.1448 49.2663 62.3725 49.2887 62.5167 49.4331L63.9776 50.8939C64.1216 51.0381 64.1441 51.2659 64.0312 51.4355L61.8888 54.649C61.6612 54.9904 61.6446 55.4305 61.8461 55.7881C62.2774 56.5538 62.6164 57.3717 62.8536 58.2196C62.9641 58.6146 63.2869 58.9139 63.6892 58.9943L67.4757 59.7515C67.6755 59.7914 67.8207 59.9685 67.8207 60.1724V62.2385C67.8207 62.4422 67.6755 62.6193 67.4757 62.6594L63.6889 63.4166C63.2866 63.4971 62.9639 63.7965 62.8534 64.1912C62.6162 65.0392 62.2771 65.8572 61.8458 66.6228C61.6445 66.9803 61.6611 67.4206 61.8886 67.7618L64.0309 70.9753C64.144 71.145 64.1215 71.3728 63.9773 71.517L62.5164 72.9778C62.3724 73.122 62.1446 73.1444 61.9748 73.0315L58.7613 70.8891C58.4201 70.6616 57.9797 70.645 57.6223 70.8464C56.8566 71.2776 56.0387 71.6167 55.1907 71.8539C54.7957 71.9644 54.4964 72.2871 54.4161 72.6894L53.6588 76.4759C53.6189 76.6758 53.4419 76.8209 53.238 76.8209H51.1719C50.9681 76.8209 50.791 76.6758 50.751 76.4759L49.9938 72.6891C49.9133 72.2869 49.6138 71.9641 49.2191 71.8536C48.3712 71.6164 47.5531 71.2773 46.7875 70.8461C46.43 70.6448 45.9896 70.6613 45.6485 70.8888L42.435 73.0312C42.2653 73.1443 42.0376 73.1219 41.8934 72.9775L40.4325 71.5167C40.2885 71.3725 40.266 71.1447 40.3789 70.9751L42.5213 67.7616C42.7489 67.4202 42.7655 66.9801 42.564 66.6225C42.1327 65.8568 41.7937 65.0389 41.5565 64.191C41.446 63.796 41.1232 63.4967 40.7209 63.4163L36.9344 62.6591C36.7346 62.6192 36.5894 62.4421 36.5894 62.2382V60.1721C36.5894 59.9684 36.7346 59.7913 36.9344 59.7512L37.1662 59.7049C37.7562 59.5868 38.139 59.0129 38.0208 58.4229C37.9027 57.8329 37.3294 57.4508 36.7386 57.5683L36.5068 57.6147C35.2922 57.8578 34.4104 58.9334 34.4104 60.1723V62.2383C34.4104 63.4771 35.2922 64.5528 36.5071 64.7958L39.6575 65.4258C39.8494 65.9968 40.0805 66.5543 40.3483 67.0933L38.5659 69.7668C37.8786 70.7977 38.0157 72.1818 38.8918 73.0577L40.3526 74.5186C41.2287 75.3947 42.6128 75.5316 43.6436 74.8445L46.3171 73.062C46.856 73.33 47.4135 73.5611 47.9845 73.7529L48.6146 76.9033C48.8578 78.1182 49.9334 79 51.1723 79H53.2384C54.4771 79 55.5528 78.1182 55.7958 76.9033L56.4258 73.7529C56.9969 73.5609 57.5544 73.3298 58.0933 73.0619L60.7668 74.8443C61.7977 75.5315 63.1818 75.3946 64.0578 74.5185L65.5186 73.0576C66.3947 72.1815 66.5317 70.7974 65.8445 69.7666L64.0621 67.0931C64.33 66.5542 64.5611 65.9967 64.7529 65.4257L67.9033 64.7957C69.1181 64.5527 69.9998 63.4771 69.9998 62.2382V60.1721C70 58.9334 69.1182 57.8578 67.9033 57.6148Z" fill="#272D4E" stroke="#272D4E" stroke-width="0.7"/>
<path d="M52.2052 57.2832C54.368 57.2832 56.1273 59.0425 56.1273 61.2052C56.1273 61.807 56.6152 62.2947 57.2168 62.2947C57.8184 62.2947 58.3062 61.8068 58.3062 61.2052C58.3062 57.8411 55.5693 55.1041 52.2051 55.1041C48.841 55.1041 46.104 57.8411 46.104 61.2052C46.104 64.5694 48.841 67.3063 52.2051 67.3063C53.5677 67.3063 54.8566 66.8669 55.9326 66.0356C56.4087 65.6677 56.4965 64.9835 56.1287 64.5073C55.7608 64.0311 55.0764 63.9433 54.6003 64.3112C53.9092 64.845 53.081 65.1273 52.2051 65.1273C50.0424 65.1273 48.283 63.368 48.283 61.2052C48.2832 59.0424 50.0425 57.2832 52.2052 57.2832Z" fill="#272D4E" stroke="#272D4E" stroke-width="0.7"/>
<path d="M34.1481 36.5107C34.1481 32.8507 31.1704 29.873 27.5105 29.873C23.8506 29.873 20.8729 32.8508 20.8729 36.5107C20.8729 40.1706 23.8506 43.1483 27.5105 43.1483C31.1705 43.1483 34.1481 40.1705 34.1481 36.5107ZM23.0518 36.5107C23.0518 34.0523 25.0521 32.0519 27.5105 32.0519C29.9689 32.0519 31.9693 34.0523 31.9693 36.5107C31.9693 38.9691 29.9691 40.9694 27.5105 40.9694C25.0519 40.9694 23.0518 38.9691 23.0518 36.5107Z" fill="#272D4E" stroke="#272D4E" stroke-width="0.7"/>
</svg>
