<svg width="73" height="72" viewBox="0 0 73 72" fill="none" xmlns="http://www.w3.org/2000/svg">
<circle cx="29" cy="29" r="29" fill="#A0C9FF"/>
<path d="M67.9023 14H20.0977C17.2868 14 15 16.2868 15 19.0977V66.6758C15 69.4866 17.2868 71.7734 20.0977 71.7734H67.9023C70.7132 71.7734 73 69.4866 73 66.6758V19.0977C73 16.2868 70.7132 14 67.9023 14ZM20.0977 17.3984H67.9023C68.8393 17.3984 69.6016 18.1607 69.6016 19.0977V27.5938H18.3984V19.0977C18.3984 18.1607 19.1607 17.3984 20.0977 17.3984ZM67.9023 68.375H20.0977C19.1607 68.375 18.3984 67.6127 18.3984 66.6758V30.9922H69.6016V66.6758C69.6016 67.6127 68.8393 68.375 67.9023 68.375Z" fill="#272D4E"/>
<path d="M49.7671 36.2272C48.9045 35.8575 47.9055 36.2571 47.5359 37.1196L37.3406 60.9087C36.9708 61.7712 37.3705 62.7702 38.233 63.1398C39.0958 63.5096 40.0946 63.1097 40.4642 62.2474L50.6595 38.4584C51.0292 37.5957 50.6296 36.5968 49.7671 36.2272Z" fill="#272D4E"/>
<path d="M35.1316 41.825C34.5453 41.0922 33.4758 40.9735 32.7433 41.5597L24.2472 48.3566C23.3977 49.0359 23.3971 50.3304 24.2472 51.0103L32.7433 57.8072C33.4761 58.3935 34.5456 58.2746 35.1316 57.5419C35.7178 56.809 35.5991 55.7397 34.8662 55.1536L28.0288 49.6834L34.8662 44.2134C35.5991 43.6272 35.7178 42.5579 35.1316 41.825Z" fill="#272D4E"/>
<path d="M63.7529 48.3566L55.2568 41.5597C54.524 40.9734 53.4546 41.0922 52.8685 41.825C52.2822 42.5579 52.401 43.6272 53.1339 44.2134L59.9713 49.6835L53.1339 55.1535C52.401 55.7397 52.2822 56.809 52.8685 57.5418C53.4555 58.2754 54.525 58.3928 55.2568 57.8071L63.7529 51.0102C64.6024 50.3309 64.6029 49.0365 63.7529 48.3566Z" fill="#272D4E"/>
<path d="M23.6094 24.1953C24.5478 24.1953 25.3086 23.4345 25.3086 22.4961C25.3086 21.5576 24.5478 20.7969 23.6094 20.7969C22.6709 20.7969 21.9102 21.5576 21.9102 22.4961C21.9102 23.4345 22.6709 24.1953 23.6094 24.1953Z" fill="#272D4E"/>
<path d="M30.4063 24.1953C31.3447 24.1953 32.1055 23.4345 32.1055 22.4961C32.1055 21.5576 31.3447 20.7969 30.4063 20.7969C29.4678 20.7969 28.707 21.5576 28.707 22.4961C28.707 23.4345 29.4678 24.1953 30.4063 24.1953Z" fill="#272D4E"/>
<path d="M37.2031 24.1953C38.1416 24.1953 38.9023 23.4345 38.9023 22.4961C38.9023 21.5576 38.1416 20.7969 37.2031 20.7969C36.2647 20.7969 35.5039 21.5576 35.5039 22.4961C35.5039 23.4345 36.2647 24.1953 37.2031 24.1953Z" fill="#272D4E"/>
<path d="M54.1953 24.1953H64.3906C65.329 24.1953 66.0898 23.4345 66.0898 22.4961C66.0898 21.5577 65.329 20.7969 64.3906 20.7969H54.1953C53.2569 20.7969 52.4961 21.5577 52.4961 22.4961C52.4961 23.4345 53.2569 24.1953 54.1953 24.1953Z" fill="#272D4E"/>
</svg>
